<svg width="87" height="28" viewBox="0 0 87 28" fill="none" xmlns="http://www.w3.org/2000/svg">
<path d="M11.6467 5.04492L11.387 9.06445L11.2913 9.0918C10.6168 8.08008 9.46834 7.42383 7.84595 7.12305C7.33553 7.02279 6.84334 6.97266 6.36938 6.97266C5.90454 6.97266 5.5035 7.01367 5.16626 7.0957C4.83813 7.17773 4.55558 7.29622 4.3186 7.45117C3.8173 7.7793 3.56665 8.20768 3.56665 8.73633C3.56665 9.42904 3.7854 9.94857 4.2229 10.2949C4.76978 10.7142 5.67668 11.0104 6.9436 11.1836C8.21053 11.3477 9.22681 11.5755 9.99243 11.8672C10.7581 12.1589 11.387 12.528 11.8792 12.9746C12.8088 13.8132 13.2737 14.998 13.2737 16.5293C13.2737 18.5345 12.5172 20.0794 11.0042 21.1641C9.70988 22.0938 8.07837 22.5586 6.10962 22.5586C4.52368 22.5586 2.95597 22.2578 1.40649 21.6562C0.896077 21.4557 0.449463 21.2233 0.0666504 20.959L0.217041 16.3926L0.271729 16.3516C1.40194 18.3021 3.25675 19.2773 5.83618 19.2773C7.66821 19.2773 8.88045 18.8353 9.4729 17.9512C9.67342 17.6504 9.77368 17.3177 9.77368 16.9531C9.77368 16.5794 9.71444 16.2741 9.59595 16.0371C9.47746 15.791 9.28149 15.5814 9.00806 15.4082C8.47941 15.0618 7.59074 14.8294 6.34204 14.7109C5.09334 14.5924 4.07251 14.3691 3.27954 14.041C2.48657 13.7129 1.85311 13.3073 1.37915 12.8242C0.52238 11.9492 0.0939941 10.7279 0.0939941 9.16016C0.0939941 7.53776 0.663656 6.22526 1.80298 5.22266C2.96053 4.20182 4.51912 3.69141 6.47876 3.69141C8.44751 3.69141 10.1702 4.14258 11.6467 5.04492ZM26.0842 21.3691C24.79 22.071 23.6187 22.4219 22.5706 22.4219C21.5224 22.4219 20.6246 22.3262 19.8772 22.1348C19.1298 21.9342 18.4963 21.6426 17.9768 21.2598C16.9195 20.485 16.3909 19.3639 16.3909 17.8965C16.3909 16.584 17.038 15.4902 18.3323 14.6152C19.7359 13.6673 21.6409 13.1934 24.0471 13.1934L24.594 13.207C24.7034 13.2161 24.8264 13.2253 24.9631 13.2344C25.0999 13.2344 25.2229 13.2435 25.3323 13.2617C25.2594 11.8034 24.6305 10.9512 23.4456 10.7051C23.0536 10.623 22.6344 10.582 22.1877 10.582C21.7502 10.582 21.3173 10.623 20.8889 10.7051C20.4696 10.778 20.0595 10.8783 19.6584 11.0059C18.7743 11.2884 18.1409 11.612 17.7581 11.9766L17.717 11.9492L17.3069 8.92773C18.9202 8.08008 20.6838 7.65625 22.5979 7.65625C25.5693 7.65625 27.4696 8.72721 28.2991 10.8691C28.5634 11.5527 28.6956 12.3229 28.6956 13.1797V18.1289C28.6956 19.1862 29.0693 19.9062 29.8167 20.2891L27.342 22.5586C26.8225 22.2852 26.4032 21.8887 26.0842 21.3691ZM25.3459 15.7227C25.0999 15.6771 24.8446 15.6543 24.5803 15.6543H24.0334C22.0191 15.6543 20.7385 16.1009 20.1917 16.9941C20.0276 17.2585 19.9456 17.5365 19.9456 17.8281C19.9456 18.1198 19.9957 18.3796 20.0959 18.6074C20.2053 18.8262 20.3831 19.0085 20.6292 19.1543C21.1031 19.4277 21.8049 19.5645 22.7346 19.5645C23.6734 19.5645 24.5484 19.3411 25.3596 18.8945C25.3505 18.7943 25.3459 18.6895 25.3459 18.5801V15.7227ZM36.5706 20.4668C36.5706 21.2689 36.607 21.8522 36.6799 22.2168H33.2483V7.92969H36.5706V9.14648C37.7737 8.15299 39.0588 7.65625 40.426 7.65625C41.9208 7.65625 43.1148 8.16667 44.0081 9.1875C44.9013 10.1992 45.3479 11.5345 45.3479 13.1934V18.6348C45.3479 20.1751 45.3707 21.1003 45.4163 21.4102C45.4618 21.7201 45.5211 21.9206 45.594 22.0117C45.676 22.1029 45.7444 22.1849 45.7991 22.2578L45.7717 22.3125C45.0334 22.2487 44.4957 22.2168 44.1584 22.2168H43.2014C42.9097 22.2168 42.5178 22.2305 42.0256 22.2578V14.8066C42.0256 12.1361 41.2144 10.8008 39.592 10.8008C38.3889 10.8008 37.3818 11.4206 36.5706 12.6602V20.4668ZM52.9084 21.9297V25.9492C52.9084 26.7331 52.9267 27.2435 52.9631 27.4805H49.5588V7.92969H52.9084V8.81836C54.0113 8.04362 55.0686 7.65625 56.0803 7.65625C57.092 7.65625 57.9898 7.79753 58.7737 8.08008C59.5575 8.36263 60.2457 8.80013 60.8381 9.39258C62.1415 10.6777 62.7932 12.5098 62.7932 14.8887C62.7932 16.4655 62.4241 17.8737 61.6858 19.1133C61.0569 20.1615 60.1864 21 59.0745 21.6289C58.0901 22.1849 57.0237 22.4629 55.8752 22.4629C54.7268 22.4629 53.7379 22.2852 52.9084 21.9297ZM52.9084 18.4844C53.6012 19.0677 54.4989 19.3594 55.6018 19.3594C57.4065 19.3594 58.5732 18.4889 59.1018 16.748C59.2841 16.1556 59.3752 15.5221 59.3752 14.8477C59.3752 14.1641 59.3114 13.6217 59.1838 13.2207C59.0562 12.8105 58.8876 12.4596 58.678 12.168C58.4775 11.8672 58.2496 11.6211 57.9944 11.4297C57.7392 11.2292 57.4794 11.0697 57.2151 10.9512C56.7502 10.7415 56.2717 10.6367 55.7795 10.6367C55.2874 10.6367 54.7769 10.7507 54.2483 10.9785C53.7196 11.2064 53.273 11.5117 52.9084 11.8945V18.4844ZM65.2405 3.85547C65.9696 2.71615 66.7307 1.71354 67.5237 0.847656L70.4631 3.1582C70.0712 3.64128 69.7066 4.11523 69.3694 4.58008C69.3694 4.58008 69.0185 5.07682 68.3167 6.07031L65.2405 3.85547ZM68.8362 20.6855C68.8362 21.4694 68.8544 21.9798 68.8909 22.2168H65.4182V7.92969H68.8362V20.6855ZM71.6663 15.1484C71.6663 14.1458 71.8349 13.1888 72.1721 12.2773C72.5185 11.3568 73.0107 10.5547 73.6487 9.87109C75.0432 8.39453 76.8525 7.65625 79.0764 7.65625C81.2913 7.65625 83.0504 8.35352 84.3538 9.74805C85.6025 11.0788 86.2268 12.806 86.2268 14.9297C86.2268 17.0534 85.5842 18.8125 84.2991 20.207C82.941 21.6836 81.1409 22.4219 78.8987 22.4219C76.5836 22.4219 74.7698 21.6973 73.4573 20.248C72.2633 18.9264 71.6663 17.2266 71.6663 15.1484ZM74.9885 15.0664C74.9885 15.6406 75.0842 16.1966 75.2756 16.7344C75.467 17.2721 75.7405 17.7324 76.0959 18.1152C76.8525 18.9447 77.8459 19.3594 79.0764 19.3594C80.2157 19.3594 81.1135 18.9538 81.7698 18.1426C82.4078 17.3587 82.7268 16.3379 82.7268 15.0801C82.7268 13.804 82.3987 12.7741 81.7424 11.9902C81.0406 11.1517 80.079 10.7324 78.8577 10.7324C77.6181 10.7324 76.6474 11.179 75.9456 12.0723C75.3075 12.8926 74.9885 13.8906 74.9885 15.0664Z" fill="#4A011F" fill-opacity="0.58"/>
</svg>
