<svg width="126" height="34" viewBox="0 0 126 34" fill="none" xmlns="http://www.w3.org/2000/svg">
<g clip-path="url(#clip0_108_500)">
<path d="M32.6188 15.6441C32.2434 6.96554 25.2465 0.0458984 16.6651 0.0458984C7.84796 0.0458984 0.698242 7.3584 0.698242 16.3763C0.698242 25.3986 7.84796 32.7111 16.6651 32.7111C20.1832 32.7111 23.435 31.5459 26.0714 29.5727V33.0414H32.6363V15.6441H32.6188ZM16.6694 26.0013C16.5036 26.0013 16.3421 25.9968 16.1806 25.9879C11.2133 25.7334 7.2587 21.5236 7.2587 16.3763C7.2587 11.0638 11.4708 6.75572 16.6651 6.75572C21.8637 6.75572 26.0714 11.0638 26.0714 16.3763C26.0714 21.5191 22.1212 25.7289 17.1452 25.9879C16.9881 25.9968 16.8309 26.0013 16.6694 26.0013Z" fill="url(#paint0_linear_108_500)"/>
<path d="M27.3636 15.0596C27.3636 20.939 22.8329 25.7292 17.1497 25.9881C22.1214 25.7337 26.076 21.5239 26.076 16.3765C26.076 11.064 21.8638 6.756 16.6696 6.756C11.4754 6.756 7.26323 11.064 7.26323 16.3765C7.26323 21.5194 11.2135 25.7292 16.1851 25.9881C10.502 25.7292 5.97559 20.9346 5.97559 15.0596C5.97559 9.01939 10.7639 4.12207 16.6696 4.12207C22.5753 4.12207 27.3636 9.01939 27.3636 15.0596Z" fill="url(#paint1_linear_108_500)"/>
<path d="M40.6981 10.9521V26.3316C40.6981 30.037 37.7605 33.0459 34.1333 33.0459V17.6664C34.1333 13.9566 37.0709 10.9521 40.6981 10.9521Z" fill="url(#paint2_linear_108_500)"/>
<path d="M40.6981 10.9521V21.0504C40.6981 24.7557 37.7605 27.7646 34.1333 27.7646V17.6664C34.1333 13.9566 37.0709 10.9521 40.6981 10.9521Z" fill="url(#paint3_linear_108_500)"/>
<path d="M40.6981 3.78711V4.238C40.6981 7.94336 37.7605 10.9523 34.1333 10.9523V10.5014C34.1333 6.79157 37.0709 3.78711 40.6981 3.78711Z" fill="url(#paint4_linear_108_500)"/>
<path d="M32.6187 15.6441C32.2433 6.96554 25.2464 0.0458984 16.665 0.0458984C16.2023 0.0458984 15.7484 0.0682199 15.29 0.103934C23.2429 0.782506 29.5371 7.42536 29.8906 15.6441H29.9125V33.0459H32.6405V15.6441H32.6187Z" fill="url(#paint5_linear_108_500)"/>
</g>
<path d="M62.4022 23.9054V26.4814H56.3542C54.9916 26.4814 53.9742 26.1921 53.3022 25.6134C52.6489 25.0348 52.3222 24.1294 52.3222 22.8974V12.2854C52.3222 11.0348 52.6489 10.1294 53.3022 9.56944C53.9742 8.99078 54.9916 8.70144 56.3542 8.70144H62.4022V11.2774H55.5702C55.3649 11.2774 55.2622 11.3801 55.2622 11.5854V23.5974C55.2622 23.8028 55.3649 23.9054 55.5702 23.9054H62.4022ZM73.9816 11.0534H67.7936C67.5882 11.0534 67.4856 11.1561 67.4856 11.3614V23.8214C67.4856 24.0268 67.5882 24.1294 67.7936 24.1294H73.9816C74.1869 24.1294 74.2896 24.0268 74.2896 23.8214V11.3614C74.2896 11.1561 74.1869 11.0534 73.9816 11.0534ZM64.5736 23.0934V12.0894C64.5736 10.8201 64.9002 9.90544 65.5536 9.34544C66.2256 8.76678 67.2336 8.47745 68.5776 8.47745H73.1696C74.5509 8.47745 75.5682 8.76678 76.2216 9.34544C76.8749 9.90544 77.2016 10.8201 77.2016 12.0894V23.0934C77.2016 24.3441 76.8749 25.2588 76.2216 25.8374C75.5682 26.4161 74.5509 26.7054 73.1696 26.7054H68.5776C67.2336 26.7054 66.2256 26.4161 65.5536 25.8374C64.9002 25.2588 64.5736 24.3441 64.5736 23.0934ZM89.5576 11.0534H83.7056V24.1294H89.5576C89.8003 24.1294 89.9216 24.0081 89.9216 23.7654V11.4174C89.9216 11.1748 89.8003 11.0534 89.5576 11.0534ZM80.8496 26.4814V8.70144L88.6056 8.56144C90.043 8.52411 91.107 8.82278 91.7976 9.45744C92.4883 10.0734 92.8336 11.0628 92.8336 12.4254V22.7574C92.8336 24.1201 92.479 25.1094 91.7696 25.7254C91.0603 26.3414 89.987 26.6401 88.5496 26.6214L80.8496 26.4814ZM99.4029 26.4814H96.5189V8.70144L104.023 8.58944C105.423 8.55211 106.478 8.86011 107.187 9.51345C107.896 10.1668 108.251 11.1374 108.251 12.4254V15.5894C108.251 16.6534 107.971 17.5214 107.411 18.1934C106.851 18.8468 106.002 19.2574 104.863 19.4254L104.891 18.8374C105.414 18.9494 105.824 19.1734 106.123 19.5094C106.44 19.8268 106.711 20.3121 106.935 20.9654L108.867 26.4814H105.983L103.743 19.8734C103.706 19.7428 103.659 19.6494 103.603 19.5934C103.547 19.5374 103.444 19.5094 103.295 19.5094H98.8429L99.3749 19.0054L99.4029 26.4814ZM99.3749 10.5494V17.5214L98.9269 17.0454H104.975C105.218 17.0454 105.339 16.9241 105.339 16.6814V11.4454C105.339 11.2028 105.218 11.0814 104.975 11.0814H98.9549L99.3749 10.5494ZM124.272 26.4814H121.416L120.352 21.7494L120.688 22.0294H113.296L113.632 21.7494L112.428 26.4814H109.768L113.8 11.5014C114.024 10.7361 114.248 10.1481 114.472 9.73744C114.696 9.30811 115.013 9.00944 115.424 8.84144C115.853 8.67344 116.441 8.59878 117.188 8.61744L120.1 8.70144L124.272 26.4814ZM116.292 11.4734L114.108 19.8734L113.884 19.5934H120.156L119.932 19.8734L117.944 11.1654H116.628C116.516 11.1654 116.441 11.1934 116.404 11.2494C116.367 11.2868 116.329 11.3614 116.292 11.4734Z" fill="black" fill-opacity="0.4"/>
<defs>
<linearGradient id="paint0_linear_108_500" x1="19.0626" y1="35.4018" x2="13.383" y2="-7.69754" gradientUnits="userSpaceOnUse">
<stop stop-color="#8400F9"/>
<stop offset="0.516" stop-color="#67A1FB"/>
<stop offset="0.9981" stop-color="#90FFFF"/>
</linearGradient>
<linearGradient id="paint1_linear_108_500" x1="2.27755" y1="23.5568" x2="28.4096" y2="8.80872" gradientUnits="userSpaceOnUse">
<stop stop-color="#8400F9"/>
<stop offset="0.516" stop-color="#67A1FB"/>
<stop offset="0.9981" stop-color="#90FFFF"/>
</linearGradient>
<linearGradient id="paint2_linear_108_500" x1="38.51" y1="30.6856" x2="35.0707" y2="4.5862" gradientUnits="userSpaceOnUse">
<stop stop-color="#6200C9"/>
<stop offset="0.516" stop-color="#67A1FB"/>
<stop offset="0.9981" stop-color="#90FFFF"/>
</linearGradient>
<linearGradient id="paint3_linear_108_500" x1="38.7929" y1="30.2894" x2="36.205" y2="10.6514" gradientUnits="userSpaceOnUse">
<stop stop-color="#8400F9"/>
<stop offset="0.516" stop-color="#67A1FB"/>
<stop offset="0.9981" stop-color="#90FFFF"/>
</linearGradient>
<linearGradient id="paint4_linear_108_500" x1="37.9657" y1="11.7357" x2="36.9321" y2="3.89216" gradientUnits="userSpaceOnUse">
<stop stop-color="#8400F9"/>
<stop offset="0.516" stop-color="#67A1FB"/>
<stop offset="0.9981" stop-color="#90FFFF"/>
</linearGradient>
<linearGradient id="paint5_linear_108_500" x1="24.1355" y1="38.0509" x2="23.8912" y2="-3.35819" gradientUnits="userSpaceOnUse">
<stop stop-color="#8400F9"/>
<stop offset="0.516" stop-color="#67A1FB"/>
<stop offset="0.9981" stop-color="#90FFFF"/>
</linearGradient>
<clipPath id="clip0_108_500">
<rect width="40" height="33" fill="white" transform="translate(0.698242 0.0458984)"/>
</clipPath>
</defs>
</svg>
