<svg width="115" height="22" viewBox="0 0 115 22" fill="none" xmlns="http://www.w3.org/2000/svg">
<path d="M2.95453 1.02808L8.13453 1.05608C10.8412 1.05608 13.2212 2.03608 15.2745 3.99608C17.3279 5.93741 18.3545 8.33608 18.3545 11.1921C18.3545 14.0294 17.3465 16.4654 15.3305 18.5001C13.3332 20.5347 10.9065 21.5521 8.05053 21.5521H2.92653C1.78786 21.5521 1.07853 21.3187 0.798529 20.8521C0.574529 20.4601 0.462529 19.8627 0.462529 19.0601V3.49208C0.462529 3.04408 0.471863 2.71741 0.490529 2.51208C0.527863 2.30674 0.621196 2.06408 0.770529 1.78408C1.03186 1.28008 1.75986 1.02808 2.95453 1.02808ZM8.13453 16.5961C9.47853 16.5961 10.6919 16.1014 11.7745 15.1121C12.8572 14.1041 13.3985 12.8441 13.3985 11.3321C13.3985 9.82008 12.8665 8.56008 11.8025 7.55208C10.7572 6.52541 9.5252 6.01208 8.10653 6.01208H5.41853V16.5961H8.13453ZM30.6268 2.51208L38.1868 18.1361C38.5042 18.7707 38.6628 19.2467 38.6628 19.5641C38.6628 20.2361 38.1215 20.8427 37.0388 21.3841C36.4042 21.7014 35.9002 21.8601 35.5268 21.8601C35.1722 21.8601 34.8735 21.7761 34.6308 21.6081C34.4068 21.4401 34.2388 21.2627 34.1268 21.0761C34.0335 20.8894 33.8935 20.6094 33.7068 20.2361L32.2508 17.2121H24.4948L23.0388 20.2361C22.8522 20.6094 22.7028 20.8801 22.5908 21.0481C22.4975 21.2161 22.3295 21.3934 22.0868 21.5801C21.8628 21.7481 21.5642 21.8321 21.1908 21.8321C20.8362 21.8321 20.3415 21.6734 19.7068 21.3561C18.6242 20.8334 18.0828 20.2361 18.0828 19.5641C18.0828 19.2467 18.2415 18.7707 18.5588 18.1361L26.1188 2.48408C26.3242 2.05474 26.6322 1.70941 27.0428 1.44808C27.4722 1.18674 27.9202 1.05608 28.3868 1.05608C29.3948 1.05608 30.1415 1.54141 30.6268 2.51208ZM28.3588 9.23208L26.5108 13.0681H30.2348L28.3588 9.23208ZM55.901 18.1081C56.181 18.7801 56.321 19.2654 56.321 19.5641C56.321 20.2734 55.7423 20.8707 54.585 21.3561C53.9877 21.6174 53.5023 21.7481 53.129 21.7481C52.7743 21.7481 52.4757 21.6641 52.233 21.4961C52.009 21.3094 51.841 21.1227 51.729 20.9361C51.5423 20.5814 50.8143 18.8921 49.545 15.8681L48.677 15.9241H45.149V19.0881C45.149 19.5174 45.1303 19.8441 45.093 20.0681C45.0743 20.2734 44.9903 20.5161 44.841 20.7961C44.5797 21.3001 43.8517 21.5521 42.657 21.5521C41.3503 21.5521 40.585 21.2067 40.361 20.5161C40.249 20.1987 40.193 19.7134 40.193 19.0601V3.52008C40.193 3.09074 40.2023 2.77341 40.221 2.56808C40.2583 2.34408 40.3517 2.09208 40.501 1.81208C40.7623 1.30808 41.4903 1.05608 42.685 1.05608H48.733C50.3757 1.05608 51.9717 1.65341 53.521 2.84808C54.2677 3.42674 54.8837 4.21074 55.369 5.20008C55.8543 6.18941 56.097 7.29074 56.097 8.50408C56.097 10.6134 55.397 12.3494 53.997 13.7121C54.4077 14.7014 55.0423 16.1667 55.901 18.1081ZM45.149 10.9681H48.733C49.2743 10.9681 49.8157 10.7627 50.357 10.3521C50.8983 9.94141 51.169 9.32541 51.169 8.50408C51.169 7.68274 50.8983 7.06674 50.357 6.65608C49.8157 6.22674 49.2557 6.01208 48.677 6.01208H45.149V10.9681ZM75.7414 1.36408C76.8427 1.90541 77.3934 2.50274 77.3934 3.15608C77.3934 3.45474 77.2534 3.90274 76.9734 4.50008L69.2454 20.1801C69.0401 20.5907 68.7227 20.9267 68.2934 21.1881C67.8827 21.4307 67.4534 21.5521 67.0054 21.5521H66.7254C66.2587 21.5521 65.8107 21.4307 65.3814 21.1881C64.9707 20.9267 64.6627 20.5907 64.4574 20.1801L56.7294 4.50008C56.4494 3.90274 56.3094 3.45474 56.3094 3.15608C56.3094 2.50274 56.8601 1.90541 57.9614 1.36408C58.5774 1.04674 59.0441 0.888077 59.3614 0.888077C59.6974 0.888077 59.9494 0.925411 60.1174 1.00008C60.2854 1.07474 60.4441 1.20541 60.5934 1.39208C60.7614 1.61608 60.9107 1.86808 61.0414 2.14808C61.1907 2.40941 61.5547 3.18408 62.1334 4.47208C62.7121 5.74141 63.3281 7.09474 63.9814 8.53208C64.6534 9.96941 65.2787 11.3321 65.8574 12.6201C66.4547 13.8894 66.7907 14.5987 66.8654 14.7481L72.4654 2.48408C72.6147 2.12941 72.7454 1.84941 72.8574 1.64408C73.1934 1.14008 73.6041 0.888077 74.0894 0.888077C74.5747 0.888077 75.1254 1.04674 75.7414 1.36408ZM83.8951 16.6241H92.5191C92.9484 16.6241 93.2658 16.6427 93.4711 16.6801C93.6951 16.6987 93.9471 16.7827 94.2271 16.9321C94.7311 17.1934 94.9831 17.9214 94.9831 19.1161C94.9831 20.4227 94.6378 21.1881 93.9471 21.4121C93.6298 21.5241 93.1444 21.5801 92.4911 21.5801H81.4031C80.0964 21.5801 79.3311 21.2254 79.1071 20.5161C78.9951 20.2174 78.9391 19.7414 78.9391 19.0881V3.52008C78.9391 2.56808 79.1164 1.92408 79.4711 1.58808C79.8258 1.23341 80.4978 1.05608 81.4871 1.05608H92.5191C92.9484 1.05608 93.2658 1.07474 93.4711 1.11208C93.6951 1.13074 93.9471 1.21474 94.2271 1.36408C94.7311 1.62541 94.9831 2.35341 94.9831 3.54808C94.9831 4.85474 94.6378 5.62008 93.9471 5.84408C93.6298 5.95608 93.1444 6.01208 92.4911 6.01208H83.8951V8.84008H89.4391C89.8684 8.84008 90.1858 8.85874 90.3911 8.89608C90.6151 8.91474 90.8671 8.99874 91.1471 9.14808C91.6511 9.40941 91.9031 10.1374 91.9031 11.3321C91.9031 12.6387 91.5484 13.4041 90.8391 13.6281C90.5218 13.7401 90.0364 13.7961 89.3831 13.7961H83.8951V16.6241ZM110.039 1.92408C110.225 1.58808 110.496 1.36408 110.851 1.25208C111.205 1.14008 111.644 1.08408 112.167 1.08408C112.708 1.08408 113.137 1.13074 113.455 1.22408C113.791 1.31741 114.033 1.42941 114.183 1.56008C114.351 1.69074 114.472 1.88674 114.547 2.14808C114.659 2.44674 114.715 2.92274 114.715 3.57608V19.1161C114.715 19.5641 114.696 19.8907 114.659 20.0961C114.64 20.3014 114.556 20.5441 114.407 20.8241C114.145 21.3281 113.417 21.5801 112.223 21.5801C111.495 21.5801 110.991 21.5241 110.711 21.4121C110.431 21.3001 110.197 21.1227 110.011 20.8801C105.811 15.2801 103.048 11.6214 101.723 9.90408V19.1161C101.723 19.5641 101.704 19.8907 101.667 20.0961C101.648 20.3014 101.564 20.5441 101.415 20.8241C101.153 21.3281 100.425 21.5801 99.2306 21.5801C98.0732 21.5801 97.3639 21.3281 97.1026 20.8241C96.9532 20.5441 96.8599 20.2921 96.8226 20.0681C96.8039 19.8441 96.7946 19.5174 96.7946 19.0881V3.46408C96.7946 2.75474 96.8786 2.24141 97.0466 1.92408C97.2332 1.58808 97.5039 1.36408 97.8586 1.25208C98.2132 1.14008 98.6706 1.08408 99.2306 1.08408C99.7906 1.08408 100.229 1.14008 100.547 1.25208C100.883 1.34541 101.116 1.45741 101.247 1.58808C101.321 1.64408 101.536 1.88674 101.891 2.31608C105.829 7.67341 108.461 11.2107 109.787 12.9281V3.46408C109.787 2.75474 109.871 2.24141 110.039 1.92408Z" fill="#00037B" fill-opacity="0.51"/>
</svg>
