<svg width="128" height="34" viewBox="0 0 128 34" fill="none" xmlns="http://www.w3.org/2000/svg">
<g clip-path="url(#clip0_108_479)">
<path d="M23.5475 5.12137C21.9767 3.48744 19.8034 2.47852 17.402 2.47852L2.1199 29.733L0.824517 29.9071V32.2151C0.820213 32.2553 0.820213 32.2955 0.824517 32.3312V32.3758H0.82882C0.880464 32.7374 1.1688 33.0455 1.56474 33.0455H19.5366C23.1602 33.0455 26.0953 30.0008 26.0953 26.2419V11.4964C26.0953 9.0053 25.1183 6.75084 23.5475 5.12137ZM19.5366 26.2374H11.6653L19.5366 12.2062V26.2374Z" fill="url(#paint0_linear_108_479)"/>
<path d="M23.5477 2.68876C21.9769 1.05483 19.8035 0.0458984 17.4021 0.0458984L0.919342 29.4432C0.631 29.9611 0.988199 30.6129 1.56488 30.6129H19.5367C23.1603 30.6129 26.0954 27.5682 26.0954 23.8093V9.06376C26.0954 6.57715 25.1185 4.32268 23.5477 2.68876ZM19.5367 23.8093H11.6654L19.5367 9.77358V23.8093Z" fill="url(#paint1_linear_108_479)"/>
<path d="M23.5477 2.68876C21.9769 1.05483 19.8035 0.0458984 17.4021 0.0458984L0.919342 29.4432C0.631 29.9611 0.988199 30.6129 1.56488 30.6129C1.8317 30.6129 2.07701 30.4655 2.21042 30.2245L17.4021 3.13518C19.8035 3.13518 21.9769 4.14411 23.5477 5.77804C25.1228 7.41197 26.0954 9.66643 26.0954 12.153V9.06376C26.0954 6.57715 25.1185 4.32268 23.5477 2.68876Z" fill="url(#paint2_linear_108_479)"/>
<path d="M33.8158 14.7559C30.1921 14.7559 27.2571 17.8005 27.2571 21.5594V33.046C30.8807 33.046 33.8158 30.0014 33.8158 26.2425V14.7559Z" fill="url(#paint3_linear_108_479)"/>
<path d="M33.8158 12.3223C30.1921 12.3223 27.2571 15.3669 27.2571 19.1258V30.6124C30.8807 30.6124 33.8158 27.5678 33.8158 23.8089V12.3223Z" fill="url(#paint4_linear_108_479)"/>
<path d="M30.5366 11.6085C31.7369 11.6085 32.7099 10.5992 32.7099 9.35407C32.7099 8.10897 31.7369 7.09961 30.5366 7.09961C29.3363 7.09961 28.3633 8.10897 28.3633 9.35407C28.3633 10.5992 29.3363 11.6085 30.5366 11.6085Z" fill="url(#paint5_linear_108_479)"/>
</g>
<path d="M44.3263 26.1909L51.6483 6.59092H57.0383L64.4303 26.1909H59.1943L57.8083 22.2149H50.7803L49.4223 26.1909H44.3263ZM51.8303 18.3369H56.7303L54.2663 11.5609L51.8303 18.3369ZM66.8273 26.1909V6.59092H71.4753V26.1909H66.8273ZM84.5669 26.6109C83.6802 26.6109 82.8682 26.4803 82.1309 26.2189C81.3935 25.9576 80.7589 25.5889 80.2269 25.1129C79.7042 24.6369 79.3029 24.0863 79.0229 23.4609L79.6529 22.4389V26.1909H75.6909V6.03092H80.2689V15.1309L79.2329 14.0809C79.8862 13.2316 80.6515 12.5876 81.5289 12.1489C82.4062 11.7103 83.3909 11.4909 84.4829 11.4909C85.8829 11.4909 87.1242 11.8269 88.2069 12.4989C89.2895 13.1616 90.1342 14.0623 90.7409 15.2009C91.3569 16.3396 91.6649 17.6229 91.6649 19.0509C91.6649 20.1803 91.4875 21.2116 91.1329 22.1449C90.7782 23.0689 90.2789 23.8669 89.6349 24.5389C89.0002 25.2016 88.2535 25.7149 87.3949 26.0789C86.5362 26.4336 85.5935 26.6109 84.5669 26.6109ZM83.7129 22.6629C84.3755 22.6629 84.9635 22.5183 85.4769 22.2289C85.9995 21.9303 86.4102 21.5103 86.7089 20.9689C87.0169 20.4276 87.1709 19.7883 87.1709 19.0509C87.1709 18.3043 87.0215 17.6649 86.7229 17.1329C86.4242 16.5916 86.0135 16.1763 85.4909 15.8869C84.9682 15.5883 84.3755 15.4389 83.7129 15.4389C83.0502 15.4389 82.4575 15.5883 81.9349 15.8869C81.4215 16.1763 81.0155 16.5916 80.7169 17.1329C80.4182 17.6649 80.2689 18.3043 80.2689 19.0509C80.2689 19.7883 80.4182 20.4276 80.7169 20.9689C81.0155 21.5103 81.4262 21.9303 81.9489 22.2289C82.4715 22.5183 83.0595 22.6629 83.7129 22.6629ZM101.294 26.6109C99.7354 26.6109 98.3587 26.2703 97.164 25.5889C95.9694 24.8983 95.0314 23.9789 94.35 22.8309C93.678 21.6829 93.342 20.4229 93.342 19.0509C93.342 18.0523 93.5334 17.1003 93.916 16.1949C94.308 15.2803 94.8587 14.4729 95.568 13.7729C96.2774 13.0636 97.1174 12.5083 98.088 12.1069C99.0587 11.6963 100.127 11.4909 101.294 11.4909C102.853 11.4909 104.229 11.8363 105.424 12.5269C106.619 13.2083 107.552 14.1229 108.224 15.2709C108.896 16.4189 109.232 17.6789 109.232 19.0509C109.232 20.0496 109.041 21.0063 108.658 21.9209C108.275 22.8263 107.729 23.6289 107.02 24.3289C106.311 25.0289 105.471 25.5843 104.5 25.9949C103.529 26.4056 102.461 26.6109 101.294 26.6109ZM101.294 22.6629C101.947 22.6629 102.535 22.5183 103.058 22.2289C103.581 21.9303 103.991 21.5103 104.29 20.9689C104.589 20.4276 104.738 19.7883 104.738 19.0509C104.738 18.3043 104.589 17.6649 104.29 17.1329C104.001 16.5916 103.595 16.1763 103.072 15.8869C102.549 15.5883 101.957 15.4389 101.294 15.4389C100.631 15.4389 100.039 15.5883 99.516 15.8869C98.9934 16.1763 98.5827 16.5916 98.284 17.1329C97.9854 17.6649 97.836 18.3043 97.836 19.0509C97.836 19.7883 97.9854 20.4276 98.284 20.9689C98.592 21.5103 99.0074 21.9303 99.53 22.2289C100.053 22.5183 100.641 22.6629 101.294 22.6629ZM110.079 26.2329L115.217 19.1489L110.345 11.9109H116.141L118.423 15.9989L120.649 11.9109H126.319L121.587 19.0649L126.669 26.1909H120.789L118.269 22.1589L115.721 26.1489L110.079 26.2329Z" fill="#290342" fill-opacity="0.6"/>
<defs>
<linearGradient id="paint0_linear_108_479" x1="13.6326" y1="53.2752" x2="13.4037" y2="15.0112" gradientUnits="userSpaceOnUse">
<stop stop-color="#6B00D8"/>
<stop offset="1" stop-color="#DE568F"/>
</linearGradient>
<linearGradient id="paint1_linear_108_479" x1="13.5433" y1="35.2284" x2="13.3144" y2="-3.03557" gradientUnits="userSpaceOnUse">
<stop stop-color="#6B00D8"/>
<stop offset="1" stop-color="#DE568F"/>
</linearGradient>
<linearGradient id="paint2_linear_108_479" x1="13.4971" y1="26.9245" x2="13.269" y2="-11.2049" gradientUnits="userSpaceOnUse">
<stop stop-color="#6B00D8"/>
<stop offset="1" stop-color="#DE568F"/>
</linearGradient>
<linearGradient id="paint3_linear_108_479" x1="30.6357" y1="41.7005" x2="30.499" y2="18.8632" gradientUnits="userSpaceOnUse">
<stop stop-color="#6B00D8"/>
<stop offset="1" stop-color="#DE568F"/>
</linearGradient>
<linearGradient id="paint4_linear_108_479" x1="30.6027" y1="33.3276" x2="30.466" y2="10.4904" gradientUnits="userSpaceOnUse">
<stop stop-color="#6B00D8"/>
<stop offset="1" stop-color="#DE568F"/>
</linearGradient>
<linearGradient id="paint5_linear_108_479" x1="30.5532" y1="12.2803" x2="30.5195" y2="6.64288" gradientUnits="userSpaceOnUse">
<stop stop-color="#6B00D8"/>
<stop offset="1" stop-color="#DE568F"/>
</linearGradient>
<clipPath id="clip0_108_479">
<rect width="33" height="33" fill="white" transform="translate(0.815918 0.0458984)"/>
</clipPath>
</defs>
</svg>
