<svg width="112" height="21" viewBox="0 0 112 21" fill="none" xmlns="http://www.w3.org/2000/svg">
<path d="M18.1209 7.0848V10.5008H16.8609V8.3448H5.32489V13.0208H18.1209V20.2168H0.648887V16.8008H1.90889V18.9568H13.4449V14.2808H0.648887V7.0848H18.1209ZM38.6834 18.9568H41.4554V20.2168H21.2114V13.0208H34.0074V8.3448H22.4714V10.5008H21.2114V7.0848H38.6834V18.9568ZM34.0074 18.9568V14.2808H22.4714V18.9568H34.0074ZM55.1225 18.9568V20.2168H45.0424V8.3448H42.2704V7.0848H45.0424V0.756795H49.7184V7.0848H55.1225V8.3448H49.7184V18.9568H55.1225ZM73.7144 7.0848H80.5464V8.3448H77.5225L73.1265 20.2168H56.6904V18.9568H59.4624V8.3448H56.6904V7.0848H66.9104V8.3448H64.1385V18.9568H72.2025L76.1225 8.3448H73.7144V7.0848ZM89.158 18.9568H91.93V20.2168H81.71V18.9568H84.482V8.3448H81.71V7.0848H89.158V18.9568ZM89.354 5.0408H84.286V0.756795H89.354V5.0408ZM111.5 7.0848V10.5008H110.24V8.3448H98.7038V13.0208H111.5V20.2168H94.0278V16.8008H95.2878V18.9568H106.824V14.2808H94.0278V7.0848H111.5Z" fill="#242C00" fill-opacity="0.72"/>
</svg>
