<svg version="1.2" xmlns="http://www.w3.org/2000/svg" viewBox="0 0 227 230" width="227" height="230">
	<title>Group 1171275052(1)</title>
	<style>
		.s0 { fill: #000000 } 
	</style>
	<path class="s0" d="m117 218.8v11.2h-4q-1.3 0-2.2-0.5-0.9-0.4-1.3-1.2-0.4-0.7-0.4-1.7 0-0.9 0.4-1.7 0.4-0.7 1.3-1.2 0.9-0.5 2.3-0.5h2v-4.4zm-5.8 0l2.3 4.9h-2.1l-2.4-4.9zm3.9 5.9h-2q-1 0-1.5 0.5-0.6 0.5-0.6 1.3 0 0.9 0.5 1.4 0.5 0.5 1.6 0.5h2z"/>
	<path class="s0" d="m99.4 217.7q1.2 0.1 2.1 0.8 0.8 0.6 1.2 1.6 0.4 1 0.2 2.2-0.2 1.3-0.8 2.2-0.6 0.9-1.6 1.3-1 0.4-2.2 0.3-1.2-0.2-2-0.8-0.8-0.7-1.1-1.6-0.4-1-0.2-2.1 0-0.1 0-0.3 0-0.2 0.1-0.4l6.5 0.9-0.2 1.2-4.6-0.6q-0.1 0.9 0.4 1.4 0.5 0.6 1.3 0.7 0.6 0.1 1.2-0.1 0.5-0.2 0.8-0.7 0.4-0.5 0.5-1.3l0.1-0.5q0.1-0.7-0.1-1.3-0.3-0.6-0.7-0.9-0.4-0.4-1.1-0.4-0.6-0.1-1.1 0.1-0.5 0.2-0.7 0.7l-2-0.3q0.4-0.7 0.9-1.2 0.6-0.6 1.4-0.8 0.8-0.2 1.7-0.1z"/>
	<path class="s0" d="m84.1 211.1l-1.2 4.5q0.5-0.5 1.3-0.7 0.7-0.2 1.7 0.1 1.1 0.3 1.8 1 0.7 0.8 0.9 1.8 0.2 1.1-0.1 2.2-0.3 1.2-1 2-0.7 0.8-1.7 1.1-1 0.3-2.1 0-0.6-0.1-1.1-0.4-0.4-0.3-0.7-0.7-0.3-0.4-0.5-0.9l-0.4 1.1-1.7-0.5 3-11.1zm0.9 5.4q-0.6-0.2-1.2 0-0.6 0.2-1.1 0.6-0.4 0.5-0.6 1.2-0.2 0.8 0 1.4 0.1 0.6 0.5 1.1 0.4 0.4 1.1 0.6 0.6 0.2 1.2 0 0.6-0.2 1.1-0.7 0.4-0.4 0.6-1.2 0.2-0.7 0-1.3-0.1-0.7-0.5-1.1-0.4-0.5-1.1-0.6z"/>
	<path class="s0" d="m73.9 210.9q0.9 0.4 1.4 1 0.5 0.7 0.5 1.5 0.1 0.9-0.4 2l-1.8 4.3-1.8-0.7 1.8-4.2q0.4-0.9 0.2-1.6-0.2-0.7-1.1-1-0.5-0.2-1-0.1-0.5 0-1 0.4-0.4 0.4-0.7 1.1l-1.7 4-1.7-0.8 3-7.4 1.6 0.6-0.4 1.3q0.6-0.5 1.4-0.6 0.8-0.1 1.7 0.2z"/>
	<path class="s0" d="m60.8 204.5q1.1 0.6 1.6 1.5 0.5 0.9 0.5 2 0 1.1-0.6 2.2-0.7 1.1-1.6 1.7-0.9 0.5-2 0.5-1.1 0-2.1-0.6-1-0.6-1.5-1.4-0.5-0.9-0.5-2 0-1 0.6-1.9 0.1-0.2 0.2-0.3 0.1-0.2 0.2-0.4l5.7 3.3-0.6 1.1-4.1-2.3q-0.4 0.7-0.2 1.5 0.3 0.7 1 1.1 0.5 0.3 1.1 0.3 0.5 0 1.1-0.3 0.5-0.3 0.9-1l0.2-0.4q0.4-0.7 0.4-1.3 0-0.6-0.2-1.1-0.3-0.5-0.8-0.8-0.6-0.3-1.1-0.3-0.6 0-1 0.3l-1.7-0.9q0.6-0.6 1.3-0.8 0.8-0.3 1.6-0.2 0.8 0.1 1.6 0.5z"/>
	<path class="s0" d="m48.9 196.5q0.8 0.6 1.2 1.4 0.5 0.7 0.5 1.5-0.1 0.8-0.5 1.4l-1.5-1.1q0.1-0.3 0.1-0.7 0-0.3-0.1-0.7-0.2-0.3-0.6-0.6-0.4-0.3-0.7-0.4-0.4-0.1-0.6 0-0.3 0.1-0.4 0.3-0.3 0.3-0.2 0.6 0 0.3 0.3 0.6 0.2 0.4 0.6 0.8 0.3 0.4 0.7 0.9 0.3 0.4 0.5 0.9 0.2 0.5 0.1 0.9 0 0.5-0.4 1-0.4 0.5-1 0.7-0.7 0.2-1.4 0.1-0.8-0.2-1.6-0.8-1.1-0.9-1.4-1.9-0.3-1 0.3-2l1.5 1.1q-0.2 0.4-0.1 0.8 0.1 0.4 0.6 0.8 0.5 0.4 0.9 0.4 0.4 0 0.7-0.3 0.1-0.2 0.1-0.5-0.1-0.3-0.3-0.6-0.2-0.3-0.6-0.8-0.6-0.7-1-1.3-0.4-0.6-0.4-1.2-0.1-0.6 0.5-1.3 0.4-0.6 1.1-0.8 0.7-0.2 1.5-0.1 0.8 0.2 1.6 0.9z"/>
	<path class="s0" d="m37.7 186.7q0.6 0.6 0.9 1.2 0.2 0.6 0 1.3-0.2 0.6-0.9 1.3l-2.6 2.7 1 0.9-1.2 1.2-1-1-1.6 1.4-1.2-1.2 1.5-1.5-1.6-1.6 1.2-1.1 1.5 1.5 2.7-2.6q0.4-0.5 0.4-0.8 0-0.4-0.5-0.8l-0.7-0.7 1.2-1.2z"/>
	<path class="s0" d="m23.1 167q0.5 0.9 0.5 1.6 0.1 0.8-0.3 1.3-0.3 0.6-0.9 0.9-0.6 0.4-1.3 0.4-0.7-0.1-1.3-0.6-0.7-0.5-1.3-1.5l-1-1.8q-0.5 0.4-0.8 0.7-0.3 0.4-0.3 0.8 0 0.4 0.3 0.9 0.3 0.6 0.8 0.9 0.5 0.2 1.1 0l0.9 1.6q-0.8 0.4-1.5 0.3-0.8-0.1-1.5-0.6-0.7-0.6-1.2-1.4-0.5-1-0.6-1.9-0.1-0.8 0.4-1.6 0.4-0.7 1.3-1.2l4.3-2.5 0.8 1.4-1 0.8q0.3 0 0.7 0.1 0.4 0.1 0.7 0.2 0.3 0.2 0.6 0.5 0.3 0.3 0.6 0.7zm-1.5 0.4q-0.3-0.4-0.6-0.6-0.3-0.2-0.7-0.3-0.4-0.1-0.8 0-0.4 0.1-0.8 0.2l-0.1 0.1 0.9 1.5q0.3 0.5 0.6 0.7 0.3 0.3 0.6 0.3 0.3 0 0.6-0.2 0.3-0.1 0.4-0.4 0.1-0.3 0.1-0.6 0-0.3-0.2-0.7z"/>
	<path class="s0" d="m13.2 145.5l-10.8 2.9-1-3.5q-0.5-1.9-0.1-3.3 0.3-1.4 1.4-2.3 1-0.9 2.7-1.4 1.6-0.4 3-0.2 1.4 0.3 2.4 1.4 1 1 1.5 2.9zm-2.1-1.4l-0.4-1.6q-0.4-1.4-1.1-2.1-0.6-0.7-1.6-0.8-1-0.1-2.1 0.2-1.2 0.3-2 0.9-0.8 0.6-1 1.5-0.3 1 0.1 2.4l0.4 1.5z"/>
	<path class="s0" d="m9.5 127.6q0.2 1.2-0.2 2.2-0.4 0.9-1.3 1.6-0.8 0.6-2.1 0.7-1.2 0.2-2.2-0.2-1.1-0.3-1.7-1.2-0.7-0.8-0.8-2-0.2-1.2 0.2-2.1 0.4-1 1.3-1.6 0.8-0.6 1.9-0.7 0.1 0 0.3-0.1 0.2 0 0.4 0l0.9 6.5-1.3 0.2-0.6-4.6q-0.8 0.1-1.3 0.7-0.4 0.7-0.3 1.5 0.1 0.6 0.4 1 0.4 0.5 0.9 0.7 0.6 0.2 1.4 0.1h0.5q0.7-0.1 1.2-0.5 0.5-0.3 0.7-0.9 0.3-0.5 0.2-1.1-0.1-0.7-0.5-1-0.3-0.4-0.8-0.6l-0.3-1.9q0.8 0.1 1.5 0.5 0.6 0.5 1.1 1.2 0.4 0.7 0.5 1.6z"/>
	<path class="s0" d="m8.5 119.6h-8.1v-1.7l1.1-0.1q-0.6-0.4-0.9-1-0.4-0.7-0.4-1.5 0-0.6 0.2-1.1 0.1-0.5 0.5-0.9 0.3-0.3 0.8-0.6-0.7-0.4-1.1-1.1-0.4-0.8-0.4-1.6 0-1 0.4-1.7 0.4-0.7 1.2-1.1 0.8-0.4 2-0.4h4.7v1.9h-4.5q-1.1 0-1.6 0.5-0.6 0.4-0.6 1.2 0 0.5 0.3 1 0.3 0.4 0.8 0.6 0.5 0.3 1.3 0.3h4.3v1.9h-4.5q-1.1 0-1.6 0.4-0.6 0.4-0.6 1.2 0 0.6 0.3 1 0.3 0.4 0.8 0.7 0.5 0.2 1.3 0.2h4.3z"/>
	<path class="s0" d="m9.6 100.4q-0.2 1.2-0.8 2-0.7 0.9-1.7 1.3-1 0.3-2.2 0.2-1.3-0.2-2.2-0.8-0.8-0.7-1.2-1.7-0.5-0.9-0.3-2.1 0.1-1.1 0.8-2 0.6-0.8 1.6-1.2 1-0.4 2.3-0.2 1.3 0.1 2.1 0.8 0.9 0.6 1.3 1.6 0.4 1 0.3 2.1zm-1.7-0.2q0.1-0.6-0.1-1.1-0.2-0.5-0.8-0.8-0.5-0.4-1.4-0.5-0.8-0.1-1.4 0.1-0.6 0.2-0.9 0.6-0.4 0.5-0.5 1 0 0.6 0.2 1.1 0.2 0.5 0.7 0.9 0.6 0.3 1.4 0.4 0.8 0.1 1.4-0.1 0.7-0.2 1-0.6 0.3-0.4 0.4-1z"/>
	<path class="s0" d="m11.5 75.6l-1.4-0.7 2.5-6.1 1.5 0.6z"/>
	<path class="s0" d="m27.8 53.3l-8.9-6.8 2.4-3.2q0.9-1 1.7-1.4 0.9-0.4 1.8-0.3 0.9 0.1 1.6 0.7 0.7 0.5 1.1 1.3 0.3 0.8 0.2 1.8-0.2 1-1 2.1l-1.3 1.6 3.6 2.7zm3.5-4.6l-5.3-1.2 1.2-1.6 5.4 1zm-7-0.4l1.2-1.6q0.6-0.8 0.5-1.5-0.1-0.8-0.7-1.3-0.7-0.5-1.4-0.4-0.7 0.1-1.4 1l-1.2 1.5z"/>
	<path class="s0" d="m39.4 40.1q-0.9 0.8-1.9 1.1-1 0.3-2 0-1.1-0.3-1.9-1.2-0.9-0.9-1.3-1.9-0.3-1.1 0-2.1 0.2-1.1 1.1-1.9 0.8-0.9 1.8-1.1 1-0.3 2 0 1 0.3 1.7 1.1 0.2 0.1 0.3 0.3 0.1 0.1 0.3 0.3l-4.7 4.6-0.9-0.9 3.3-3.3q-0.6-0.6-1.4-0.5-0.7 0-1.3 0.6-0.4 0.4-0.6 1-0.1 0.5 0 1.1 0.2 0.6 0.8 1.1l0.3 0.4q0.5 0.5 1.1 0.7 0.6 0.2 1.2 0 0.5-0.1 0.9-0.5 0.5-0.5 0.6-1 0.1-0.5-0.1-1l1.4-1.4q0.4 0.7 0.4 1.5 0.1 0.7-0.2 1.5-0.3 0.8-0.9 1.5z"/>
	<path class="s0" d="m53.9 32l-2.8-3.8q0 0.7-0.3 1.5-0.2 0.7-1 1.3-0.9 0.6-1.9 0.7-1.1 0.1-2-0.3-1-0.5-1.8-1.4-0.7-1-0.9-2-0.2-1.1 0.2-2.1 0.4-1 1.2-1.7 0.5-0.3 1-0.5 0.5-0.2 1-0.2 0.5 0 1 0.2l-0.6-1 1.4-1.1 7.1 9.2zm-4.9-2.6q0.5-0.4 0.8-1 0.2-0.5 0.1-1.2-0.2-0.6-0.6-1.2-0.5-0.6-1.1-0.9-0.5-0.3-1.2-0.2-0.6 0.1-1.1 0.5-0.5 0.4-0.8 1-0.2 0.5-0.1 1.2 0.2 0.6 0.6 1.2 0.5 0.6 1 0.9 0.6 0.3 1.3 0.2 0.6-0.1 1.1-0.5z"/>
	<path class="s0" d="m60.3 23.9q-0.9 0.5-1.7 0.5-0.8 0-1.5-0.5-0.7-0.5-1.3-1.5l-2.3-4.1 1.6-0.9 2.3 3.9q0.5 0.9 1.1 1.1 0.7 0.3 1.5-0.2 0.5-0.3 0.7-0.7 0.3-0.5 0.3-1.1-0.1-0.6-0.4-1.2l-2.2-3.7 1.7-1 4 7-1.5 0.8-0.8-1.1q0.1 0.8-0.3 1.5-0.4 0.7-1.2 1.2z"/>
	<path class="s0" d="m73.3 17.4q-1.1 0.5-2.1 0.4-1.1-0.2-1.9-0.8-0.9-0.7-1.3-1.9-0.5-1.1-0.4-2.2 0.1-1.1 0.7-1.9 0.7-0.9 1.8-1.4 1.1-0.4 2.1-0.3 1 0.2 1.8 0.8 0.8 0.7 1.2 1.7 0.1 0.1 0.1 0.3 0.1 0.2 0.2 0.4l-6.1 2.5-0.5-1.1 4.3-1.8q-0.3-0.8-1.1-1.1-0.7-0.2-1.4 0.1-0.6 0.2-0.9 0.7-0.4 0.4-0.4 1-0.1 0.6 0.2 1.4l0.2 0.4q0.3 0.7 0.7 1.1 0.5 0.4 1.1 0.5 0.5 0 1.1-0.2 0.6-0.3 0.9-0.7 0.3-0.4 0.3-1l1.8-0.7q0.1 0.8-0.2 1.5-0.2 0.8-0.8 1.4-0.5 0.6-1.4 0.9z"/>
	<path class="s0" d="m87 12.9q-1 0.2-1.9 0.1-0.9-0.1-1.5-0.6-0.6-0.5-0.8-1.2l1.8-0.5q0.2 0.3 0.5 0.5 0.2 0.2 0.6 0.3 0.4 0 0.9-0.1 0.4-0.1 0.7-0.3 0.3-0.2 0.3-0.5 0.1-0.2 0.1-0.5-0.1-0.4-0.4-0.5-0.2-0.1-0.7-0.2-0.4 0-0.9 0.1-0.6 0-1.2 0-0.5-0.1-1-0.2-0.5-0.1-0.8-0.4-0.4-0.4-0.5-0.9-0.2-0.7 0-1.3 0.2-0.7 0.8-1.2 0.6-0.5 1.6-0.7 1.4-0.4 2.3 0 1 0.4 1.5 1.5l-1.8 0.5q-0.2-0.4-0.6-0.6-0.4-0.1-1 0-0.6 0.2-0.9 0.5-0.2 0.3-0.1 0.7 0 0.2 0.3 0.4 0.2 0.1 0.6 0.1 0.4 0.1 1 0 0.9 0 1.6 0 0.8 0.1 1.3 0.4 0.5 0.4 0.7 1.2 0.2 0.7 0 1.4-0.3 0.7-0.9 1.2-0.6 0.5-1.6 0.8z"/>
	<path class="s0" d="m101.5 10q-0.8 0.1-1.5-0.1-0.6-0.2-1-0.7-0.4-0.6-0.5-1.6l-0.5-3.7-1.4 0.2-0.2-1.6 1.4-0.2-0.1-2.1 1.7-0.2 0.3 2.1 2.2-0.3 0.2 1.6-2.2 0.3 0.5 3.7q0.1 0.6 0.3 0.8 0.3 0.2 1 0.1l0.9-0.1 0.3 1.6z"/>
	<path class="s0" d="m126 10.3q-1-0.1-1.6-0.5-0.6-0.5-0.8-1.1-0.3-0.5-0.2-1.2 0.1-0.8 0.6-1.3 0.4-0.5 1.2-0.7 0.8-0.2 2 0l2 0.2q0.1-0.6-0.1-1-0.1-0.5-0.4-0.8-0.4-0.2-0.9-0.3-0.7-0.1-1.2 0.2-0.5 0.2-0.7 0.8l-1.8-0.3q0.2-0.8 0.7-1.3 0.6-0.6 1.4-0.8 0.8-0.3 1.8-0.2 1.1 0.2 1.8 0.7 0.8 0.5 1.1 1.3 0.3 0.7 0.2 1.8l-0.7 4.9-1.6-0.2v-1.3q-0.2 0.3-0.5 0.5-0.3 0.3-0.6 0.4-0.3 0.2-0.8 0.2-0.4 0.1-0.9 0zm0.6-1.4q0.5 0 0.9-0.1 0.4-0.1 0.7-0.4 0.3-0.3 0.5-0.6 0.2-0.4 0.3-0.8l-1.8-0.3q-0.6 0-0.9 0-0.4 0.1-0.6 0.4-0.2 0.2-0.3 0.5 0 0.4 0.1 0.6 0.2 0.3 0.4 0.4 0.3 0.2 0.7 0.3z"/>
	<path class="s0" d="m149.1 15.6l4.3-10.4 3.4 1.4q1.8 0.8 2.7 1.9 0.9 1.1 1 2.5 0.1 1.4-0.6 3-0.6 1.6-1.7 2.5-1 0.9-2.5 1.1-1.4 0.1-3.2-0.6zm2.4-0.8l1.5 0.6q1.3 0.6 2.3 0.5 0.9-0.2 1.6-0.8 0.7-0.7 1.1-1.9 0.5-1.1 0.5-2.1 0-0.9-0.6-1.7-0.6-0.8-1.9-1.3l-1.5-0.6z"/>
	<path class="s0" d="m165.6 23.6q-1.1-0.6-1.6-1.5-0.5-0.9-0.5-2 0-1.1 0.6-2.1 0.7-1.1 1.6-1.7 0.9-0.6 2-0.6 1 0 2.1 0.6 1 0.6 1.5 1.5 0.5 0.9 0.5 1.9 0 1-0.6 1.9-0.1 0.2-0.2 0.3-0.1 0.2-0.2 0.4l-5.7-3.3 0.6-1.1 4.1 2.4q0.4-0.8 0.2-1.5-0.3-0.8-1-1.2-0.5-0.3-1.1-0.3-0.5 0-1.1 0.3-0.5 0.4-0.9 1.1l-0.2 0.4q-0.4 0.6-0.4 1.2-0.1 0.6 0.2 1.1 0.3 0.5 0.8 0.8 0.6 0.3 1.1 0.3 0.6 0 1-0.3l1.7 1q-0.6 0.5-1.3 0.8-0.8 0.2-1.6 0.1-0.8 0-1.6-0.5z"/>
	<path class="s0" d="m172.5 27.6l4.9-6.4 1.4 1-0.6 1q0.7-0.2 1.4-0.1 0.7 0.1 1.4 0.6 0.5 0.3 0.8 0.8 0.3 0.4 0.4 0.9 0.1 0.5 0 1 0.7-0.3 1.5-0.1 0.8 0.1 1.5 0.6 0.8 0.6 1.1 1.4 0.3 0.7 0.1 1.6-0.2 0.8-0.9 1.7l-2.8 3.8-1.5-1.2 2.7-3.6q0.6-0.8 0.6-1.5 0-0.6-0.6-1.1-0.4-0.4-1-0.4-0.5-0.1-1 0.2-0.5 0.3-0.9 0.9l-2.6 3.4-1.5-1.2 2.7-3.6q0.6-0.8 0.6-1.5 0-0.7-0.6-1.2-0.5-0.3-1-0.3-0.5-0.1-1 0.2-0.5 0.3-0.9 0.9l-2.6 3.4z"/>
	<path class="s0" d="m187.1 40.1q-0.8-0.8-1.1-1.8-0.3-1 0-2.1 0.4-1 1.2-1.9 0.9-0.9 2-1.2 1-0.3 2 0 1.1 0.3 1.9 1.1 0.8 0.8 1.1 1.8 0.2 1-0.1 2.1-0.3 1-1.1 1.9-0.9 0.9-2 1.2-1 0.3-2.1 0-1-0.2-1.8-1.1zm1.2-1.1q0.4 0.4 0.9 0.5 0.6 0.1 1.2-0.1 0.6-0.2 1.2-0.8 0.6-0.6 0.8-1.2 0.2-0.6 0-1.1-0.1-0.5-0.5-0.9-0.4-0.4-0.9-0.6-0.6-0.1-1.2 0.1-0.6 0.2-1.2 0.8-0.6 0.6-0.8 1.2-0.2 0.6-0.1 1.1 0.2 0.6 0.6 1z"/>
	<path class="s0" d="m205.6 56.9l1.4-0.8 3.3 5.7-1.4 0.8z"/>
	<path class="s0" d="m213.4 83.3l10.8-2.9 1 3.8q0.4 1.3 0.1 2.3-0.2 0.9-0.8 1.5-0.6 0.7-1.5 0.9-0.9 0.2-1.8 0-0.8-0.2-1.5-0.9-0.7-0.7-1-2.1l-0.5-1.9-4.3 1.1zm1.5 5.7l4.1-3.6 0.6 2-4.2 3.7zm4.7-5.3l0.5 1.9q0.3 1 0.9 1.4 0.6 0.3 1.5 0.1 0.8-0.2 1.1-0.8 0.4-0.6 0.1-1.7l-0.5-1.9z"/>
	<path class="s0" d="m216.9 100.5q-0.2-1.2 0.2-2.1 0.4-1 1.3-1.6 0.8-0.7 2-0.8 1.3-0.2 2.3 0.2 1.1 0.4 1.7 1.2 0.7 0.8 0.8 2 0.2 1.2-0.2 2.2-0.4 0.9-1.3 1.5-0.8 0.6-1.9 0.7-0.1 0-0.3 0.1-0.2 0-0.4 0l-0.9-6.5 1.3-0.2 0.6 4.6q0.8-0.1 1.2-0.7 0.5-0.6 0.4-1.5-0.1-0.6-0.4-1-0.4-0.5-1-0.7-0.5-0.2-1.3-0.1l-0.5 0.1q-0.7 0.1-1.2 0.4-0.5 0.4-0.8 0.9-0.2 0.5-0.1 1.1 0.1 0.7 0.4 1.1 0.4 0.4 0.9 0.5l0.3 1.9q-0.8-0.1-1.5-0.5-0.6-0.4-1.1-1.1-0.4-0.7-0.5-1.7z"/>
	<path class="s0" d="m214.4 117h4.7q-0.6-0.4-1-1-0.4-0.7-0.4-1.6 0-1.2 0.6-2.1 0.5-0.8 1.5-1.3 0.9-0.5 2.2-0.5 1.2 0 2.1 0.5 1 0.5 1.5 1.3 0.6 0.9 0.6 2.1 0 0.6-0.2 1.1-0.2 0.5-0.5 0.9-0.2 0.4-0.7 0.6l1.2 0.2v1.7h-11.6zm5-2.3q0 0.7 0.3 1.3 0.4 0.5 0.9 0.8 0.6 0.3 1.4 0.3 0.7 0 1.3-0.3 0.6-0.3 0.9-0.8 0.3-0.6 0.3-1.3 0-0.6-0.3-1.1-0.3-0.6-0.9-0.9-0.6-0.3-1.3-0.3-0.8 0-1.4 0.3-0.5 0.3-0.9 0.9-0.3 0.5-0.3 1.1z"/>
	<path class="s0" d="m216.9 126.9q0.2-0.9 0.6-1.6 0.5-0.6 1.3-0.9 0.9-0.2 2-0.1l4.7 0.6-0.2 2-4.5-0.6q-1-0.2-1.6 0.2-0.6 0.4-0.7 1.2-0.1 0.6 0.1 1.1 0.2 0.5 0.7 0.8 0.5 0.4 1.2 0.4l4.3 0.6-0.3 1.9-8-1 0.3-1.7h1.3q-0.6-0.4-1-1.2-0.3-0.7-0.2-1.7z"/>
	<path class="s0" d="m214.1 141.2q0.3-1.1 1.1-1.9 0.7-0.7 1.8-1 1-0.2 2.2 0.1 1.2 0.3 2 1.1 0.8 0.7 1.1 1.7 0.3 1.1 0 2.2-0.3 1.2-1 1.9-0.8 0.7-1.8 0.9-1 0.3-2 0-0.2-0.1-0.4-0.1-0.1-0.1-0.3-0.1l1.7-6.4 1.2 0.3-1.3 4.5q0.9 0.2 1.5-0.2 0.7-0.4 0.9-1.2 0.1-0.6 0-1.1-0.1-0.6-0.6-1-0.4-0.4-1.2-0.6l-0.5-0.1q-0.7-0.2-1.3-0.1-0.6 0.1-1 0.5-0.4 0.4-0.5 1-0.2 0.7 0 1.2 0.1 0.5 0.5 0.8l-0.5 1.9q-0.6-0.4-1.1-1.1-0.4-0.6-0.6-1.4-0.1-0.9 0.1-1.8z"/>
	<path class="s0" d="m209.4 154.9q0.4-1 1.1-1.6 0.6-0.6 1.3-0.8 0.8-0.2 1.5 0l-0.7 1.8q-0.3 0-0.7 0-0.3 0.1-0.6 0.4-0.3 0.3-0.5 0.7-0.2 0.5-0.1 0.8 0 0.3 0.1 0.6 0.2 0.2 0.4 0.3 0.4 0.1 0.6 0 0.3-0.1 0.6-0.4 0.2-0.3 0.5-0.8 0.4-0.5 0.7-0.9 0.4-0.4 0.8-0.7 0.4-0.3 0.8-0.4 0.5-0.1 1 0.1 0.7 0.3 1.1 0.9 0.3 0.5 0.4 1.3 0 0.8-0.4 1.7-0.5 1.3-1.4 1.8-1 0.6-2.1 0.3l0.7-1.7q0.5 0.1 0.8-0.2 0.4-0.2 0.6-0.8 0.3-0.6 0.2-1-0.1-0.3-0.5-0.5-0.2-0.1-0.5 0-0.2 0.1-0.5 0.4-0.3 0.3-0.6 0.8-0.5 0.8-1 1.3-0.5 0.6-1 0.7-0.6 0.2-1.4-0.1-0.7-0.3-1.1-0.9-0.4-0.6-0.4-1.4-0.1-0.8 0.3-1.7z"/>
	<path class="s0" d="m202.9 168.1q0.4-0.7 0.9-1.1 0.6-0.3 1.2-0.3 0.7 0 1.6 0.5l3.2 1.8 0.7-1.2 1.4 0.9-0.7 1.1 1.8 1.3-0.9 1.5-1.8-1.1-1.1 1.9-1.4-0.8 1.1-1.9-3.3-1.9q-0.5-0.3-0.8-0.2-0.4 0.2-0.7 0.7l-0.5 0.8-1.4-0.8z"/>
	<path class="s0" d="m187.7 187.4q0.7-0.7 1.4-0.9 0.7-0.3 1.3-0.1 0.7 0.2 1.1 0.6 0.6 0.6 0.7 1.2 0.1 0.7-0.2 1.5-0.3 0.8-1.1 1.5l-1.5 1.5q0.5 0.4 0.9 0.6 0.4 0.2 0.8 0.1 0.4-0.1 0.8-0.5 0.5-0.5 0.6-1.1 0.1-0.5-0.2-1l1.3-1.3q0.6 0.6 0.7 1.4 0.1 0.8-0.2 1.6-0.4 0.8-1 1.5-0.8 0.8-1.7 1.1-0.8 0.3-1.6 0-0.9-0.2-1.6-0.9l-3.5-3.5 1.1-1.2 1.1 0.8q-0.1-0.3-0.1-0.7 0-0.4 0-0.8 0.1-0.3 0.3-0.7 0.2-0.4 0.6-0.7zm0.8 1.4q-0.4 0.3-0.5 0.7-0.1 0.3-0.1 0.7 0 0.5 0.2 0.8 0.2 0.4 0.5 0.7v0.1l1.2-1.3q0.4-0.4 0.6-0.7 0.2-0.4 0.1-0.7-0.1-0.3-0.3-0.5-0.3-0.3-0.5-0.3-0.3-0.1-0.6 0-0.3 0.2-0.6 0.5z"/>
	<path class="s0" d="m169.4 202.5l5.6 9.7-3.1 1.8q-1.7 1-3.1 1-1.5 0.1-2.6-0.7-1.2-0.8-2.1-2.3-0.8-1.4-0.9-2.8-0.1-1.4 0.7-2.7 0.7-1.2 2.4-2.2zm-0.8 2.4l-1.4 0.8q-1.3 0.7-1.8 1.5-0.5 0.9-0.3 1.8 0.1 1 0.7 2 0.6 1.1 1.4 1.7 0.7 0.6 1.7 0.6 1 0 2.2-0.7l1.4-0.8z"/>
	<path class="s0" d="m153.1 210.7q1.1-0.5 2.1-0.4 1.1 0.2 1.9 0.9 0.9 0.6 1.3 1.8 0.5 1.2 0.4 2.2-0.1 1.1-0.7 2-0.7 0.8-1.8 1.3-1.1 0.4-2.1 0.3-1-0.2-1.8-0.8-0.8-0.6-1.2-1.7-0.1-0.1-0.1-0.3-0.1-0.2-0.2-0.4l6.1-2.5 0.5 1.2-4.3 1.8q0.3 0.8 1 1 0.8 0.3 1.5-0.1 0.6-0.2 0.9-0.6 0.4-0.5 0.4-1.1 0.1-0.6-0.2-1.3l-0.2-0.5q-0.3-0.7-0.7-1.1-0.5-0.4-1.1-0.4-0.5-0.1-1.1 0.1-0.6 0.3-0.9 0.7-0.3 0.5-0.3 1l-1.8 0.7q-0.1-0.7 0.2-1.5 0.2-0.7 0.8-1.4 0.5-0.6 1.4-0.9z"/>
	<path class="s0" d="m145.7 213.8l2.1 7.8-1.7 0.4-0.4-1q-0.2 0.7-0.7 1.2-0.6 0.5-1.4 0.7-0.6 0.1-1.1 0.1-0.5 0-0.9-0.2-0.5-0.3-0.8-0.7-0.3 0.8-0.9 1.4-0.6 0.5-1.4 0.7-1 0.3-1.8 0.1-0.7-0.2-1.3-0.9-0.6-0.7-0.9-1.8l-1.2-4.5 1.9-0.5 1.1 4.4q0.3 0.9 0.8 1.4 0.6 0.4 1.4 0.2 0.5-0.2 0.9-0.6 0.3-0.3 0.4-0.9 0.1-0.6-0.1-1.3l-1.1-4.1 1.8-0.5 1.2 4.3q0.3 1 0.8 1.5 0.5 0.4 1.3 0.2 0.5-0.2 0.9-0.6 0.3-0.3 0.4-0.9 0.1-0.6-0.1-1.3l-1.1-4.1z"/>
	<path class="s0" d="m126.9 217.7q1.1-0.2 2.1 0.3 1 0.4 1.6 1.2 0.6 0.9 0.8 2.1 0.2 1.3-0.2 2.3-0.4 1-1.3 1.7-0.8 0.6-2 0.8-1.1 0.1-2.1-0.3-1-0.4-1.6-1.3-0.6-0.8-0.8-2.1-0.2-1.2 0.2-2.2 0.4-1 1.3-1.7 0.8-0.7 2-0.8zm0.2 1.6q-0.6 0.1-1 0.5-0.5 0.3-0.7 0.9-0.2 0.6-0.1 1.5 0.1 0.8 0.5 1.3 0.3 0.6 0.9 0.8 0.5 0.2 1 0.1 0.6 0 1-0.4 0.5-0.3 0.7-1 0.2-0.5 0.1-1.4-0.1-0.8-0.5-1.4-0.4-0.5-0.9-0.7-0.5-0.2-1-0.2z"/>
</svg>