<svg version="1.2" xmlns="http://www.w3.org/2000/svg" viewBox="0 0 291 291" width="291" height="291">
	<title>Group 1171276975</title>
	<style>
		.s0 { fill: #000000 } 
	</style>
	<path class="s0" d="m140.2 279.6l-0.4 9.9 3.3 0.1v1.3l-8.3-0.3 0.1-1.3 3.3 0.1 0.4-9.9z"/>
	<path class="s0" d="m133.9 279.3l-1.2 11.1-3.8-0.4q-1.3-0.2-2.1-0.7-0.8-0.6-1.1-1.4-0.3-0.8-0.2-1.7 0.1-0.9 0.6-1.6 0.4-0.7 1.4-1.1 0.9-0.3 2.2-0.2l2.1 0.3 0.5-4.5zm-5.8-0.7l1.8 5.2-1.7-0.2-1.9-5.2zm3.6 6.2l-2.1-0.2q-1.2-0.2-1.8 0.3-0.6 0.6-0.7 1.5-0.1 0.9 0.3 1.5 0.5 0.6 1.7 0.7l2.1 0.3z"/>
	<path class="s0" d="m120.3 277.1q1.2 0.2 2 0.9 0.9 0.6 1.3 1.7 0.3 1 0 2.5l-1.3 6.9-1.6-0.3 1.4-6.9q0.2-1-0.1-1.7-0.2-0.7-0.7-1.1-0.5-0.4-1.3-0.6-0.8-0.1-1.4 0.1-0.7 0.2-1.1 0.7-0.5 0.6-0.7 1.6l-1.3 6.9-1.6-0.3 1.4-6.9q0.2-1.5 1-2.3 0.7-0.8 1.8-1.1 1-0.3 2.2-0.1z"/>
	<path class="s0" d="m109.3 274.5q1.2 0.4 2 1 0.7 0.7 1 1.6 0.3 0.9 0 1.9l-1.6-0.4q0.1-0.6 0-1.2-0.1-0.5-0.6-0.9-0.4-0.5-1.2-0.7-0.6-0.1-1.1-0.1-0.6 0.1-0.9 0.4-0.4 0.4-0.5 0.8-0.2 0.6 0 1.1 0.2 0.4 0.5 0.8 0.4 0.3 0.9 0.7 0.6 0.3 1.1 0.7 1.2 0.8 1.7 1.6 0.4 0.8 0.1 1.9-0.2 0.9-0.9 1.4-0.6 0.6-1.4 0.8-0.9 0.1-2-0.1-1.1-0.3-1.7-0.9-0.7-0.6-1-1.4-0.2-0.8 0-1.7l1.6 0.4q-0.1 0.4 0 0.9 0.1 0.4 0.5 0.8 0.4 0.4 1 0.6 0.5 0.1 1 0 0.5 0 0.8-0.3 0.3-0.3 0.4-0.8 0.2-0.5 0.1-0.9-0.2-0.3-0.5-0.6-0.4-0.4-0.8-0.7-0.5-0.3-1.1-0.7-0.7-0.5-1.3-1-0.5-0.6-0.7-1.3-0.2-0.7 0.1-1.6 0.2-0.8 0.8-1.4 0.6-0.6 1.5-0.8 1-0.2 2.2 0.1z"/>
	<path class="s0" d="m100.4 271.9l-3.3 9.3 3.2 1.1-0.5 1.3-7.7-2.8 0.4-1.2 3.1 1.1 3.3-9.3z"/>
	<path class="s0" d="m94.3 269.6l-4.5 10.3-6.5-2.9 0.5-1.2 5.1 2.2 1.4-3.3-4.6-2 0.6-1.2 4.5 2.1 1.5-3.4-5-2.3 0.5-1.2z"/>
	<path class="s0" d="m85 265.4l-5.2 9.8-3.1-1.6q-1.7-0.9-2.5-2.1-0.8-1.2-0.7-2.6 0-1.4 0.8-2.9 0.8-1.6 2-2.4 1.1-0.8 2.6-0.8 1.4 0 3.1 0.9zm-2 0.5l-1.6-0.9q-1.4-0.7-2.4-0.7-1.1 0-1.8 0.7-0.8 0.7-1.5 1.8-0.6 1.2-0.7 2.2-0.1 1 0.5 1.9 0.5 0.9 1.9 1.6l1.5 0.9z"/>
	<path class="s0" d="m68 255.1l-6.8 9-3.3-2.5q-0.9-0.7-1.3-1.5-0.4-0.8-0.3-1.5 0-0.8 0.5-1.4 0.5-0.7 1.2-0.9 0.6-0.3 1.3-0.2 0.6 0.1 1.2 0.5h-0.2q-0.6-0.4-0.9-1.1-0.2-0.7-0.2-1.4 0.1-0.7 0.6-1.3 0.5-0.7 1.3-1 0.7-0.3 1.6-0.1 0.9 0.1 1.8 0.8zm-2 0.1l-2-1.4q-0.9-0.7-1.6-0.6-0.8 0-1.3 0.7-0.5 0.7-0.4 1.5 0.2 0.8 1 1.4l2 1.5zm-3 4l-1.9-1.4q-0.8-0.6-1.5-0.5-0.8 0-1.3 0.7-0.4 0.6-0.3 1.3 0.1 0.7 1 1.3l1.8 1.4z"/>
	<path class="s0" d="m56.9 246.3l-2.7 3.1-1.9 7.8-1.4-1.2 1.7-6.4 0.3 0.3-6 2.5-1.3-1.1 7.4-2.9 2.7-3.1z"/>
	<path class="s0" d="m42.8 231.6q1.1 1.3 1.3 2.7 0.2 1.3-0.4 2.7-0.6 1.3-1.9 2.4-1.3 1.1-2.7 1.5-1.4 0.3-2.7-0.1-1.4-0.4-2.4-1.7-1.3-1.5-1.4-3.1 0-1.5 1-2.9l1.2 1.4q-0.6 0.8-0.6 1.8 0 0.9 0.8 1.9 0.8 0.8 1.7 1.1 1 0.3 2 0 1-0.2 2.1-1.1 1-0.9 1.5-1.9 0.4-0.9 0.3-1.9-0.1-1-0.9-1.9-0.8-0.9-1.7-1.1-0.9-0.2-1.8 0.2l-1.2-1.3q1.5-0.8 3-0.5 1.5 0.3 2.8 1.8z"/>
	<path class="s0" d="m38.4 226.5l-9.1 6.6-0.9-1.3 8.1-5.9-3-4.1 1-0.7z"/>
	<path class="s0" d="m31.4 216.2l-9.6 5.8-0.8-1.3 9.6-5.9z"/>
	<path class="s0" d="m27.6 209.7l-10 5.1-3.2-6.3 1.1-0.6 2.5 4.9 3.2-1.7-2.3-4.4 1.2-0.6 2.3 4.4 3.3-1.7-2.5-4.8 1.1-0.6z"/>
	<path class="s0" d="m23.5 201.5l-10.4 4.4-0.6-1.5 5.7-8.6-7.9 3.3-0.6-1.4 10.3-4.4 0.6 1.5-5.7 8.6 7.9-3.3z"/>
	<path class="s0" d="m18.1 187.7l-9.4 3.2 1.1 3.1-1.3 0.4-2.6-7.8 1.3-0.4 1 3.1 9.4-3.1z"/>
	<path class="s0" d="m15.2 177q0.3 1.2 0.1 2.2-0.2 1-0.8 1.7-0.7 0.7-1.7 1l-0.4-1.7q0.6-0.1 1-0.5 0.4-0.4 0.6-1 0.1-0.6-0.1-1.4-0.1-0.6-0.5-1-0.3-0.4-0.8-0.6-0.4-0.2-0.9 0-0.6 0.1-0.9 0.5-0.3 0.3-0.4 0.8-0.1 0.5-0.2 1.2 0 0.6-0.1 1.3-0.1 1.4-0.6 2.2-0.5 0.8-1.6 1-0.9 0.3-1.7 0-0.8-0.3-1.3-0.9-0.6-0.7-0.9-1.8-0.2-1.1-0.1-2 0.2-0.8 0.8-1.5 0.6-0.6 1.5-0.8l0.4 1.6q-0.4 0.1-0.8 0.5-0.3 0.3-0.5 0.8-0.1 0.5 0.1 1.1 0.1 0.5 0.4 0.9 0.3 0.4 0.7 0.5 0.4 0.2 0.9 0 0.5-0.1 0.7-0.4 0.3-0.3 0.4-0.7 0.1-0.5 0.2-1 0-0.6 0-1.3 0.1-0.9 0.3-1.6 0.3-0.8 0.8-1.3 0.5-0.5 1.4-0.7 0.8-0.2 1.6 0 0.8 0.3 1.5 1 0.6 0.7 0.9 1.9z"/>
	<path class="s0" d="m12.2 162.1l-11.5-3-0.2-1.8 10.8-5.1 0.2 1.7-9 4.1 9.6 2.4zm-2.9-1.5l-1.4-0.4-0.5-5.2 1.3-0.6z"/>
	<path class="s0" d="m11.3 148.8l-11.2 0.2v-1.6l11.2-0.2z"/>
	<path class="s0" d="m11.2 142.3l-5.4-3.8-5.7 3.1 0.1-1.8 4.4-2.4-4.1-2.7 0.1-1.8 5.3 3.7 5.8-3.1-0.1 1.8-4.4 2.4 4.1 2.8z"/>
	<path class="s0" d="m12.3 128.6l-11.1-1.5 0.2-1.6 11.2 1.5z"/>
	<path class="s0" d="m14.4 117.8q-0.4 1.6-1.3 2.6-1 1.1-2.4 1.5-1.5 0.4-3.1 0-1.7-0.3-2.8-1.3-1.2-0.9-1.6-2.3-0.5-1.3-0.2-2.9 0.4-1.6 1.3-2.7 1-1 2.4-1.4 1.4-0.4 3.1-0.1 1.7 0.4 2.8 1.3 1.2 1 1.6 2.3 0.5 1.4 0.2 3zm-1.4-0.3q0.2-1.1-0.1-2.1-0.4-0.9-1.2-1.6-0.9-0.7-2.2-1-1.4-0.2-2.4 0-1.1 0.3-1.7 1-0.7 0.8-1 1.9-0.2 1.1 0.1 2.1 0.4 0.9 1.2 1.6 0.9 0.7 2.2 0.9 1.3 0.3 2.4 0.1 1-0.3 1.7-1 0.7-0.8 1-1.9z"/>
	<path class="s0" d="m15.3 98.9l-1.3-0.5 2.3-6 1.3 0.5z"/>
	<path class="s0" d="m28.5 79.7l-8.6-4.9-1.6 2.9-1.2-0.6 4.1-7.2 1.1 0.6-1.6 2.9 8.6 4.9z"/>
	<path class="s0" d="m31.7 74.3l-9.4-6.2 2.1-3.2q0.8-1.1 1.6-1.6 0.9-0.4 1.7-0.3 0.9 0 1.6 0.5 0.8 0.5 1.2 1.3 0.4 0.8 0.3 1.7-0.1 1-0.8 2.1l-1.2 1.8 3.8 2.5zm3.2-4.9l-5.5-0.7 1-1.5 5.5 0.7zm-7.1 0.4l1.1-1.8q0.7-1 0.5-1.7-0.2-0.8-0.9-1.3-0.8-0.6-1.6-0.4-0.7 0.1-1.4 1.2l-1.1 1.7z"/>
	<path class="s0" d="m39.8 63.1q-0.7 0.9-1.7 1.4-1 0.4-2.1 0.3-1.1-0.1-2.3-1.1l-5.5-4.3 1-1.2 5.5 4.3q0.8 0.6 1.5 0.7 0.8 0.2 1.4-0.1 0.6-0.3 1.1-0.9 0.5-0.7 0.6-1.3 0.1-0.7-0.2-1.3-0.3-0.7-1.1-1.3l-5.5-4.3 0.9-1.3 5.6 4.3q1.2 0.9 1.6 2 0.4 1 0.2 2.1-0.3 1-1 2z"/>
	<path class="s0" d="m47.1 54.5q-0.8 0.9-1.8 1.3-0.9 0.3-1.9 0.2-0.9-0.2-1.7-0.9l1.1-1.2q0.5 0.4 1.1 0.5 0.5 0.1 1.1-0.1 0.6-0.2 1.1-0.7 0.5-0.5 0.6-1.1 0.2-0.5 0.1-0.9-0.1-0.5-0.5-0.8-0.5-0.4-0.9-0.5-0.5 0-1 0.2-0.5 0.1-1 0.4-0.6 0.3-1.2 0.7-1.2 0.7-2.1 0.7-1 0-1.8-0.7-0.7-0.7-0.9-1.5-0.2-0.8 0-1.6 0.3-0.9 1-1.7 0.8-0.8 1.6-1.2 0.9-0.3 1.7-0.2 0.8 0.2 1.5 0.8l-1.1 1.3q-0.3-0.3-0.8-0.4-0.5-0.2-0.9 0-0.5 0.1-1 0.6-0.4 0.4-0.5 0.9-0.2 0.4-0.1 0.8 0.2 0.5 0.5 0.8 0.4 0.4 0.8 0.4 0.4 0.1 0.8-0.1 0.5-0.2 1-0.4 0.5-0.3 1.1-0.7 0.8-0.4 1.5-0.6 0.7-0.2 1.4-0.1 0.7 0.1 1.4 0.8 0.6 0.5 0.9 1.3 0.2 0.9 0 1.8-0.2 0.9-1.1 1.9z"/>
	<path class="s0" d="m53.5 47.8l-6.8-7.2-2.4 2.3-0.9-1 6-5.6 0.9 0.9-2.5 2.3 6.8 7.2z"/>
	<path class="s0" d="m58.3 43.4l-7-8.7 5.5-4.5 0.8 1-4.3 3.5 2.3 2.8 3.9-3.2 0.8 1-3.9 3.2 2.3 2.9 4.3-3.5 0.8 1z"/>
	<path class="s0" d="m66.3 37.1l-6.4-9.2 2.9-2q1.6-1.1 3-1.3 1.5-0.1 2.7 0.6 1.2 0.6 2.2 2 1 1.5 1.2 2.8 0.2 1.4-0.5 2.7-0.6 1.3-2.3 2.4zm0.6-2l1.4-1q1.3-0.9 1.8-1.8 0.4-1 0.2-2-0.2-1-0.9-2.1-0.8-1.1-1.7-1.6-0.8-0.6-1.9-0.5-1 0.1-2.3 1l-1.5 1z"/>
	<path class="s0" d="m83.2 26.5l-4.9-10 3.7-1.9q1.1-0.5 2-0.5 0.8 0 1.5 0.4 0.6 0.4 1 1.2 0.3 0.7 0.3 1.4-0.1 0.7-0.5 1.2-0.4 0.6-1 0.9l0.1-0.2q0.7-0.3 1.4-0.2 0.7 0 1.3 0.4 0.6 0.4 0.9 1.1 0.4 0.8 0.3 1.6-0.1 0.8-0.6 1.5-0.6 0.7-1.6 1.2zm0.8-1.8l2.2-1.1q1-0.5 1.3-1.2 0.3-0.7-0.1-1.5-0.4-0.8-1.1-1-0.8-0.2-1.8 0.3l-2.1 1zm-2.3-4.5l2.2-1q0.9-0.5 1.1-1.1 0.3-0.7-0.1-1.4-0.3-0.8-1-0.9-0.7-0.2-1.6 0.2l-2.1 1z"/>
	<path class="s0" d="m96.1 20.7l-1.5-3.9-6.1-5.2 1.7-0.6 4.9 4.4-0.4 0.1 0.5-6.5 1.7-0.7-0.9 7.9 1.6 3.9z"/>
	<path class="s0" d="m115.6 14.8q-1.6 0.4-2.9 0-1.4-0.5-2.3-1.6-0.9-1.1-1.3-2.8-0.4-1.7-0.1-3.1 0.4-1.4 1.4-2.4 1-1 2.6-1.3 1.9-0.5 3.3 0.2 1.4 0.6 2.1 2.2l-1.7 0.4q-0.4-0.9-1.3-1.3-0.9-0.4-2.1-0.2-1.1 0.3-1.8 1-0.7 0.7-0.9 1.8-0.2 1 0.1 2.3 0.3 1.4 1 2.2 0.6 0.9 1.5 1.2 1 0.3 2.1 0.1 1.2-0.3 1.8-1 0.6-0.8 0.6-1.8l1.7-0.4q0.1 1.7-0.9 2.9-1 1.2-2.9 1.6z"/>
	<path class="s0" d="m122.1 13.3l-1.6-11.1 1.5-0.2 1.5 9.8 5.1-0.8 0.2 1.3z"/>
	<path class="s0" d="m134.5 11.7l-0.8-11.1 1.6-0.2 0.8 11.2z"/>
	<path class="s0" d="m142.1 11.3v-11.2h7.1v1.3h-5.5v3.6h5v1.2h-5v3.8h5.5v1.3z"/>
	<path class="s0" d="m151.2 11.3l0.8-11.1 1.6 0.1 5.1 9 0.6-8.6 1.6 0.1-0.8 11.2-1.6-0.1-5.1-9-0.6 8.5z"/>
	<path class="s0" d="m165.9 12.8l1.5-9.7-3.2-0.5 0.1-1.3 8.2 1.2-0.2 1.3-3.3-0.5-1.5 9.8z"/>
	<path class="s0" d="m176.8 15.2q-1.2-0.3-2-0.9-0.8-0.7-1.2-1.6-0.3-0.9 0-1.9l1.6 0.4q-0.1 0.6 0 1.1 0.2 0.6 0.7 1 0.4 0.4 1.2 0.6 0.6 0.1 1.2 0 0.5-0.1 0.8-0.4 0.4-0.4 0.5-0.9 0.1-0.5-0.1-1-0.1-0.4-0.5-0.7-0.4-0.4-1-0.7-0.5-0.3-1.1-0.7-1.2-0.7-1.7-1.5-0.4-0.9-0.2-1.9 0.2-1 0.8-1.5 0.6-0.6 1.5-0.8 0.9-0.2 1.9 0 1.1 0.3 1.8 0.9 0.7 0.5 1 1.3 0.3 0.8 0.1 1.7l-1.7-0.3q0.1-0.5 0-0.9-0.1-0.5-0.5-0.8-0.4-0.4-1-0.5-0.5-0.2-1-0.1-0.5 0.1-0.8 0.4-0.3 0.3-0.4 0.8-0.1 0.5 0 0.9 0.1 0.3 0.5 0.6 0.4 0.3 0.8 0.6 0.5 0.3 1.1 0.7 0.8 0.5 1.3 1 0.6 0.5 0.8 1.2 0.2 0.7 0 1.6-0.2 0.8-0.7 1.4-0.6 0.6-1.6 0.9-0.9 0.2-2.1 0z"/>
	<path class="s0" d="m191.4 19.3l8-8.9 1.6 0.7-0.3 11.9-1.6-0.6 0.4-9.9-6.5 7.4zm2.7-1.9l0.9-1 4.9 2-0.1 1.3z"/>
	<path class="s0" d="m203.7 24.5l4.9-10 1.4 0.7-4.9 10z"/>
	<path class="s0" d="m209.5 27.5l5.9-3.2-0.2-6.5 1.5 0.9 0.2 5 4.3-2.4 1.6 0.9-5.8 3.1 0.1 6.6-1.5-0.9-0.2-5.1-4.3 2.5z"/>
	<path class="s0" d="m221.2 34.7l6.4-9.2 1.3 0.9-6.4 9.2z"/>
	<path class="s0" d="m229.9 41.4q-1.3-1-1.8-2.4-0.5-1.3-0.2-2.8 0.3-1.4 1.4-2.8 1.1-1.3 2.4-1.9 1.4-0.5 2.8-0.3 1.4 0.2 2.7 1.2 1.3 1 1.8 2.4 0.4 1.3 0.1 2.8-0.2 1.4-1.3 2.7-1.1 1.4-2.5 2-1.3 0.5-2.7 0.3-1.4-0.2-2.7-1.2zm0.9-1.1q0.9 0.7 1.9 0.8 1 0.2 2-0.3 1-0.4 1.8-1.5 0.9-1.1 1.1-2.1 0.3-1.1-0.1-2-0.3-1-1.2-1.7-0.9-0.7-1.9-0.9-1-0.1-2 0.4-1 0.4-1.8 1.5-0.9 1-1.1 2.1-0.3 1 0.1 2 0.3 1 1.2 1.7z"/>
	<path class="s0" d="m246.3 50.8l1-0.9 4.3 4.8-1 0.9z"/>
	<path class="s0" d="m262.7 80l8.6-4.8-1.6-2.9 1.1-0.6 4 7.2-1.1 0.6-1.6-2.9-8.7 4.8z"/>
	<path class="s0" d="m265.6 85.6l10.2-4.8 1.6 3.5q0.5 1.2 0.5 2.1-0.1 1-0.6 1.7-0.5 0.7-1.3 1.1-0.8 0.3-1.7 0.3-0.9-0.1-1.6-0.7-0.8-0.5-1.4-1.8l-0.9-1.9-4.1 1.9zm2.5 5.3l3.5-4.2 0.7 1.6-3.4 4.3zm3.4-6.3l0.9 1.9q0.5 1.1 1.2 1.3 0.8 0.3 1.6-0.1 0.9-0.4 1.1-1.1 0.3-0.7-0.2-1.8l-0.9-1.9z"/>
	<path class="s0" d="m270.9 98.3q-0.4-1.1-0.3-2.2 0.1-1 0.8-1.9 0.7-0.9 2.1-1.4l6.6-2.5 0.6 1.5-6.6 2.5q-1 0.4-1.5 0.9-0.4 0.5-0.5 1.2-0.1 0.7 0.2 1.4 0.3 0.8 0.8 1.2 0.5 0.5 1.2 0.6 0.7 0 1.7-0.3l6.5-2.5 0.6 1.5-6.6 2.5q-1.4 0.5-2.5 0.3-1.1-0.2-1.9-0.9-0.8-0.8-1.2-1.9z"/>
	<path class="s0" d="m274.5 109.1q-0.4-1.2-0.2-2.2 0.1-1.1 0.8-1.8 0.6-0.7 1.6-1l0.5 1.6q-0.6 0.2-1 0.6-0.4 0.4-0.5 1-0.2 0.6 0.1 1.4 0.1 0.6 0.5 1 0.3 0.4 0.8 0.6 0.4 0.1 0.9 0 0.6-0.2 0.9-0.6 0.3-0.3 0.4-0.9 0.1-0.5 0.1-1.1 0-0.6 0.1-1.3 0-1.4 0.5-2.2 0.5-0.8 1.5-1.1 0.9-0.3 1.7-0.1 0.8 0.3 1.4 0.9 0.6 0.7 0.9 1.8 0.3 1 0.2 1.9-0.2 0.9-0.7 1.5-0.6 0.7-1.5 0.9l-0.4-1.6q0.4-0.1 0.7-0.4 0.3-0.4 0.5-0.9 0.1-0.5-0.1-1.1-0.1-0.5-0.4-0.9-0.3-0.4-0.7-0.5-0.5-0.1-1 0-0.5 0.2-0.7 0.5-0.2 0.3-0.3 0.7-0.1 0.5-0.2 1.1 0 0.5 0 1.3 0 0.8-0.2 1.6-0.2 0.7-0.7 1.2-0.5 0.6-1.4 0.8-0.8 0.3-1.6 0.1-0.8-0.3-1.5-0.9-0.7-0.7-1-1.9z"/>
	<path class="s0" d="m276.8 118l9.7-2.1-0.7-3.2 1.3-0.3 1.7 8.1-1.3 0.2-0.7-3.2-9.6 2z"/>
	<path class="s0" d="m278.1 124.4l11.1-1.5 0.9 7-1.3 0.2-0.7-5.4-3.6 0.4 0.7 5-1.3 0.2-0.6-5-3.7 0.5 0.7 5.4-1.3 0.2z"/>
	<path class="s0" d="m279.3 134.5l11.2-0.6 0.2 3.4q0.1 1.9-0.5 3.3-0.7 1.3-1.9 2-1.2 0.7-2.9 0.8-1.7 0.1-3-0.5-1.3-0.5-2.1-1.8-0.7-1.2-0.8-3.2zm1.4 1.6l0.1 1.7q0.1 1.6 0.7 2.5 0.5 0.8 1.5 1.2 1 0.3 2.3 0.2 1.3 0 2.2-0.5 1-0.4 1.4-1.4 0.5-0.9 0.4-2.5l-0.1-1.7z"/>
	<path class="s0" d="m279.5 154.4l11.1 1.1-0.4 4.1q-0.1 1.2-0.6 1.9-0.4 0.8-1.1 1.1-0.7 0.3-1.5 0.3-0.8-0.1-1.4-0.5-0.5-0.5-0.8-1.1-0.2-0.6-0.2-1.3l0.2 0.2q-0.1 0.8-0.6 1.3-0.4 0.6-1.1 0.9-0.6 0.3-1.4 0.2-0.8-0.1-1.5-0.5-0.6-0.5-0.9-1.4-0.4-0.8-0.3-2zm1.2 1.7l-0.2 2.5q-0.1 1 0.3 1.6 0.4 0.7 1.3 0.8 0.9 0 1.5-0.5 0.6-0.6 0.7-1.6l0.2-2.4zm5 0.4l-0.2 2.4q-0.1 1 0.3 1.6 0.4 0.5 1.3 0.6 0.8 0.1 1.3-0.4 0.5-0.5 0.6-1.5l0.2-2.3z"/>
	<path class="s0" d="m277.7 168.5l4.1 0.7 7.6-2.5-0.3 1.8-6.3 1.8v-0.3l5.4 3.8-0.3 1.8-6.4-4.9-4.1-0.7z"/>
	<path class="s0" d="m272.5 188.1q0.6-1.5 1.6-2.4 1.1-0.9 2.5-1.1 1.5-0.2 3.1 0.3 1.6 0.6 2.7 1.6 1 1 1.3 2.4 0.3 1.3-0.2 2.9-0.6 1.9-1.9 2.7-1.3 0.9-3 0.7l0.6-1.7q1 0.1 1.8-0.4 0.8-0.5 1.2-1.7 0.3-1.1 0.1-2.1-0.2-0.9-1-1.7-0.8-0.7-2.1-1.1-1.3-0.5-2.4-0.4-1 0.2-1.8 0.8-0.8 0.6-1.1 1.7-0.4 1.2-0.1 2.1 0.3 0.9 1.1 1.4l-0.5 1.7q-1.5-0.9-2-2.3-0.5-1.5 0.1-3.4z"/>
	<path class="s0" d="m270.4 194.5l10.4 4.4-0.6 1.5-9.2-3.9-2 4.7-1.2-0.5z"/>
	<path class="s0" d="m265.3 205.9l10 5.1-0.7 1.5-10-5.1z"/>
	<path class="s0" d="m261.8 212.6l9.5 5.8-3.7 6.1-1.1-0.7 2.9-4.7-3.1-1.8-2.6 4.2-1.1-0.7 2.6-4.2-3.2-1.9-2.8 4.6-1.1-0.7z"/>
	<path class="s0" d="m257 220.3l9.1 6.6-1 1.3-10.3-0.4 7 5-1 1.3-9-6.5 0.9-1.3 10.3 0.4-7-5.1z"/>
	<path class="s0" d="m248 232.1l7.5 6.4 2.2-2.5 1 0.8-5.3 6.3-1-0.8 2.1-2.6-7.6-6.3z"/>
	<path class="s0" d="m240.3 240.2q0.9-0.9 1.9-1.3 0.9-0.3 1.9-0.1 0.9 0.2 1.7 0.9l-1.2 1.2q-0.5-0.4-1-0.6-0.6-0.1-1.2 0.1-0.6 0.2-1.1 0.7-0.5 0.5-0.6 1-0.2 0.5-0.1 1 0.1 0.4 0.4 0.8 0.5 0.4 0.9 0.5 0.5 0 1-0.1 0.5-0.2 1-0.5 0.6-0.2 1.2-0.6 1.2-0.6 2.2-0.6 0.9 0 1.7 0.8 0.7 0.7 0.9 1.5 0.2 0.8-0.1 1.6-0.3 0.9-1.1 1.7-0.7 0.7-1.6 1.1-0.9 0.3-1.7 0.1-0.8-0.2-1.5-0.8l1.2-1.2q0.3 0.3 0.8 0.4 0.4 0.1 0.9 0 0.5-0.1 1-0.6 0.4-0.4 0.5-0.8 0.2-0.5 0.1-0.9-0.1-0.4-0.5-0.8-0.3-0.4-0.7-0.4-0.4-0.1-0.8 0.1-0.5 0.1-1 0.4-0.5 0.2-1.1 0.6-0.8 0.4-1.5 0.5-0.8 0.2-1.5 0.1-0.7-0.2-1.4-0.9-0.6-0.5-0.8-1.4-0.2-0.8 0.1-1.7 0.3-0.9 1.1-1.8z"/>
	<path class="s0" d="m229.2 250.5l3.4 11.4-1.4 1.1-10-6.5 1.4-1.1 8.2 5.5-3-9.4zm0.2 3.3l0.4 1.3-4.2 3.2-1.1-0.8z"/>
	<path class="s0" d="m218.3 258.2l6.1 9.5-1.4 0.8-6-9.4z"/>
	<path class="s0" d="m212.8 261.7l-0.4 6.6 5.7 3.3-1.6 0.8-4.4-2.5-0.2 5-1.6 0.8 0.4-6.5-5.7-3.3 1.6-0.9 4.4 2.5 0.2-4.9z"/>
	<path class="s0" d="m200.5 267.9l4.5 10.3-1.4 0.6-4.6-10.2z"/>
	<path class="s0" d="m190.3 271.8q1.5-0.5 2.9-0.3 1.4 0.3 2.5 1.3 1.1 1 1.6 2.6 0.6 1.7 0.4 3.1-0.2 1.5-1.1 2.6-0.9 1.1-2.5 1.6-1.5 0.6-2.9 0.3-1.4-0.3-2.5-1.3-1.1-1-1.7-2.6-0.5-1.6-0.3-3.1 0.2-1.5 1.1-2.6 0.9-1 2.5-1.6zm0.4 1.4q-1.1 0.3-1.7 1.1-0.6 0.8-0.7 1.9-0.2 1.1 0.3 2.3 0.4 1.3 1.2 2.1 0.8 0.8 1.8 0.9 1 0.3 2-0.1 1.1-0.4 1.8-1.2 0.6-0.8 0.7-1.9 0.2-1-0.3-2.3-0.4-1.3-1.2-2.1-0.8-0.7-1.8-0.9-1-0.2-2.1 0.2z"/>
	<path class="s0" d="m173.7 280.9l0.2 1.3-6.3 1.2-0.3-1.3z"/>
</svg>