<svg width="30" height="28" viewBox="0 0 30 28" fill="none" xmlns="http://www.w3.org/2000/svg">
<path d="M8.45833 27.1584C8.15278 27.1584 7.86806 27.082 7.60417 26.9292C7.34028 26.7764 7.13889 26.5611 7 26.2834L3.75 20.4917H6.16667L7.83333 23.825H11.6667V22.1584H8.83333L7.16667 18.825H2.83333L0.458333 14.6584C0.402778 14.5195 0.354167 14.3806 0.3125 14.2417C0.270833 14.1028 0.25 13.9639 0.25 13.825C0.25 13.7139 0.319444 13.4361 0.458333 12.9917L2.83333 8.82503H7.16667L8.83333 5.4917H11.6667V3.82503H7.83333L6.16667 7.15837H3.75L7 1.3667C7.13889 1.08892 7.34028 0.873644 7.60417 0.720866C7.86806 0.568088 8.15278 0.491699 8.45833 0.491699H12.5C12.9722 0.491699 13.3681 0.651421 13.6875 0.970866C14.0069 1.29031 14.1667 1.68614 14.1667 2.15837V8.82503H11.6667L10 10.4917H14.1667V15.4917H10.5L8.83333 12.1584H5L3.33333 13.825H7.83333L9.5 17.1584H14.1667V25.4917C14.1667 25.9639 14.0069 26.3598 13.6875 26.6792C13.3681 26.9986 12.9722 27.1584 12.5 27.1584H8.45833ZM17.5 27.1584C17.0278 27.1584 16.6319 26.9986 16.3125 26.6792C15.9931 26.3598 15.8333 25.9639 15.8333 25.4917V17.1584H20.5L22.1667 13.825H26.6667L25 12.1584H21.1667L19.5 15.4917H15.8333V10.4917H20L18.3333 8.82503H15.8333V2.15837C15.8333 1.68614 15.9931 1.29031 16.3125 0.970866C16.6319 0.651421 17.0278 0.491699 17.5 0.491699H21.5417C21.8472 0.491699 22.1319 0.568088 22.3958 0.720866C22.6597 0.873644 22.8611 1.08892 23 1.3667L26.25 7.15837H23.8333L22.1667 3.82503H18.3333V5.4917H21.1667L22.8333 8.82503H27.1667L29.5417 12.9917C29.5972 13.1306 29.6458 13.2695 29.6875 13.4084C29.7292 13.5473 29.75 13.6861 29.75 13.825C29.75 13.9361 29.6806 14.2139 29.5417 14.6584L27.1667 18.825H22.8333L21.1667 22.1584H18.3333V23.825H22.1667L23.8333 20.4917H26.25L23 26.2834C22.8611 26.5611 22.6597 26.7764 22.3958 26.9292C22.1319 27.082 21.8472 27.1584 21.5417 27.1584H17.5Z" fill="#6366F1"/>
</svg>
