<svg width="34" height="34" viewBox="0 0 34 34" fill="none" xmlns="http://www.w3.org/2000/svg">
<path d="M15.3335 26.696L11.0418 30.9043C10.7363 31.2099 10.3543 31.3626 9.896 31.3626C9.43766 31.3626 9.05572 31.196 8.75016 30.8626C8.41683 30.5571 8.25016 30.1751 8.25016 29.7168C8.25016 29.2585 8.41683 28.8626 8.75016 28.5293L15.3335 21.946V18.6126H12.0002L5.37516 25.2376C5.06961 25.5432 4.68766 25.696 4.22933 25.696C3.771 25.696 3.37516 25.5293 3.04183 25.196C2.73627 24.8904 2.5835 24.5085 2.5835 24.0501C2.5835 23.5918 2.73627 23.2099 3.04183 22.9043L7.25016 18.6126H1.9585C1.48627 18.6126 1.09738 18.4529 0.791829 18.1335C0.486274 17.814 0.333496 17.4182 0.333496 16.946C0.333496 16.4737 0.493218 16.0779 0.812663 15.7585C1.13211 15.439 1.52794 15.2793 2.00016 15.2793H7.25016L3.04183 11.0293C2.73627 10.7237 2.5835 10.3418 2.5835 9.88346C2.5835 9.42513 2.75016 9.0293 3.0835 8.69596C3.38905 8.39041 3.771 8.23763 4.22933 8.23763C4.68766 8.23763 5.0835 8.39041 5.41683 8.69596L12.0002 15.2793H15.3335V11.946L8.7085 5.36263C8.40294 5.05707 8.25016 4.67513 8.25016 4.2168C8.25016 3.75846 8.41683 3.36263 8.75016 3.0293C9.05572 2.72374 9.43766 2.57096 9.896 2.57096C10.3543 2.57096 10.7363 2.72374 11.0418 3.0293L15.3335 7.19596V1.94596C15.3335 1.47374 15.4932 1.07791 15.8127 0.758464C16.1321 0.439019 16.5279 0.279297 17.0002 0.279297C17.4724 0.279297 17.8682 0.439019 18.1877 0.758464C18.5071 1.07791 18.6668 1.47374 18.6668 1.94596V7.19596L22.9168 3.0293C23.2224 2.72374 23.6043 2.57096 24.0627 2.57096C24.521 2.57096 24.9168 2.72374 25.2502 3.0293C25.5557 3.36263 25.7085 3.75846 25.7085 4.2168C25.7085 4.67513 25.5557 5.05707 25.2502 5.36263L18.6668 11.946V15.2793H22.0002L28.5835 8.69596C28.889 8.39041 29.271 8.23763 29.7293 8.23763C30.1877 8.23763 30.5835 8.4043 30.9168 8.73763C31.2224 9.04319 31.3752 9.42513 31.3752 9.88346C31.3752 10.3418 31.2224 10.7237 30.9168 11.0293L26.7502 15.2793H32.0002C32.4724 15.2793 32.8682 15.439 33.1877 15.7585C33.5071 16.0779 33.6668 16.4737 33.6668 16.946C33.6668 17.4182 33.5071 17.814 33.1877 18.1335C32.8682 18.4529 32.4724 18.6126 32.0002 18.6126H26.7502L30.9168 22.9043C31.2224 23.2099 31.3752 23.5918 31.3752 24.0501C31.3752 24.5085 31.2224 24.8904 30.9168 25.196C30.5835 25.5293 30.1877 25.696 29.7293 25.696C29.271 25.696 28.889 25.5293 28.5835 25.196L22.0002 18.6126H18.6668V21.946L25.2502 28.571C25.5557 28.8765 25.7085 29.2585 25.7085 29.7168C25.7085 30.1751 25.5418 30.571 25.2085 30.9043C24.9029 31.2099 24.521 31.3626 24.0627 31.3626C23.6043 31.3626 23.2224 31.2099 22.9168 30.9043L18.6668 26.696V31.9876C18.6668 32.4599 18.5071 32.8487 18.1877 33.1543C17.8682 33.4599 17.4724 33.6126 17.0002 33.6126C16.5279 33.6126 16.1321 33.4529 15.8127 33.1335C15.4932 32.814 15.3335 32.4182 15.3335 31.946V26.696Z" fill="#6366F1"/>
</svg>
