<svg width="32" height="33" viewBox="0 0 32 33" fill="none" xmlns="http://www.w3.org/2000/svg">
<path d="M7.73353 28.4584C7.46686 28.7028 7.14464 28.8195 6.76686 28.8084C6.38908 28.7973 6.07797 28.6584 5.83353 28.3917C5.05575 27.5473 4.42242 26.6139 3.93353 25.5917C3.44464 24.5695 3.2002 23.4806 3.2002 22.325C3.2002 21.2139 3.35575 20.1361 3.66686 19.0917C3.97797 18.0473 4.35575 17.025 4.8002 16.025C5.13353 15.225 5.44464 14.4195 5.73353 13.6084C6.02242 12.7973 6.16686 11.9584 6.16686 11.0917C6.16686 10.3139 5.96686 9.5917 5.56686 8.92503C5.16686 8.25837 4.67797 7.65837 4.1002 7.12503C3.83353 6.88059 3.7002 6.57503 3.7002 6.20837C3.7002 5.8417 3.82242 5.52503 4.06686 5.25837C4.31131 4.9917 4.61686 4.85281 4.98353 4.8417C5.3502 4.83059 5.66686 4.94725 5.93353 5.1917C6.77797 5.96948 7.47242 6.85837 8.01686 7.85837C8.56131 8.85837 8.83353 9.93614 8.83353 11.0917C8.83353 12.1361 8.68353 13.1528 8.38353 14.1417C8.08353 15.1306 7.72242 16.1028 7.3002 17.0584C6.92242 17.9028 6.58908 18.7528 6.3002 19.6084C6.01131 20.4639 5.86686 21.3584 5.86686 22.2917C5.86686 23.1139 6.04464 23.8861 6.4002 24.6084C6.75575 25.3306 7.22242 25.9917 7.8002 26.5917C8.04464 26.8584 8.16131 27.175 8.1502 27.5417C8.13908 27.9084 8.0002 28.2139 7.73353 28.4584ZM13.0669 28.4584C12.8002 28.7028 12.478 28.8195 12.1002 28.8084C11.7224 28.7973 11.4113 28.6584 11.1669 28.3917C10.3891 27.5473 9.75575 26.6139 9.26686 25.5917C8.77797 24.5695 8.53353 23.4806 8.53353 22.325C8.53353 21.2139 8.68908 20.1361 9.0002 19.0917C9.31131 18.0473 9.68908 17.025 10.1335 16.025C10.4669 15.225 10.778 14.4195 11.0669 13.6084C11.3558 12.7973 11.5002 11.9584 11.5002 11.0917C11.5002 10.3139 11.3002 9.5917 10.9002 8.92503C10.5002 8.25837 10.0113 7.65837 9.43353 7.12503C9.16686 6.88059 9.03353 6.57503 9.03353 6.20837C9.03353 5.8417 9.15575 5.52503 9.4002 5.25837C9.64464 4.9917 9.9502 4.85281 10.3169 4.8417C10.6835 4.83059 11.0002 4.94725 11.2669 5.1917C12.1113 5.96948 12.8058 6.85837 13.3502 7.85837C13.8946 8.85837 14.1669 9.93614 14.1669 11.0917C14.1669 12.1361 14.0169 13.1473 13.7169 14.125C13.4169 15.1028 13.0558 16.0695 12.6335 17.025C12.2558 17.8695 11.9224 18.725 11.6335 19.5917C11.3446 20.4584 11.2002 21.3584 11.2002 22.2917C11.2002 23.1139 11.378 23.8861 11.7335 24.6084C12.0891 25.3306 12.5558 25.9917 13.1335 26.5917C13.378 26.8584 13.4946 27.175 13.4835 27.5417C13.4724 27.9084 13.3335 28.2139 13.0669 28.4584ZM16.0002 28.825V4.82503C16.0002 4.44725 16.128 4.13059 16.3835 3.87503C16.6391 3.61948 16.9558 3.4917 17.3335 3.4917C17.7113 3.4917 18.028 3.61948 18.2835 3.87503C18.5391 4.13059 18.6669 4.44725 18.6669 4.82503V9.02503L22.0669 5.65837C22.3113 5.41392 22.6169 5.2917 22.9835 5.2917C23.3502 5.2917 23.6669 5.42503 23.9335 5.6917C24.178 5.93614 24.3002 6.24725 24.3002 6.62503C24.3002 7.00281 24.178 7.31392 23.9335 7.55837L18.6669 12.825V15.4917H21.3335L26.6002 10.225C26.8446 9.98059 27.1558 9.85837 27.5335 9.85837C27.9113 9.85837 28.2224 9.98059 28.4669 10.225C28.7113 10.4695 28.8335 10.7806 28.8335 11.1584C28.8335 11.5361 28.7113 11.8473 28.4669 12.0917L25.1335 15.4917H29.3335C29.7113 15.4917 30.028 15.6195 30.2835 15.875C30.5391 16.1306 30.6669 16.4473 30.6669 16.825C30.6669 17.2028 30.5391 17.5195 30.2835 17.775C30.028 18.0306 29.7113 18.1584 29.3335 18.1584H25.1335L28.5002 21.5584C28.7446 21.8028 28.8669 22.1084 28.8669 22.475C28.8669 22.8417 28.7335 23.1584 28.4669 23.425C28.2224 23.6695 27.9113 23.7917 27.5335 23.7917C27.1558 23.7917 26.8446 23.6695 26.6002 23.425L21.3335 18.1584H18.6669V20.825L23.9335 26.0917C24.178 26.3361 24.3002 26.6473 24.3002 27.025C24.3002 27.4028 24.178 27.7139 23.9335 27.9584C23.6891 28.2028 23.378 28.325 23.0002 28.325C22.6224 28.325 22.3113 28.2028 22.0669 27.9584L18.6669 24.625V28.825C18.6669 29.2028 18.5391 29.5195 18.2835 29.775C18.028 30.0306 17.7113 30.1584 17.3335 30.1584C16.9558 30.1584 16.6391 30.0306 16.3835 29.775C16.128 29.5195 16.0002 29.2028 16.0002 28.825Z" fill="#6366F1"/>
</svg>
