<svg width="36" height="37" viewBox="0 0 36 37" fill="none" xmlns="http://www.w3.org/2000/svg">
<path d="M16.5 35.0166V28.7541L14.85 30.3666L12.75 28.2666L18 23.0166L23.25 28.2666L21.15 30.3666L19.5 28.7541V35.0166H16.5ZM8.25 23.7666L6.15 21.6666L7.7625 20.0166H1.5V17.0166H7.7625L6.15 15.3666L8.25 13.2666L13.5 18.5166L8.25 23.7666ZM27.75 23.7666L22.5 18.5166L27.75 13.2666L29.85 15.3666L28.2375 17.0166H34.5V20.0166H28.2375L29.85 21.6666L27.75 23.7666ZM18 20.7666C17.375 20.7666 16.8438 20.5479 16.4063 20.1104C15.9688 19.6729 15.75 19.1416 15.75 18.5166C15.75 17.8916 15.9688 17.3604 16.4063 16.9229C16.8438 16.4854 17.375 16.2666 18 16.2666C18.625 16.2666 19.1563 16.4854 19.5938 16.9229C20.0313 17.3604 20.25 17.8916 20.25 18.5166C20.25 19.1416 20.0313 19.6729 19.5938 20.1104C19.1563 20.5479 18.625 20.7666 18 20.7666ZM18 14.0166L12.75 8.7666L14.85 6.6666L16.5 8.2791V2.0166H19.5V8.2791L21.15 6.6666L23.25 8.7666L18 14.0166Z" fill="#6366F1"/>
</svg>
