<svg width="19" height="14" viewBox="0 0 19 14" fill="none" xmlns="http://www.w3.org/2000/svg">
<path d="M4.80623 13.6346C3.54234 13.6346 2.46248 13.1971 1.56665 12.3221C0.670817 11.4471 0.2229 10.3777 0.2229 9.11377C0.2229 8.03044 0.549289 7.06516 1.20207 6.21794C1.85484 5.37071 2.70901 4.82905 3.76457 4.59294C4.11179 3.31516 4.80623 2.28044 5.8479 1.48877C6.88957 0.697103 8.07012 0.30127 9.38957 0.30127C11.0146 0.30127 12.393 0.867242 13.525 1.99919C14.6569 3.13113 15.2229 4.5096 15.2229 6.1346C16.1812 6.24571 16.9764 6.65891 17.6083 7.37419C18.2403 8.08946 18.5562 8.92627 18.5562 9.8846C18.5562 10.9263 18.1917 11.8117 17.4625 12.5409C16.7333 13.27 15.8479 13.6346 14.8062 13.6346H4.80623ZM4.80623 11.9679H14.8062C15.3896 11.9679 15.8826 11.7665 16.2854 11.3638C16.6882 10.961 16.8896 10.4679 16.8896 9.8846C16.8896 9.30127 16.6882 8.80821 16.2854 8.40544C15.8826 8.00266 15.3896 7.80127 14.8062 7.80127H13.5562V6.1346C13.5562 4.98182 13.15 3.99919 12.3375 3.18669C11.525 2.37419 10.5423 1.96794 9.38957 1.96794C8.23679 1.96794 7.25415 2.37419 6.44165 3.18669C5.62915 3.99919 5.2229 4.98182 5.2229 6.1346H4.80623C4.00068 6.1346 3.31318 6.41932 2.74373 6.98877C2.17429 7.55821 1.88957 8.24571 1.88957 9.05127C1.88957 9.85682 2.17429 10.5443 2.74373 11.1138C3.31318 11.6832 4.00068 11.9679 4.80623 11.9679Z" fill="#6366F1"/>
</svg>
