<svg width="18" height="18" viewBox="0 0 18 18" fill="none" xmlns="http://www.w3.org/2000/svg">
<path d="M7.58341 15.5179C8.20841 14.254 9.04175 13.4103 10.0834 12.9867C11.1251 12.563 12.014 12.3512 12.7501 12.3512C13.0695 12.3512 13.382 12.379 13.6876 12.4346C13.9931 12.4901 14.2917 12.5596 14.5834 12.6429C14.9167 12.1151 15.1806 11.5457 15.3751 10.9346C15.5695 10.3235 15.6667 9.68457 15.6667 9.0179C15.6667 7.15679 15.0209 5.5804 13.7292 4.28874C12.4376 2.99707 10.8612 2.35124 9.00008 2.35124C7.13897 2.35124 5.56258 2.99707 4.27091 4.28874C2.97925 5.5804 2.33341 7.15679 2.33341 9.0179C2.33341 9.6429 2.41328 10.2401 2.573 10.8096C2.73272 11.379 2.9723 11.9068 3.29175 12.3929C3.86119 12.1151 4.45147 11.8998 5.06258 11.7471C5.67369 11.5943 6.29175 11.5179 6.91675 11.5179C7.36119 11.5179 7.78828 11.5561 8.198 11.6325C8.60772 11.7089 9.01397 11.8096 9.41675 11.9346C9.0973 12.1012 8.79522 12.2957 8.5105 12.5179C8.22578 12.7401 7.95841 12.9762 7.70841 13.2262C7.54175 13.1985 7.39939 13.1846 7.28133 13.1846H6.91675C6.4723 13.1846 6.03133 13.2332 5.59383 13.3304C5.15633 13.4276 4.73619 13.5735 4.33341 13.7679C4.77786 14.2123 5.27439 14.5839 5.823 14.8825C6.37161 15.1811 6.95841 15.3929 7.58341 15.5179ZM9.00008 17.3512C7.8473 17.3512 6.76397 17.1325 5.75008 16.695C4.73619 16.2575 3.85425 15.6637 3.10425 14.9137C2.35425 14.1637 1.7605 13.2818 1.323 12.2679C0.885498 11.254 0.666748 10.1707 0.666748 9.0179C0.666748 7.86513 0.885498 6.78179 1.323 5.7679C1.7605 4.75401 2.35425 3.87207 3.10425 3.12207C3.85425 2.37207 4.73619 1.77832 5.75008 1.34082C6.76397 0.90332 7.8473 0.68457 9.00008 0.68457C10.1529 0.68457 11.2362 0.90332 12.2501 1.34082C13.264 1.77832 14.1459 2.37207 14.8959 3.12207C15.6459 3.87207 16.2397 4.75401 16.6772 5.7679C17.1147 6.78179 17.3334 7.86513 17.3334 9.0179C17.3334 10.1707 17.1147 11.254 16.6772 12.2679C16.2397 13.2818 15.6459 14.1637 14.8959 14.9137C14.1459 15.6637 13.264 16.2575 12.2501 16.695C11.2362 17.1325 10.1529 17.3512 9.00008 17.3512ZM6.91675 10.2679C6.11119 10.2679 5.42369 9.98318 4.85425 9.41374C4.2848 8.84429 4.00008 8.15679 4.00008 7.35124C4.00008 6.54568 4.2848 5.85818 4.85425 5.28874C5.42369 4.71929 6.11119 4.43457 6.91675 4.43457C7.7223 4.43457 8.4098 4.71929 8.97925 5.28874C9.54869 5.85818 9.83341 6.54568 9.83341 7.35124C9.83341 8.15679 9.54869 8.84429 8.97925 9.41374C8.4098 9.98318 7.7223 10.2679 6.91675 10.2679ZM6.91675 8.60124C7.26397 8.60124 7.55911 8.47971 7.80216 8.23665C8.04522 7.9936 8.16675 7.69846 8.16675 7.35124C8.16675 7.00401 8.04522 6.70888 7.80216 6.46582C7.55911 6.22276 7.26397 6.10124 6.91675 6.10124C6.56953 6.10124 6.27439 6.22276 6.03133 6.46582C5.78828 6.70888 5.66675 7.00401 5.66675 7.35124C5.66675 7.69846 5.78828 7.9936 6.03133 8.23665C6.27439 8.47971 6.56953 8.60124 6.91675 8.60124ZM12.7501 11.1012C12.1667 11.1012 11.6737 10.8998 11.2709 10.4971C10.8681 10.0943 10.6667 9.60124 10.6667 9.0179C10.6667 8.43457 10.8681 7.94151 11.2709 7.53874C11.6737 7.13596 12.1667 6.93457 12.7501 6.93457C13.3334 6.93457 13.8265 7.13596 14.2292 7.53874C14.632 7.94151 14.8334 8.43457 14.8334 9.0179C14.8334 9.60124 14.632 10.0943 14.2292 10.4971C13.8265 10.8998 13.3334 11.1012 12.7501 11.1012Z" fill="#FC95F6"/>
</svg>
