<svg width="17" height="15" viewBox="0 0 17 15" fill="none" xmlns="http://www.w3.org/2000/svg">
<path d="M15.0564 14.1092H10.8897C10.8897 13.8314 10.8793 13.5537 10.8585 13.2759C10.8376 12.9981 10.8064 12.7203 10.7647 12.4425H15.0564V2.44255H1.72306V3.40088C1.44529 3.35921 1.16751 3.32796 0.88973 3.30713C0.611952 3.2863 0.334174 3.27588 0.0563965 3.27588V2.44255C0.0563965 1.98421 0.219591 1.59185 0.54598 1.26546C0.872369 0.939073 1.26473 0.775879 1.72306 0.775879H15.0564C15.5147 0.775879 15.9071 0.939073 16.2335 1.26546C16.5599 1.59185 16.7231 1.98421 16.7231 2.44255V12.4425C16.7231 12.9009 16.5599 13.2932 16.2335 13.6196C15.9071 13.946 15.5147 14.1092 15.0564 14.1092ZM0.0563965 14.1092V11.6092C0.750841 11.6092 1.34112 11.8523 1.82723 12.3384C2.31334 12.8245 2.5564 13.4148 2.5564 14.1092H0.0563965ZM4.22306 14.1092C4.22306 12.9564 3.81681 11.9738 3.00431 11.1613C2.19181 10.3488 1.20917 9.94254 0.0563965 9.94254V8.27588C1.6814 8.27588 3.05987 8.84185 4.19181 9.97379C5.32376 11.1057 5.88973 12.4842 5.88973 14.1092H4.22306ZM7.5564 14.1092C7.5564 13.0675 7.35848 12.0919 6.96265 11.1821C6.56681 10.2724 6.03209 9.48074 5.35848 8.80713C4.68487 8.13352 3.8932 7.59879 2.98348 7.20296C2.07376 6.80713 1.09806 6.60921 0.0563965 6.60921V4.94255C1.32029 4.94255 2.50779 5.18213 3.6189 5.6613C4.73001 6.14046 5.70223 6.79671 6.53556 7.63004C7.3689 8.46338 8.02515 9.4356 8.50431 10.5467C8.98348 11.6578 9.22306 12.8453 9.22306 14.1092H7.5564Z" fill="#6366F1"/>
</svg>
