<svg width="27" height="34" viewBox="0 0 27 34" fill="none" xmlns="http://www.w3.org/2000/svg">
<path d="M6.78141 26.9421H20.1147V23.6087H6.78141V26.9421ZM6.78141 20.2754H20.1147V16.9421H6.78141V20.2754ZM3.44808 33.6087C2.53141 33.6087 1.74669 33.2823 1.09391 32.6296C0.441135 31.9768 0.114746 31.1921 0.114746 30.2754V3.60872C0.114746 2.69206 0.441135 1.90734 1.09391 1.25456C1.74669 0.601779 2.53141 0.275391 3.44808 0.275391H16.7814L26.7814 10.2754V30.2754C26.7814 31.1921 26.455 31.9768 25.8022 32.6296C25.1495 33.2823 24.3647 33.6087 23.4481 33.6087H3.44808ZM15.1147 11.9421V3.60872H3.44808V30.2754H23.4481V11.9421H15.1147Z" fill="#435100"/>
</svg>
