<svg version="1.2" xmlns="http://www.w3.org/2000/svg" viewBox="0 0 15 16" width="15" height="16">
	<title>download_for_offline_24dp_1F1F1F_FILL0_wght400_GRAD0_opsz24 1</title>
	<style>
		.s0 { fill: #1f1f1f } 
	</style>
	<path class="s0" d="m7.5 15.6q-1.5 0-2.9-0.6-1.4-0.6-2.4-1.6-1-1-1.6-2.4-0.6-1.4-0.6-2.9 0-1.6 0.6-2.9 0.6-1.4 1.6-2.4 1-1 2.4-1.6 1.4-0.6 2.9-0.6 1.6 0 3 0.6 1.3 0.6 2.3 1.6 1 1 1.6 2.4 0.6 1.3 0.6 2.9 0 1.5-0.6 2.9-0.6 1.4-1.6 2.4-1 1-2.3 1.6-1.4 0.6-3 0.6zm0-1.5q2.5 0 4.3-1.8 1.7-1.7 1.7-4.2 0-2.5-1.7-4.3-1.8-1.7-4.3-1.7-2.5 0-4.2 1.7-1.8 1.8-1.8 4.3 0 2.5 1.8 4.2 1.7 1.8 4.2 1.8zm-3.7-2.3h7.5v-1.5h-7.5zm3.7-2.2l3-3-1-1.1-1.2 1.2v-3.1h-1.5v3.1l-1.2-1.2-1.1 1.1z"/>
</svg>