<svg width="14" height="18" viewBox="0 0 14 18" fill="none" xmlns="http://www.w3.org/2000/svg">
<path d="M5.74992 11.5179H8.24992L7.77075 8.8304C8.04853 8.69151 8.26728 8.49013 8.427 8.22624C8.58672 7.96235 8.66658 7.67068 8.66658 7.35124C8.66658 6.8929 8.50339 6.50054 8.177 6.17415C7.85061 5.84776 7.45825 5.68457 6.99992 5.68457C6.54158 5.68457 6.14922 5.84776 5.82283 6.17415C5.49645 6.50054 5.33325 6.8929 5.33325 7.35124C5.33325 7.67068 5.41311 7.96235 5.57283 8.22624C5.73256 8.49013 5.95131 8.69151 6.22908 8.8304L5.74992 11.5179ZM6.99992 17.3512C5.06936 16.8651 3.47561 15.7575 2.21867 14.0283C0.961724 12.2992 0.333252 10.379 0.333252 8.2679V3.18457L6.99992 0.68457L13.6666 3.18457V8.2679C13.6666 10.379 13.0381 12.2992 11.7812 14.0283C10.5242 15.7575 8.93047 16.8651 6.99992 17.3512ZM6.99992 15.6012C8.44436 15.1429 9.63881 14.2262 10.5833 12.8512C11.5277 11.4762 11.9999 9.94846 11.9999 8.2679V4.3304L6.99992 2.4554L1.99992 4.3304V8.2679C1.99992 9.94846 2.47214 11.4762 3.41659 12.8512C4.36103 14.2262 5.55547 15.1429 6.99992 15.6012Z" fill="#FC95F6"/>
</svg>
