<svg width="18" height="14" viewBox="0 0 18 14" fill="none" xmlns="http://www.w3.org/2000/svg">
<path d="M9.50008 10.9349L11.4167 9.47656L13.3334 10.9349L12.6251 8.5599L14.5417 7.01823H12.1667L11.4167 4.6849L10.6667 7.01823H8.29175L10.2084 8.5599L9.50008 10.9349ZM2.33341 13.6849C1.87508 13.6849 1.48272 13.5217 1.15633 13.1953C0.829942 12.8689 0.666748 12.4766 0.666748 12.0182V2.01823C0.666748 1.5599 0.829942 1.16753 1.15633 0.841146C1.48272 0.514757 1.87508 0.351562 2.33341 0.351562H7.33341L9.00008 2.01823H15.6667C16.1251 2.01823 16.5174 2.18142 16.8438 2.50781C17.1702 2.8342 17.3334 3.22656 17.3334 3.6849V12.0182C17.3334 12.4766 17.1702 12.8689 16.8438 13.1953C16.5174 13.5217 16.1251 13.6849 15.6667 13.6849H2.33341ZM2.33341 12.0182H15.6667V3.6849H8.31258L6.64591 2.01823H2.33341V12.0182Z" fill="#FC95F6"/>
</svg>
