<svg width="22" height="23" viewBox="0 0 22 23" fill="none" xmlns="http://www.w3.org/2000/svg">
<path fill-rule="evenodd" clip-rule="evenodd" d="M5.24609 11.2797C5.24609 10.5811 5.36212 9.91133 5.56922 9.2831L1.94434 6.51501C1.23788 7.94941 0.839844 9.56568 0.839844 11.2797C0.839844 12.9923 1.23739 14.6076 1.94288 16.041L5.56579 13.2675C5.36066 12.6423 5.24609 11.9749 5.24609 11.2797Z" fill="#FBBC05"/>
<path fill-rule="evenodd" clip-rule="evenodd" d="M11.6116 4.92417C13.1294 4.92417 14.5002 5.46195 15.5773 6.34195L18.7106 3.21306C16.8012 1.55084 14.3533 0.52417 11.6116 0.52417C7.35521 0.52417 3.69704 2.95835 1.94531 6.51501L5.57019 9.2831C6.40542 6.74773 8.78626 4.92417 11.6116 4.92417Z" fill="#EB4335"/>
<path fill-rule="evenodd" clip-rule="evenodd" d="M11.6116 17.6353C8.78626 17.6353 6.40542 15.8117 5.57019 13.2764L1.94531 16.044C3.69704 19.6011 7.35521 22.0353 11.6116 22.0353C14.2388 22.0353 16.7469 21.1025 18.6293 19.3547L15.1885 16.6947C14.2177 17.3063 12.9952 17.6353 11.6116 17.6353Z" fill="#34A853"/>
<path fill-rule="evenodd" clip-rule="evenodd" d="M21.8945 11.2798C21.8945 10.6442 21.7966 9.95977 21.6497 9.32422H11.6133V13.4798H17.3904C17.1015 14.8966 16.3152 15.9858 15.1902 16.6947L18.631 19.3548C20.6084 17.5195 21.8945 14.7856 21.8945 11.2798Z" fill="#6366F1"/>
</svg>
