<svg width="17" height="20" viewBox="0 0 17 20" fill="none" xmlns="http://www.w3.org/2000/svg">
<path d="M11.9999 15.0182C12.3471 15.0182 12.6423 14.8967 12.8853 14.6536C13.1284 14.4106 13.2499 14.1155 13.2499 13.7682C13.2499 13.421 13.1284 13.1259 12.8853 12.8828C12.6423 12.6398 12.3471 12.5182 11.9999 12.5182C11.6527 12.5182 11.3576 12.6398 11.1145 12.8828C10.8714 13.1259 10.7499 13.421 10.7499 13.7682C10.7499 14.1155 10.8714 14.4106 11.1145 14.6536C11.3576 14.8967 11.6527 15.0182 11.9999 15.0182ZM11.9999 17.5182C12.4166 17.5182 12.8055 17.421 13.1666 17.2266C13.5277 17.0321 13.8263 16.7613 14.0624 16.4141C13.743 16.2196 13.4096 16.0773 13.0624 15.987C12.7152 15.8967 12.361 15.8516 11.9999 15.8516C11.6388 15.8516 11.2846 15.8967 10.9374 15.987C10.5902 16.0773 10.2569 16.2196 9.93742 16.4141C10.1735 16.7613 10.4721 17.0321 10.8333 17.2266C11.1944 17.421 11.5833 17.5182 11.9999 17.5182ZM4.49992 6.6849H9.49992V5.01823C9.49992 4.32379 9.25686 3.73351 8.77075 3.2474C8.28464 2.76128 7.69436 2.51823 6.99992 2.51823C6.30547 2.51823 5.7152 2.76128 5.22909 3.2474C4.74297 3.73351 4.49992 4.32379 4.49992 5.01823V6.6849ZM7.20825 18.3516H1.99992C1.54159 18.3516 1.14922 18.1884 0.822835 17.862C0.496446 17.5356 0.333252 17.1432 0.333252 16.6849V8.35156C0.333252 7.89323 0.496446 7.50087 0.822835 7.17448C1.14922 6.84809 1.54159 6.6849 1.99992 6.6849H2.83325V5.01823C2.83325 3.86545 3.2395 2.88281 4.052 2.07031C4.8645 1.25781 5.84714 0.851562 6.99992 0.851562C8.1527 0.851562 9.13534 1.25781 9.94784 2.07031C10.7603 2.88281 11.1666 3.86545 11.1666 5.01823V6.6849H11.9999C12.4583 6.6849 12.8506 6.84809 13.177 7.17448C13.5034 7.50087 13.6666 7.89323 13.6666 8.35156V9.4349C13.4166 9.35156 13.1562 9.28906 12.8853 9.2474C12.6145 9.20573 12.3194 9.1849 11.9999 9.1849V8.35156H1.99992V16.6849H6.41659C6.5277 17.0182 6.63881 17.3064 6.74992 17.5495C6.86103 17.7925 7.01381 18.0599 7.20825 18.3516ZM11.9999 19.1849C10.8471 19.1849 9.8645 18.7786 9.052 17.9661C8.2395 17.1536 7.83325 16.171 7.83325 15.0182C7.83325 13.8655 8.2395 12.8828 9.052 12.0703C9.8645 11.2578 10.8471 10.8516 11.9999 10.8516C13.1527 10.8516 14.1353 11.2578 14.9478 12.0703C15.7603 12.8828 16.1666 13.8655 16.1666 15.0182C16.1666 16.171 15.7603 17.1536 14.9478 17.9661C14.1353 18.7786 13.1527 19.1849 11.9999 19.1849Z" fill="#FC95F6"/>
</svg>
