<svg width="12" height="15" viewBox="0 0 12 15" fill="none" xmlns="http://www.w3.org/2000/svg">
<path d="M2.29085 14.1937C1.92419 14.1937 1.6103 14.0631 1.34919 13.802C1.08808 13.5409 0.95752 13.227 0.95752 12.8603V6.19367C0.95752 5.827 1.08808 5.51311 1.34919 5.252C1.6103 4.99089 1.92419 4.86033 2.29085 4.86033H2.95752V3.527C2.95752 2.60478 3.28252 1.81866 3.93252 1.16866C4.58252 0.518665 5.36863 0.193665 6.29085 0.193665C7.21307 0.193665 7.99919 0.518665 8.64919 1.16866C9.29919 1.81866 9.62419 2.60478 9.62419 3.527V4.86033H10.2909C10.6575 4.86033 10.9714 4.99089 11.2325 5.252C11.4936 5.51311 11.6242 5.827 11.6242 6.19367V12.8603C11.6242 13.227 11.4936 13.5409 11.2325 13.802C10.9714 14.0631 10.6575 14.1937 10.2909 14.1937H2.29085ZM2.29085 12.8603H10.2909V6.19367H2.29085V12.8603ZM6.29085 10.8603C6.65752 10.8603 6.97141 10.7298 7.23252 10.4687C7.49363 10.2076 7.62419 9.89367 7.62419 9.527C7.62419 9.16033 7.49363 8.84644 7.23252 8.58533C6.97141 8.32422 6.65752 8.19366 6.29085 8.19366C5.92419 8.19366 5.6103 8.32422 5.34919 8.58533C5.08807 8.84644 4.95752 9.16033 4.95752 9.527C4.95752 9.89367 5.08807 10.2076 5.34919 10.4687C5.6103 10.7298 5.92419 10.8603 6.29085 10.8603ZM4.29085 4.86033H8.29085V3.527C8.29085 2.97144 8.09641 2.49922 7.70752 2.11033C7.31863 1.72144 6.84641 1.527 6.29085 1.527C5.7353 1.527 5.26307 1.72144 4.87419 2.11033C4.4853 2.49922 4.29085 2.97144 4.29085 3.527V4.86033Z" fill="black"/>
</svg>
