<svg width="16" height="13" viewBox="0 0 16 13" fill="none" xmlns="http://www.w3.org/2000/svg">
<path d="M2.00391 12.2052C1.59141 12.2052 1.23828 12.0583 0.944531 11.7646C0.650781 11.4708 0.503906 11.1177 0.503906 10.7052V1.7052C0.503906 1.2927 0.650781 0.939575 0.944531 0.645825C1.23828 0.352075 1.59141 0.2052 2.00391 0.2052H14.0039C14.4164 0.2052 14.7695 0.352075 15.0633 0.645825C15.357 0.939575 15.5039 1.2927 15.5039 1.7052V10.7052C15.5039 11.1177 15.357 11.4708 15.0633 11.7646C14.7695 12.0583 14.4164 12.2052 14.0039 12.2052H2.00391ZM8.00391 6.9552L2.00391 3.2052V10.7052H14.0039V3.2052L8.00391 6.9552ZM8.00391 5.4552L14.0039 1.7052H2.00391L8.00391 5.4552ZM2.00391 3.2052V1.7052V10.7052V3.2052Z" fill="#1F1F1F"/>
</svg>
