<svg width="14" height="12" viewBox="0 0 14 12" fill="none" xmlns="http://www.w3.org/2000/svg">
<path d="M1.41451 11.2985C1.04784 11.2985 0.733955 11.1679 0.472843 10.9068C0.211732 10.6457 0.0811768 10.3318 0.0811768 9.96517V1.96517C0.0811768 1.5985 0.211732 1.28461 0.472843 1.0235C0.733955 0.762391 1.04784 0.631836 1.41451 0.631836H12.0812C12.4478 0.631836 12.7617 0.762391 13.0228 1.0235C13.284 1.28461 13.4145 1.5985 13.4145 1.96517V9.96517C13.4145 10.3318 13.284 10.6457 13.0228 10.9068C12.7617 11.1679 12.4478 11.2985 12.0812 11.2985H1.41451ZM6.74784 6.63184L1.41451 3.2985V9.96517H12.0812V3.2985L6.74784 6.63184ZM6.74784 5.2985L12.0812 1.96517H1.41451L6.74784 5.2985ZM1.41451 3.2985V1.96517V9.96517V3.2985Z" fill="#D4FF12"/>
</svg>
