<svg width="19" height="16" viewBox="0 0 19 16" fill="none" xmlns="http://www.w3.org/2000/svg">
<path d="M0.2229 15.9419V14.2752H18.5562V15.9419H0.2229ZM2.7229 13.4419C2.26457 13.4419 1.87221 13.2787 1.54582 12.9523C1.21943 12.6259 1.05623 12.2336 1.05623 11.7752V2.60856C1.05623 2.15023 1.21943 1.75787 1.54582 1.43148C1.87221 1.10509 2.26457 0.941895 2.7229 0.941895H16.0562C16.5146 0.941895 16.9069 1.10509 17.2333 1.43148C17.5597 1.75787 17.7229 2.15023 17.7229 2.60856V11.7752C17.7229 12.2336 17.5597 12.6259 17.2333 12.9523C16.9069 13.2787 16.5146 13.4419 16.0562 13.4419H2.7229ZM2.7229 11.7752H16.0562V2.60856H2.7229V11.7752Z" fill="#6366F1"/>
</svg>
