<svg width="37" height="37" viewBox="0 0 37 37" fill="none" xmlns="http://www.w3.org/2000/svg">
<g clip-path="url(#clip0_188_242)">
<path d="M31.0366 10.8747H27.8725V6.52111C29.1365 6.105 30.0522 4.91079 30.0522 3.50591C30.0522 1.75607 28.6328 0.33252 26.8881 0.33252C25.1435 0.33252 23.7241 1.75607 23.7241 3.50591C23.7241 4.85833 24.5725 6.01519 25.7631 6.47112V10.8747H19.435V8.06276L19.9091 8.50853C20.334 8.90788 21.0014 8.88618 21.3999 8.46019C21.7982 8.03392 21.7765 7.36458 21.3516 6.96495L19.1016 4.84954C18.4295 4.21783 17.3257 4.69711 17.3257 5.62133V10.8747H5.72412C5.14157 10.8747 4.66943 11.3482 4.66943 11.9324V28.8917C4.66943 29.4759 5.14157 29.9497 5.72412 29.9497H10.9975V35.2736C10.9975 36.1764 12.0583 36.6648 12.7408 36.0748L19.827 29.9494H31.0366C31.6191 29.9494 32.0913 29.4759 32.0913 28.8917V11.9324C32.0913 11.3485 31.6191 10.8747 31.0366 10.8747ZM26.8881 2.44793C27.4696 2.44793 27.9428 2.92254 27.9428 3.50591C27.9428 4.08901 27.4696 4.56362 26.8881 4.56362C26.3067 4.56362 25.8335 4.08901 25.8335 3.50591C25.8335 2.92254 26.3067 2.44793 26.8881 2.44793ZM29.9819 27.834H19.435C19.1823 27.834 18.9379 27.9252 18.7465 28.0905L13.1069 32.9654V28.8917C13.1069 28.3075 12.6348 27.834 12.0522 27.834H6.7788V12.9901H17.5036C18.2013 15.7268 20.741 17.2404 22.6002 17.2404C23.1429 17.2404 23.6041 16.8227 23.6499 16.2704C23.6983 15.6881 23.2668 15.1769 22.6864 15.1286C21.3576 15.0176 20.2392 14.1591 19.7303 12.9904H29.9819V27.834Z" fill="#6366F1"/>
<path d="M10.0342 19.4426H16.2505C16.8331 19.4426 17.3052 18.9691 17.3052 18.3849C17.3052 17.8007 16.8331 17.3271 16.2505 17.3271H10.0342C9.4519 17.3271 8.97949 17.8007 8.97949 18.3849C8.97949 18.9691 9.4519 19.4426 10.0342 19.4426Z" fill="#6366F1"/>
<path d="M22.6694 21.5581H9.94287C9.36032 21.5581 8.88818 22.0316 8.88818 22.6158C8.88818 23.2 9.36032 23.6735 9.94287 23.6735H22.6694C23.252 23.6735 23.7241 23.2 23.7241 22.6158C23.7241 22.0316 23.252 21.5581 22.6694 21.5581Z" fill="#6366F1"/>
</g>
<defs>
<clipPath id="clip0_188_242">
<rect width="36" height="36" fill="white" transform="translate(0.380371 0.33252)"/>
</clipPath>
</defs>
</svg>
