<svg width="15" height="15" viewBox="0 0 15 15" fill="none" xmlns="http://www.w3.org/2000/svg">
<path d="M12.5312 7.4248C12.5312 5.9623 12.0219 4.72168 11.0031 3.70293C9.98437 2.68418 8.74375 2.1748 7.28125 2.1748V0.674805C8.21875 0.674805 9.09687 0.85293 9.91563 1.20918C10.7344 1.56543 11.4469 2.04668 12.0531 2.65293C12.6594 3.25918 13.1406 3.97168 13.4969 4.79043C13.8531 5.60918 14.0313 6.4873 14.0313 7.4248H12.5312ZM9.53125 7.4248C9.53125 6.7998 9.3125 6.26855 8.875 5.83105C8.4375 5.39355 7.90625 5.1748 7.28125 5.1748V3.6748C8.31875 3.6748 9.20313 4.04043 9.93438 4.77168C10.6656 5.50293 11.0312 6.3873 11.0312 7.4248H9.53125ZM13.2437 14.1748C11.6812 14.1748 10.1375 13.8342 8.6125 13.1529C7.0875 12.4717 5.7 11.5061 4.45 10.2561C3.2 9.00605 2.23437 7.61855 1.55312 6.09355C0.871875 4.56855 0.53125 3.0248 0.53125 1.4623C0.53125 1.2373 0.60625 1.0498 0.75625 0.899805C0.90625 0.749805 1.09375 0.674805 1.31875 0.674805H4.35625C4.53125 0.674805 4.6875 0.73418 4.825 0.85293C4.9625 0.97168 5.04375 1.1123 5.06875 1.2748L5.55625 3.8998C5.58125 4.0998 5.575 4.26855 5.5375 4.40605C5.5 4.54355 5.43125 4.6623 5.33125 4.7623L3.5125 6.5998C3.7625 7.0623 4.05937 7.50918 4.40312 7.94043C4.74687 8.37168 5.125 8.7873 5.5375 9.1873C5.925 9.5748 6.33125 9.93418 6.75625 10.2654C7.18125 10.5967 7.63125 10.8998 8.10625 11.1748L9.86875 9.4123C9.98125 9.2998 10.1281 9.21543 10.3094 9.15918C10.4906 9.10293 10.6687 9.0873 10.8437 9.1123L13.4312 9.6373C13.6062 9.6873 13.75 9.77793 13.8625 9.90918C13.975 10.0404 14.0313 10.1873 14.0313 10.3498V13.3873C14.0313 13.6123 13.9562 13.7998 13.8062 13.9498C13.6562 14.0998 13.4687 14.1748 13.2437 14.1748ZM2.8 5.1748L4.0375 3.9373L3.71875 2.1748H2.05C2.1125 2.6873 2.2 3.19355 2.3125 3.69355C2.425 4.19355 2.5875 4.6873 2.8 5.1748ZM9.5125 11.8873C10 12.0998 10.4969 12.2686 11.0031 12.3936C11.5094 12.5186 12.0187 12.5998 12.5312 12.6373V10.9873L10.7687 10.6311L9.5125 11.8873Z" fill="#1F1F1F"/>
</svg>
