<svg width="13" height="13" viewBox="0 0 13 13" fill="none" xmlns="http://www.w3.org/2000/svg">
<path d="M11.4143 6.13477C11.4143 4.83477 10.9616 3.73199 10.056 2.82643C9.15046 1.92088 8.04768 1.4681 6.74768 1.4681V0.134766C7.58101 0.134766 8.36157 0.293099 9.08935 0.609766C9.81713 0.926432 10.4505 1.35421 10.9893 1.8931C11.5282 2.43199 11.956 3.06532 12.2727 3.7931C12.5893 4.52088 12.7477 5.30143 12.7477 6.13477H11.4143ZM8.74768 6.13477C8.74768 5.57921 8.55324 5.10699 8.16435 4.7181C7.77546 4.32921 7.30324 4.13477 6.74768 4.13477V2.80143C7.6699 2.80143 8.45601 3.12643 9.10601 3.77643C9.75601 4.42643 10.081 5.21254 10.081 6.13477H8.74768ZM12.0477 12.1348C10.6588 12.1348 9.28657 11.832 7.93101 11.2264C6.57546 10.6209 5.34213 9.76254 4.23101 8.65143C3.1199 7.54032 2.26157 6.30699 1.65601 4.95143C1.05046 3.59588 0.747681 2.22365 0.747681 0.834766C0.747681 0.634766 0.814347 0.468099 0.947681 0.334766C1.08101 0.201432 1.24768 0.134766 1.44768 0.134766H4.14768C4.30324 0.134766 4.44213 0.187543 4.56435 0.293099C4.68657 0.398655 4.75879 0.523655 4.78101 0.668099L5.21435 3.00143C5.23657 3.17921 5.23101 3.32921 5.19768 3.45143C5.16435 3.57365 5.10324 3.67921 5.01435 3.7681L3.39768 5.40143C3.6199 5.81254 3.88379 6.20977 4.18935 6.5931C4.4949 6.97643 4.83101 7.34588 5.19768 7.70143C5.54213 8.04588 5.90324 8.36532 6.28101 8.65977C6.65879 8.95421 7.05879 9.22365 7.48101 9.4681L9.04768 7.90143C9.14768 7.80143 9.27824 7.72643 9.43935 7.67643C9.60046 7.62643 9.75879 7.61254 9.91435 7.63477L12.2143 8.10143C12.3699 8.14588 12.4977 8.22643 12.5977 8.3431C12.6977 8.45977 12.7477 8.59032 12.7477 8.73477V11.4348C12.7477 11.6348 12.681 11.8014 12.5477 11.9348C12.4143 12.0681 12.2477 12.1348 12.0477 12.1348ZM2.76435 4.13477L3.86435 3.03477L3.58101 1.4681H2.09768C2.15324 1.92365 2.23101 2.37365 2.33101 2.8181C2.43101 3.26254 2.57546 3.70143 2.76435 4.13477ZM8.73101 10.1014C9.16435 10.2903 9.60601 10.4403 10.056 10.5514C10.506 10.6625 10.9588 10.7348 11.4143 10.7681V9.30143L9.84768 8.98477L8.73101 10.1014Z" fill="#D4FF12"/>
</svg>
