<svg width="12" height="16" viewBox="0 0 12 16" fill="none" xmlns="http://www.w3.org/2000/svg">
<path d="M6.00391 8.4541C6.41641 8.4541 6.76953 8.30723 7.06328 8.01348C7.35703 7.71973 7.50391 7.3666 7.50391 6.9541C7.50391 6.5416 7.35703 6.18848 7.06328 5.89473C6.76953 5.60098 6.41641 5.4541 6.00391 5.4541C5.59141 5.4541 5.23828 5.60098 4.94453 5.89473C4.65078 6.18848 4.50391 6.5416 4.50391 6.9541C4.50391 7.3666 4.65078 7.71973 4.94453 8.01348C5.23828 8.30723 5.59141 8.4541 6.00391 8.4541ZM6.00391 13.9666C7.52891 12.5666 8.66016 11.2947 9.39766 10.151C10.1352 9.00723 10.5039 7.9916 10.5039 7.1041C10.5039 5.7416 10.0695 4.62598 9.20078 3.75723C8.33203 2.88848 7.26641 2.4541 6.00391 2.4541C4.74141 2.4541 3.67578 2.88848 2.80703 3.75723C1.93828 4.62598 1.50391 5.7416 1.50391 7.1041C1.50391 7.9916 1.87266 9.00723 2.61016 10.151C3.34766 11.2947 4.47891 12.5666 6.00391 13.9666ZM6.00391 15.9541C3.99141 14.2416 2.48828 12.651 1.49453 11.1822C0.500781 9.71348 0.00390625 8.3541 0.00390625 7.1041C0.00390625 5.2291 0.607031 3.73535 1.81328 2.62285C3.01953 1.51035 4.41641 0.954102 6.00391 0.954102C7.59141 0.954102 8.98828 1.51035 10.1945 2.62285C11.4008 3.73535 12.0039 5.2291 12.0039 7.1041C12.0039 8.3541 11.507 9.71348 10.5133 11.1822C9.51953 12.651 8.01641 14.2416 6.00391 15.9541Z" fill="#1F1F1F"/>
</svg>
