<svg width="13" height="16" viewBox="0 0 13 16" fill="none" xmlns="http://www.w3.org/2000/svg">
<path d="M6.74768 8.12988C7.16018 8.12988 7.51331 7.98301 7.80706 7.68926C8.10081 7.39551 8.24768 7.04238 8.24768 6.62988C8.24768 6.21738 8.10081 5.86426 7.80706 5.57051C7.51331 5.27676 7.16018 5.12988 6.74768 5.12988C6.33518 5.12988 5.98206 5.27676 5.68831 5.57051C5.39456 5.86426 5.24768 6.21738 5.24768 6.62988C5.24768 7.04238 5.39456 7.39551 5.68831 7.68926C5.98206 7.98301 6.33518 8.12988 6.74768 8.12988ZM6.74768 13.6424C8.27268 12.2424 9.40393 10.9705 10.1414 9.82676C10.8789 8.68301 11.2477 7.66738 11.2477 6.77988C11.2477 5.41738 10.8133 4.30176 9.94456 3.43301C9.07581 2.56426 8.01018 2.12988 6.74768 2.12988C5.48518 2.12988 4.41956 2.56426 3.55081 3.43301C2.68206 4.30176 2.24768 5.41738 2.24768 6.77988C2.24768 7.66738 2.61643 8.68301 3.35393 9.82676C4.09143 10.9705 5.22268 12.2424 6.74768 13.6424ZM6.74768 15.6299C4.73518 13.9174 3.23206 12.3268 2.23831 10.858C1.24456 9.38926 0.747681 8.02988 0.747681 6.77988C0.747681 4.90488 1.35081 3.41113 2.55706 2.29863C3.76331 1.18613 5.16018 0.629883 6.74768 0.629883C8.33518 0.629883 9.73206 1.18613 10.9383 2.29863C12.1446 3.41113 12.7477 4.90488 12.7477 6.77988C12.7477 8.02988 12.2508 9.38926 11.2571 10.858C10.2633 12.3268 8.76018 13.9174 6.74768 15.6299Z" fill="#D4FF12"/>
</svg>
