<svg width="37" height="37" viewBox="0 0 37 37" fill="none" xmlns="http://www.w3.org/2000/svg">
<g clip-path="url(#clip0_186_152)">
<path d="M32.207 0.402832H3.94141C1.80896 0.402832 0.0742188 2.13757 0.0742188 4.27002V26.0669C0.0742188 28.1993 1.80896 29.9341 3.94141 29.9341H12.7772V34.1528H9.56641C8.98386 34.1528 8.51172 34.625 8.51172 35.2075C8.51172 35.7901 8.98386 36.2622 9.56641 36.2622H26.4414C27.024 36.2622 27.4961 35.7901 27.4961 35.2075C27.4961 34.625 27.024 34.1528 26.4414 34.1528H23.3413V29.9341H32.207C34.3395 29.9341 36.0742 28.1993 36.0742 26.0669V4.27002C36.0742 2.13757 34.3395 0.402832 32.207 0.402832ZM2.18359 4.27002C2.18359 4.04453 2.22672 3.82919 2.30444 3.63089L12.8008 10.0988V10.9497H11.7461C11.1635 10.9497 10.6914 11.4218 10.6914 12.0044V15.42L2.18359 20.6624V4.27002ZM33.9648 4.27002V20.6624L25.3867 15.3766V12.0044C25.3867 11.4218 24.9146 10.9497 24.332 10.9497H23.207V10.1856L33.844 3.63089C33.9217 3.82919 33.9648 4.04453 33.9648 4.27002ZM14.9102 9.89502C14.9102 8.18912 16.298 6.80127 18.0039 6.80127C19.7098 6.80127 21.0977 8.18912 21.0977 9.89502V10.9497H14.9102V9.89502ZM23.2773 13.0591V17.2778H12.8008V13.0591H23.2773ZM22.8255 7.94275C21.0842 3.65781 15.0186 3.6004 13.2097 7.87299L4.50995 2.51221H31.6385L22.8255 7.94275ZM10.6914 17.8977V18.3325C10.6914 18.9151 11.1635 19.3872 11.7461 19.3872H24.332C24.9146 19.3872 25.3867 18.9151 25.3867 18.3325V17.8543L31.2974 21.4966H4.85107L10.6914 17.8977ZM21.232 34.1528H14.8863V29.9341H21.232V34.1528ZM32.207 27.8247H3.94141C2.97214 27.8247 2.18359 27.0362 2.18359 26.0669V23.606H33.9648V26.0669C33.9648 27.0362 33.1763 27.8247 32.207 27.8247Z" fill="#6366F1"/>
</g>
<defs>
<clipPath id="clip0_186_152">
<rect width="36" height="36" fill="white" transform="translate(0.0742188 0.33252)"/>
</clipPath>
</defs>
</svg>
