<svg width="34" height="35" viewBox="0 0 34 35" fill="none" xmlns="http://www.w3.org/2000/svg">
<path d="M12.4134 21.1921L17.2884 18.2337L22.1634 21.1921L20.8717 15.6504L25.205 11.9004L19.4967 11.4421L17.2884 6.19206L15.08 11.4421L9.3717 11.9004L13.705 15.6504L12.4134 21.1921ZM0.621704 34.1087V4.10872C0.621704 3.19206 0.948093 2.40734 1.60087 1.75456C2.25365 1.10178 3.03837 0.775391 3.95504 0.775391H30.6217C31.5384 0.775391 32.3231 1.10178 32.9759 1.75456C33.6286 2.40734 33.955 3.19206 33.955 4.10872V24.1087C33.955 25.0254 33.6286 25.8101 32.9759 26.4629C32.3231 27.1157 31.5384 27.4421 30.6217 27.4421H7.28837L0.621704 34.1087ZM5.8717 24.1087H30.6217V4.10872H3.95504V25.9837L5.8717 24.1087Z" fill="#6366F1"/>
</svg>
