<svg width="37" height="37" viewBox="0 0 37 37" fill="none" xmlns="http://www.w3.org/2000/svg">
<g clip-path="url(#clip0_186_226)">
<path d="M35.4548 27.8251H34.3298V10.5986C34.3298 9.6293 33.5413 8.84075 32.572 8.84075H27.9278V5.67669C27.9278 5.27789 27.7032 4.91341 27.3466 4.73434L18.9498 0.515587C18.6518 0.365898 18.3008 0.365898 18.0028 0.515587L9.60593 4.73434C9.24969 4.91341 9.02475 5.27789 9.02475 5.67669V8.84075H4.44702C3.47775 8.84075 2.68921 9.6293 2.68921 10.5986V27.8251H1.56421C0.981659 27.8251 0.509521 28.2973 0.509521 28.8798V33.0986C0.509521 34.8432 1.92896 36.2626 3.67331 36.2626H33.3457C35.0901 36.2626 36.5095 34.8432 36.5095 33.0986V28.8798C36.5095 28.2973 36.0374 27.8251 35.4548 27.8251ZM11.1341 6.32708L18.4763 2.63815L25.8185 6.32708V14.733C25.8185 19.5151 22.2704 21.043 18.5073 23.4155C14.7014 21.0348 11.1341 19.5277 11.1341 14.7132V6.32708ZM4.79858 10.9501H9.02475V14.7132C9.02475 20.9889 14.071 23.1285 17.95 25.5551C18.2931 25.7699 18.7292 25.7693 19.072 25.5532C23.0274 23.0593 27.9278 20.9287 27.9278 14.733V10.9501H32.2205V27.8251H23.3611C22.9153 27.8251 22.5179 28.1053 22.3679 28.525L21.9147 29.7939H15.1043L14.6511 28.525C14.5012 28.1053 14.1037 27.8251 13.658 27.8251H4.79858V10.9501ZM34.4001 33.0986C34.4001 33.6803 33.9269 34.1533 33.3457 34.1533H3.67331C3.09213 34.1533 2.6189 33.68 2.6189 33.0986V29.9345H12.9147L13.3679 31.2031C13.5179 31.6231 13.9153 31.9033 14.3611 31.9033H22.658C23.1037 31.9033 23.5012 31.6231 23.6511 31.2031L24.1043 29.9345H34.4001V33.0986Z" fill="#6366F1"/>
<path d="M18.5095 13.0596C19.0921 13.0596 19.5642 12.5874 19.5642 12.0049V7.78613C19.5642 7.20358 19.0921 6.73145 18.5095 6.73145C17.927 6.73145 17.4548 7.20358 17.4548 7.78613V12.0049C17.4548 12.5874 17.927 13.0596 18.5095 13.0596Z" fill="#6366F1"/>
<path d="M19.5642 16.2588C19.5642 16.8413 19.0921 17.3135 18.5095 17.3135C17.927 17.3135 17.4548 16.8413 17.4548 16.2588C17.4548 15.6762 17.927 15.2041 18.5095 15.2041C19.0921 15.2041 19.5642 15.6762 19.5642 16.2588Z" fill="#6366F1"/>
</g>
<defs>
<clipPath id="clip0_186_226">
<rect width="36" height="36" fill="white" transform="translate(0.509521 0.333008)"/>
</clipPath>
</defs>
</svg>
