<svg width="14" height="18" viewBox="0 0 14 18" fill="none" xmlns="http://www.w3.org/2000/svg">
<path d="M0.333252 17.3512V2.35124C0.333252 1.8929 0.496446 1.50054 0.822835 1.17415C1.14922 0.847765 1.54159 0.68457 1.99992 0.68457H11.9999C12.4583 0.68457 12.8506 0.847765 13.177 1.17415C13.5034 1.50054 13.6666 1.8929 13.6666 2.35124V17.3512H0.333252ZM1.99992 15.6846H11.9999V2.35124H1.99992V15.6846ZM9.91658 10.2679C10.2638 10.2679 10.5589 10.1464 10.802 9.90332C11.0451 9.66026 11.1666 9.36513 11.1666 9.0179C11.1666 8.67068 11.0451 8.37554 10.802 8.13249C10.5589 7.88943 10.2638 7.7679 9.91658 7.7679C9.56936 7.7679 9.27422 7.88943 9.03117 8.13249C8.78811 8.37554 8.66658 8.67068 8.66658 9.0179C8.66658 9.36513 8.78811 9.66026 9.03117 9.90332C9.27422 10.1464 9.56936 10.2679 9.91658 10.2679Z" fill="#FC95F6"/>
</svg>
