<svg width="19" height="21" viewBox="0 0 19 21" fill="none" xmlns="http://www.w3.org/2000/svg">
<path d="M13.668 15.6064C14.0846 15.6064 14.4388 15.4606 14.7305 15.1689C15.0221 14.8773 15.168 14.5231 15.168 14.1064C15.168 13.6898 15.0221 13.3356 14.7305 13.0439C14.4388 12.7523 14.0846 12.6064 13.668 12.6064C13.2513 12.6064 12.8971 12.7523 12.6055 13.0439C12.3138 13.3356 12.168 13.6898 12.168 14.1064C12.168 14.5231 12.3138 14.8773 12.6055 15.1689C12.8971 15.4606 13.2513 15.6064 13.668 15.6064ZM13.668 18.6064C14.1846 18.6064 14.6596 18.4856 15.093 18.2439C15.5263 18.0023 15.8763 17.6814 16.143 17.2814C15.7763 17.0648 15.3846 16.8981 14.968 16.7814C14.5513 16.6648 14.118 16.6064 13.668 16.6064C13.218 16.6064 12.7846 16.6648 12.368 16.7814C11.9513 16.8981 11.5596 17.0648 11.193 17.2814C11.4596 17.6814 11.8096 18.0023 12.243 18.2439C12.6763 18.4856 13.1513 18.6064 13.668 18.6064ZM8.66797 20.6064C6.3513 20.0231 4.4388 18.6939 2.93047 16.6189C1.42214 14.5439 0.667969 12.2398 0.667969 9.70645V3.60645L8.66797 0.606445L16.668 3.60645V9.28145C16.3513 9.14811 16.0263 9.02728 15.693 8.91895C15.3596 8.81061 15.018 8.73145 14.668 8.68145V5.00645L8.66797 2.75645L2.66797 5.00645V9.70645C2.66797 10.4898 2.77214 11.2731 2.98047 12.0564C3.1888 12.8398 3.48047 13.5856 3.85547 14.2939C4.23047 15.0023 4.68464 15.6564 5.21797 16.2564C5.7513 16.8564 6.34297 17.3564 6.99297 17.7564C7.1763 18.2898 7.41797 18.7981 7.71797 19.2814C8.01797 19.7648 8.35964 20.1981 8.74297 20.5814C8.7263 20.5814 8.7138 20.5856 8.70547 20.5939C8.69714 20.6023 8.68464 20.6064 8.66797 20.6064ZM13.668 20.6064C12.2846 20.6064 11.1055 20.1189 10.1305 19.1439C9.15547 18.1689 8.66797 16.9898 8.66797 15.6064C8.66797 14.2231 9.15547 13.0439 10.1305 12.0689C11.1055 11.0939 12.2846 10.6064 13.668 10.6064C15.0513 10.6064 16.2305 11.0939 17.2055 12.0689C18.1805 13.0439 18.668 14.2231 18.668 15.6064C18.668 16.9898 18.1805 18.1689 17.2055 19.1439C16.2305 20.1189 15.0513 20.6064 13.668 20.6064Z" fill="#6366F1"/>
</svg>
