<svg width="24" height="26" viewBox="0 0 24 26" fill="none" xmlns="http://www.w3.org/2000/svg">
<path d="M16.918 18.8564C17.4388 18.8564 17.8815 18.6742 18.2461 18.3096C18.6107 17.945 18.793 17.5023 18.793 16.9814C18.793 16.4606 18.6107 16.0179 18.2461 15.6533C17.8815 15.2887 17.4388 15.1064 16.918 15.1064C16.3971 15.1064 15.9544 15.2887 15.5898 15.6533C15.2253 16.0179 15.043 16.4606 15.043 16.9814C15.043 17.5023 15.2253 17.945 15.5898 18.3096C15.9544 18.6742 16.3971 18.8564 16.918 18.8564ZM16.918 22.6064C17.5638 22.6064 18.1576 22.4554 18.6992 22.1533C19.2409 21.8512 19.6784 21.4502 20.0117 20.9502C19.5534 20.6794 19.0638 20.471 18.543 20.3252C18.0221 20.1794 17.4805 20.1064 16.918 20.1064C16.3555 20.1064 15.8138 20.1794 15.293 20.3252C14.7721 20.471 14.2826 20.6794 13.8242 20.9502C14.1576 21.4502 14.5951 21.8512 15.1367 22.1533C15.6784 22.4554 16.2721 22.6064 16.918 22.6064ZM10.668 25.1064C7.77214 24.3773 5.38151 22.7158 3.49609 20.1221C1.61068 17.5283 0.667969 14.6481 0.667969 11.4814V3.85645L10.668 0.106445L20.668 3.85645V10.9502C20.2721 10.7835 19.8659 10.6325 19.4492 10.4971C19.0326 10.3617 18.6055 10.2627 18.168 10.2002V5.60645L10.668 2.79395L3.16797 5.60645V11.4814C3.16797 12.4606 3.29818 13.4398 3.55859 14.4189C3.81901 15.3981 4.18359 16.3304 4.65234 17.2158C5.12109 18.1012 5.6888 18.9189 6.35547 19.6689C7.02214 20.4189 7.76172 21.0439 8.57422 21.5439C8.80339 22.2106 9.10547 22.846 9.48047 23.4502C9.85547 24.0544 10.2826 24.596 10.7617 25.0752C10.7409 25.0752 10.7253 25.0804 10.7148 25.0908C10.7044 25.1012 10.6888 25.1064 10.668 25.1064ZM16.918 25.1064C15.1888 25.1064 13.7148 24.4971 12.4961 23.2783C11.2773 22.0596 10.668 20.5856 10.668 18.8564C10.668 17.1273 11.2773 15.6533 12.4961 14.4346C13.7148 13.2158 15.1888 12.6064 16.918 12.6064C18.6471 12.6064 20.1211 13.2158 21.3398 14.4346C22.5586 15.6533 23.168 17.1273 23.168 18.8564C23.168 20.5856 22.5586 22.0596 21.3398 23.2783C20.1211 24.4971 18.6471 25.1064 16.918 25.1064Z" fill="white"/>
</svg>
