<svg width="24" height="32" viewBox="0 0 24 32" fill="none" xmlns="http://www.w3.org/2000/svg">
<path d="M12.1288 20.2528C10.7399 20.2528 9.55938 19.7667 8.58716 18.7945C7.61494 17.8223 7.12883 16.6417 7.12883 15.2528V5.25281C7.12883 3.86392 7.61494 2.68336 8.58716 1.71114C9.55938 0.738919 10.7399 0.252808 12.1288 0.252808C13.5177 0.252808 14.6983 0.738919 15.6705 1.71114C16.6427 2.68336 17.1288 3.86392 17.1288 5.25281V15.2528C17.1288 16.6417 16.6427 17.8223 15.6705 18.7945C14.6983 19.7667 13.5177 20.2528 12.1288 20.2528ZM10.4622 31.9195V26.7945C7.57327 26.4056 5.18438 25.1139 3.29549 22.9195C1.4066 20.725 0.462158 18.1695 0.462158 15.2528H3.79549C3.79549 17.5584 4.60799 19.5236 6.23299 21.1486C7.85799 22.7736 9.82327 23.5861 12.1288 23.5861C14.4344 23.5861 16.3997 22.7736 18.0247 21.1486C19.6497 19.5236 20.4622 17.5584 20.4622 15.2528H23.7955C23.7955 18.1695 22.851 20.725 20.9622 22.9195C19.0733 25.1139 16.6844 26.4056 13.7955 26.7945V31.9195H10.4622ZM12.1288 16.9195C12.601 16.9195 12.9969 16.7598 13.3163 16.4403C13.6358 16.1209 13.7955 15.725 13.7955 15.2528V5.25281C13.7955 4.78059 13.6358 4.38475 13.3163 4.06531C12.9969 3.74586 12.601 3.58614 12.1288 3.58614C11.6566 3.58614 11.2608 3.74586 10.9413 4.06531C10.6219 4.38475 10.4622 4.78059 10.4622 5.25281V15.2528C10.4622 15.725 10.6219 16.1209 10.9413 16.4403C11.2608 16.7598 11.6566 16.9195 12.1288 16.9195Z" fill="#D4FF12"/>
</svg>
