<svg width="37" height="37" viewBox="0 0 37 37" fill="none" xmlns="http://www.w3.org/2000/svg">
<g clip-path="url(#clip0_186_239)">
<path d="M31.6011 23.6266H22.2495V21.9325C22.2495 20.259 23.6058 18.8972 25.2729 18.8972C26.5303 18.8972 27.6372 19.6572 28.0926 20.8336C28.3035 21.3788 28.9146 21.6487 29.4576 21.437C30.0006 21.2252 30.2695 20.6116 30.0586 20.0664C29.4162 18.407 28.0096 17.2361 26.3276 16.8878V3.50894C26.3276 1.75745 24.9082 0.33252 23.1636 0.33252H8.39795C6.65332 0.33252 5.23389 1.75745 5.23389 3.50894V33.1561C5.23389 34.9076 6.65332 36.3325 8.39795 36.3325H31.6011C32.1836 36.3325 32.6558 35.8585 32.6558 35.2737V24.6854C32.6558 24.1006 32.1836 23.6266 31.6011 23.6266ZM20.1401 21.9325V23.6266H18.9448C18.3623 23.6266 17.8901 24.1006 17.8901 24.6854V27.8618H7.34326V8.80325H24.2183V16.8895C21.8925 17.3792 20.1401 19.4539 20.1401 21.9325ZM8.39795 2.45013H23.1636C23.745 2.45013 24.2183 2.92502 24.2183 3.50894V6.68536H7.34326V3.50894C7.34326 2.92502 7.8165 2.45013 8.39795 2.45013ZM7.34326 33.1561V29.9797H17.8901V34.2149H8.39795C7.8165 34.2149 7.34326 33.74 7.34326 33.1561ZM30.5464 34.2149H19.9995V25.7442H30.5464V34.2149Z" fill="#6366F1"/>
<path d="M25.2729 32.0973C25.8555 32.0973 26.3276 31.6233 26.3276 31.0385V28.9209C26.3276 28.3359 25.8555 27.8618 25.2729 27.8618C24.6904 27.8618 24.2183 28.3359 24.2183 28.9209V31.0385C24.2183 31.6233 24.6904 32.0973 25.2729 32.0973Z" fill="#6366F1"/>
</g>
<defs>
<clipPath id="clip0_186_239">
<rect width="36" height="36" fill="white" transform="translate(0.944824 0.33252)"/>
</clipPath>
</defs>
</svg>
