<svg width="119" height="120" viewBox="0 0 119 120" fill="none" xmlns="http://www.w3.org/2000/svg">
<path d="M41.0528 62.9935H33.7531C29.066 62.9935 25.252 59.2034 25.252 54.5457C25.252 49.888 29.066 46.098 33.7531 46.098H41.0528C45.74 46.098 49.554 49.888 49.554 54.5457C49.5505 59.2069 45.74 62.9935 41.0528 62.9935ZM33.7531 49.0585C30.7075 49.0585 28.2277 51.5227 28.2277 54.5492C28.2277 57.5757 30.7075 60.0399 33.7531 60.0399H41.0528C44.0984 60.0399 46.5782 57.5757 46.5782 54.5492C46.5782 51.5227 44.0984 49.0585 41.0528 49.0585H33.7531Z" fill="#6366F1" fill-opacity="0.16"/>
<path d="M63.8774 61.4872C63.6783 61.4872 63.4758 61.4456 63.2872 61.3657C62.8226 61.1679 62.4943 60.7479 62.4105 60.2516L60.4336 48.5171C51.8347 44.1649 46.3232 35.2764 46.3232 25.6521C46.3232 11.5054 57.9015 0 72.1341 0H92.5209C106.753 0 118.332 11.5089 118.332 25.6521C118.332 32.5067 115.646 38.9449 110.77 43.7866C105.901 48.6317 99.4189 51.3007 92.5209 51.3007H79.6783L64.7052 61.2373C64.4572 61.4039 64.1673 61.4872 63.8774 61.4872ZM72.1341 2.95705C59.543 2.95705 49.299 13.1401 49.299 25.6555C49.299 34.4017 54.4437 42.4642 62.4105 46.1918C62.8506 46.3965 63.1614 46.8061 63.2453 47.285L64.9671 57.5098L78.4 48.5935C78.6445 48.4304 78.9309 48.3436 79.2277 48.3436H92.5209C98.6226 48.3436 104.358 45.9835 108.664 41.6972C112.977 37.4143 115.356 31.7154 115.356 25.6521C115.356 13.1367 105.112 2.95358 92.5209 2.95358H72.1341V2.95705Z" fill="#6366F1" fill-opacity="0.16"/>
<path d="M96.5968 16.5344H65.3199C64.4991 16.5344 63.832 15.8715 63.832 15.0559C63.832 14.2403 64.4991 13.5774 65.3199 13.5774H96.5968C97.4176 13.5774 98.0847 14.2403 98.0847 15.0559C98.0847 15.875 97.4176 16.5344 96.5968 16.5344Z" fill="#6366F1" fill-opacity="0.16"/>
<path d="M96.4919 28.3002H65.7144C64.8937 28.3002 64.2266 27.6373 64.2266 26.8217C64.2266 26.006 64.8937 25.3431 65.7144 25.3431H96.4919C97.3127 25.3431 97.9798 26.006 97.9798 26.8217C97.9798 27.6408 97.3127 28.3002 96.4919 28.3002Z" fill="#6366F1" fill-opacity="0.16"/>
<path d="M88.0154 38.282H66.0221C65.2013 38.282 64.5342 37.6191 64.5342 36.8035C64.5342 35.9879 65.2013 35.325 66.0221 35.325H88.0154C88.8362 35.325 89.5033 35.9879 89.5033 36.8035C89.5033 37.6191 88.8362 38.282 88.0154 38.282Z" fill="#6366F1" fill-opacity="0.16"/>
<path d="M39.0553 107.318C37.4172 107.318 35.7826 107.269 34.169 107.221L25.1509 106.95C22.8807 106.881 20.3101 106.808 17.9805 105.642C15.4099 104.357 14.3027 102.518 14.0337 99.0785C14.0303 99.0403 14.0303 99.0021 14.0303 98.964C14.0303 97.1488 13.5168 81.475 13.3632 76.8277L4.65591 75.9531C3.76878 75.8629 2.43108 75.731 1.43567 74.7626C0.709193 74.0546 -0.0347467 72.708 0.534559 70.282C1.55442 65.9401 4.58606 62.7262 7.51641 59.6199C9.91588 57.0759 12.1861 54.6741 13.3841 51.7344C14.617 48.7115 14.624 45.3657 14.631 41.8256C14.6345 40.5587 14.6345 39.2503 14.6974 37.9557L14.7113 37.6503C15.2282 27.075 16.0106 11.0958 30.4738 3.51926C34.5742 1.37089 39.3452 0.235962 44.2733 0.235962H81.2503C82.071 0.235962 82.7381 0.898869 82.7381 1.71449C82.7381 2.53011 82.071 3.19301 81.2503 3.19301H44.2698C39.8271 3.19301 35.5346 4.20993 31.8604 6.13618C18.9025 12.9249 18.197 27.3006 17.6836 37.7961L17.6696 38.1049C17.6102 39.3266 17.6068 40.6004 17.6068 41.8325C17.5998 45.501 17.5928 49.2945 16.1433 52.8485C14.7358 56.295 12.1721 59.0125 9.68886 61.6433C6.9017 64.5969 4.27172 67.3839 3.43348 70.9553C3.24487 71.7535 3.2798 72.4164 3.5173 72.649C3.76878 72.8954 4.48477 72.9648 4.95628 73.0134L14.9558 74.0199C15.6963 74.0928 16.2691 74.7002 16.2935 75.4429C16.3214 76.3071 16.9955 96.4442 17.006 98.9084C17.2191 101.529 17.8932 102.292 19.3182 103.004C21.0575 103.872 23.2789 103.937 25.2417 103.996L34.2598 104.267C39.2229 104.416 44.3571 104.569 49.1281 103.226C54.0912 101.831 57.9821 98.7765 59.5957 95.0247C59.6062 82.905 60.158 81.8186 60.5177 81.3605C61.6633 79.7327 63.5669 78.6255 66.1759 78.0737C67.0281 77.8932 67.8768 77.7787 68.7011 77.6711C69.7384 77.5323 70.7198 77.4004 71.6524 77.1505C76.9333 75.731 80.1151 70.6325 81.3306 66.3323C82.815 61.0741 82.3609 55.344 81.9558 50.2872C81.8894 49.475 82.5041 48.76 83.3214 48.6976C84.1387 48.6282 84.8582 49.239 84.9211 50.0546C85.3437 55.3579 85.8222 61.3692 84.1946 67.1305C82.3644 73.6138 77.8554 78.5457 72.4313 80.0034C71.3101 80.3054 70.1855 80.4546 69.0958 80.6004C68.2924 80.708 67.5345 80.8086 66.7941 80.9648C65.5542 81.2286 63.9091 81.7874 63.022 82.9639C62.7391 84.1718 62.5714 90.0963 62.5714 95.3162C62.5714 95.5036 62.5365 95.6876 62.4667 95.8611C60.5841 100.578 55.9004 104.392 49.9419 106.068C46.348 107.082 42.6842 107.318 39.0553 107.318Z" fill="#6366F1" fill-opacity="0.16"/>
<path d="M91.4558 120C90.6805 120 90.0273 119.403 89.975 118.626L87.5126 83.8699C87.4847 83.4847 87.6104 83.1029 87.8619 82.8079C95.668 73.6729 99.9884 61.5636 99.716 49.5862C99.6986 48.7706 100.348 48.0938 101.169 48.0764C101.179 48.0764 101.193 48.0764 101.204 48.0764C102.011 48.0764 102.671 48.715 102.692 49.5202C102.975 62.0113 98.546 74.6343 90.5233 84.2586L92.9437 118.417C93.0031 119.233 92.3849 119.938 91.5641 119.997C91.5257 120 91.4908 120 91.4558 120Z" fill="#6366F1" fill-opacity="0.16"/>
<path d="M40.7281 119.788C39.9073 119.788 39.2402 119.125 39.2402 118.31V106.808C39.2402 105.992 39.9073 105.329 40.7281 105.329C41.5489 105.329 42.216 105.992 42.216 106.808V118.31C42.216 119.125 41.5489 119.788 40.7281 119.788Z" fill="#6366F1" fill-opacity="0.16"/>
<path d="M27.2741 90.4087H15.6051C14.7843 90.4087 14.1172 89.7458 14.1172 88.9302C14.1172 88.1146 14.7843 87.4517 15.6051 87.4517H27.2741C28.0949 87.4517 28.762 88.1146 28.762 88.9302C28.762 89.7493 28.0949 90.4087 27.2741 90.4087Z" fill="#6366F1" fill-opacity="0.16"/>
</svg>
