<svg width="120" height="118" viewBox="0 0 120 118" fill="none" xmlns="http://www.w3.org/2000/svg">
<g clip-path="url(#clip0_284_6310)">
<path d="M37.5319 20.3803C33.7859 20.3803 30.7344 17.3332 30.7344 13.5845C30.7344 9.83576 33.7823 6.78857 37.5319 6.78857C41.2815 6.78857 44.3294 9.83576 44.3294 13.5845C44.3294 17.3332 41.2778 20.3803 37.5319 20.3803ZM37.5319 10.1938C35.6607 10.1938 34.1404 11.7138 34.1404 13.5845C34.1404 15.4552 35.6607 16.9751 37.5319 16.9751C39.403 16.9751 40.9233 15.4552 40.9233 13.5845C40.9233 11.7138 39.403 10.1938 37.5319 10.1938Z" fill="#6366F1" fill-opacity="0.16"/>
<path d="M37.5281 27.1689C30.0362 27.1689 23.9404 21.0746 23.9404 13.5845C23.9404 6.09438 30.0362 0 37.5281 0C45.02 0 51.1158 6.09438 51.1158 13.5845C51.1158 21.0746 45.02 27.1689 37.5281 27.1689ZM37.5281 3.4016C31.911 3.4016 27.3428 7.96873 27.3428 13.5845C27.3428 19.2002 31.911 23.7673 37.5281 23.7673C43.1452 23.7673 47.7134 19.2002 47.7134 13.5845C47.7134 7.96873 43.1415 3.4016 37.5281 3.4016Z" fill="#6366F1" fill-opacity="0.16"/>
<path d="M95.8919 33.4132C91.7878 33.4132 88.4512 30.0773 88.4512 25.9742C88.4512 21.8711 91.7878 18.5353 95.8919 18.5353C99.9959 18.5353 103.333 21.8711 103.333 25.9742C103.333 30.0773 99.9923 33.4132 95.8919 33.4132ZM95.8919 21.9369C93.6662 21.9369 91.8536 23.7491 91.8536 25.9742C91.8536 28.1993 93.6662 30.0116 95.8919 30.0116C98.1175 30.0116 99.9302 28.1993 99.9302 25.9742C99.9302 23.7491 98.1175 21.9369 95.8919 21.9369Z" fill="#6366F1" fill-opacity="0.16"/>
<path d="M20.7579 60.3592C15.3711 60.3592 10.9893 55.9784 10.9893 50.5892C10.9893 45.2 15.3711 40.8229 20.7579 40.8229C26.1447 40.8229 30.5266 45.2037 30.5266 50.5892C30.5266 55.9748 26.1447 60.3592 20.7579 60.3592ZM20.7579 44.2245C17.2459 44.2245 14.3917 47.0817 14.3917 50.5892C14.3917 54.0968 17.2495 56.954 20.7579 56.954C24.2663 56.954 27.1242 54.0968 27.1242 50.5892C27.1242 47.0817 24.27 44.2245 20.7579 44.2245Z" fill="#6366F1" fill-opacity="0.16"/>
<path d="M80.0933 93.1987C75.8029 93.1987 72.3164 89.7094 72.3164 85.42C72.3164 81.1305 75.8065 77.6449 80.0933 77.6449C84.3801 77.6449 87.8739 81.1342 87.8739 85.42C87.8739 89.7094 84.3838 93.1987 80.0933 93.1987ZM80.0933 81.0465C77.6813 81.0465 75.7188 83.0085 75.7188 85.42C75.7188 87.8314 77.6813 89.7935 80.0933 89.7935C82.5053 89.7935 84.4678 87.8314 84.4678 85.42C84.4715 83.0122 82.509 81.0465 80.0933 81.0465Z" fill="#6366F1" fill-opacity="0.16"/>
<path d="M95.8883 41.0603C87.5668 41.0603 80.7949 34.29 80.7949 25.9705C80.7949 17.6511 87.5668 10.8807 95.8883 10.8807C104.21 10.8807 110.982 17.6511 110.982 25.9705C110.982 34.29 104.21 41.0603 95.8883 41.0603ZM95.8883 14.286C89.4416 14.286 84.1973 19.5291 84.1973 25.9742C84.1973 32.4193 89.4416 37.6624 95.8883 37.6624C102.335 37.6624 107.579 32.4193 107.579 25.9742C107.576 19.5254 102.335 14.286 95.8883 14.286Z" fill="#6366F1" fill-opacity="0.16"/>
<path d="M117.351 118H41.8075C40.8683 118 40.1045 117.24 40.1045 116.297V114.646C40.1045 105.61 47.4575 98.259 56.4952 98.259H102.663C111.701 98.259 119.054 105.61 119.054 114.646V116.297C119.054 117.236 118.29 118 117.351 118ZM43.5106 114.595H115.652C115.626 107.459 109.808 101.661 102.663 101.661H56.4952C49.3505 101.664 43.5361 107.459 43.5106 114.595Z" fill="#6366F1" fill-opacity="0.16"/>
<path d="M98.0005 101.664H63.1688C62.2296 101.664 61.4658 100.904 61.4658 99.9617V84.1046C61.4658 73.5637 70.0431 64.9921 80.5829 64.9921C91.1226 64.9921 99.6999 73.5673 99.6999 84.1046V99.9617C99.7036 100.901 98.9398 101.664 98.0005 101.664ZM64.8682 98.259H96.2975V84.1009C96.2975 75.438 89.2478 68.39 80.5829 68.39C71.9179 68.39 64.8682 75.438 64.8682 84.1009V98.259Z" fill="#6366F1" fill-opacity="0.16"/>
<path d="M96.0523 76.1614C95.9171 76.1614 95.7782 76.1431 95.6393 76.1102C94.7257 75.8837 94.1739 74.9593 94.4004 74.0495L104.07 35.218C104.297 34.3046 105.222 33.7492 106.132 33.9794C107.045 34.2059 107.597 35.1303 107.37 36.0401L97.7042 74.8716C97.5105 75.6462 96.8161 76.1614 96.0523 76.1614Z" fill="#6366F1" fill-opacity="0.16"/>
<path d="M75.4441 68.9819C75.0713 68.9819 74.7022 68.8613 74.3952 68.6202C73.8397 68.1854 73.6132 67.4547 73.8215 66.7787L83.8752 34.2462C84.1529 33.3473 85.1068 32.8468 86.0021 33.1245C86.9012 33.4022 87.4018 34.3558 87.1241 35.2509L77.3847 66.7641C77.5309 67.4547 77.2348 68.1927 76.5953 68.5764L76.3175 68.7408C76.0471 68.9015 75.7474 68.9819 75.4441 68.9819Z" fill="#6366F1" fill-opacity="0.16"/>
<path d="M83.5061 34.7577C83.3563 34.7577 83.1992 34.7358 83.0493 34.6956L45.7435 24.2752C44.8372 24.0231 44.3109 23.0841 44.5631 22.178C44.8152 21.2755 45.7545 20.7458 46.6608 20.9979L83.963 31.4182C84.8693 31.6703 85.3955 32.6093 85.1434 33.5154C84.9351 34.2645 84.2517 34.7577 83.5061 34.7577Z" fill="#6366F1" fill-opacity="0.16"/>
<path d="M87.1797 17.3441C87.0482 17.3441 86.9129 17.3295 86.7777 17.2966L46.5921 7.55583C45.6785 7.33296 45.1193 6.41588 45.3386 5.50245C45.5579 4.58903 46.4788 4.03001 47.3925 4.24923L87.5781 13.99C88.4917 14.2129 89.0509 15.13 88.8316 16.0434C88.6416 16.8216 87.9472 17.3441 87.1797 17.3441Z" fill="#6366F1" fill-opacity="0.16"/>
<path d="M28.6408 49.2008C28.3119 49.2008 27.9793 49.1058 27.6833 48.9048C26.9048 48.375 26.7075 47.3191 27.2338 46.5409L43.8657 22.1195C44.3956 21.3449 45.4518 21.1403 46.2302 21.6701C47.0086 22.1999 47.206 23.2558 46.6797 24.0341L30.0478 48.4554C29.7189 48.9413 29.1853 49.2008 28.6408 49.2008Z" fill="#6366F1" fill-opacity="0.16"/>
<path d="M16.8875 44.5678C16.6025 44.5678 16.3174 44.4984 16.0543 44.3486C15.2357 43.8882 14.9469 42.8506 15.4111 42.0322L27.2957 20.9941C27.7562 20.1757 28.7941 19.8871 29.6127 20.3511C30.4313 20.8115 30.7201 21.8491 30.2559 22.6675L18.3713 43.7056C18.057 44.2536 17.4796 44.5678 16.8875 44.5678Z" fill="#6366F1" fill-opacity="0.16"/>
<path d="M19.5954 83.33C19.2885 83.33 18.9778 83.246 18.6964 83.0706C17.8997 82.5737 17.6549 81.5251 18.1555 80.7286L26.1225 67.9662L23.3231 59.2886C23.0344 58.3935 23.5278 57.4362 24.4195 57.1476C25.3148 56.8589 26.2723 57.3522 26.561 58.2437L29.6016 67.6739C29.7551 68.1525 29.6894 68.6714 29.4262 69.0952L21.0427 82.5262C20.7174 83.045 20.1656 83.33 19.5954 83.33Z" fill="#6366F1" fill-opacity="0.16"/>
<path d="M2.12999 77.3708C1.20904 77.3708 0.452542 76.6364 0.430614 75.7121L0.0541941 60.509C0.0395758 59.8915 0.357523 59.3142 0.89109 59.0037L11.6794 52.6353C12.487 52.1566 13.5322 52.427 14.011 53.2345C14.4897 54.0419 14.2193 55.0869 13.4116 55.5655L3.48218 61.4261L3.83302 75.628C3.85494 76.567 3.11307 77.3489 2.17384 77.3708C2.15922 77.3708 2.14461 77.3708 2.12999 77.3708Z" fill="#6366F1" fill-opacity="0.16"/>
</g>
<defs>
<clipPath id="clip0_284_6310">
<rect width="119" height="118" fill="white" transform="translate(0.0546875)"/>
</clipPath>
</defs>
</svg>
