<svg width="126" height="119" viewBox="0 0 126 119" fill="none" xmlns="http://www.w3.org/2000/svg">
<path d="M27.1395 108.746C24.9324 108.746 22.7289 108.619 20.5399 108.362C19.06 108.187 17.3655 107.912 15.9656 106.827C14.3439 105.575 13.4203 103.434 13.2967 100.64C13.2712 100.042 13.2712 99.4503 13.2749 98.877C13.2785 97.676 13.2858 96.544 13.0203 95.528C12.9076 95.089 12.7294 94.6355 12.544 94.1493C12.1949 93.2422 11.8022 92.2153 11.7295 91.0579C11.6422 89.6537 12.2095 88.2023 13.213 87.2735C14.0166 86.526 15.0275 86.1922 16.0565 86.3301C16.9765 86.4535 17.5982 87.288 17.4928 88.2096C17.3837 89.1276 16.5329 89.7807 15.6165 89.7009C15.4456 89.7734 15.1002 90.3032 15.1329 90.8511C15.1729 91.4897 15.442 92.1936 15.7256 92.9374C15.9365 93.4853 16.1547 94.0513 16.3147 94.6717C16.6928 96.1158 16.6856 97.5273 16.6819 98.8952C16.6783 99.4503 16.6783 99.9728 16.7001 100.488C16.7547 101.722 17.0346 103.354 18.0528 104.142C18.7655 104.693 19.8708 104.86 20.9399 104.987C33.8991 106.515 47.5056 103.166 58.2686 95.8074C59.0468 95.2777 60.1049 95.4736 60.6358 96.2465C61.1666 97.0193 60.9703 98.0788 60.1922 98.6085C50.5782 105.183 38.8225 108.746 27.1395 108.746Z" fill="#6366F1" fill-opacity="0.16"/>
<path d="M41.2375 119C40.3175 119 39.5576 118.267 39.5358 117.345L39.2594 106.518C39.234 105.579 39.9794 104.802 40.9175 104.777C41.8484 104.777 42.641 105.495 42.6629 106.431L42.9392 117.258C42.9647 118.198 42.2193 118.978 41.2811 119C41.2666 119 41.252 119 41.2375 119Z" fill="#6366F1" fill-opacity="0.16"/>
<path d="M15.6205 89.5847C12.4207 89.5847 10.3262 86.9904 10.2862 82.9774C10.2826 82.7343 10.2862 82.4876 10.2862 82.2373C10.2899 80.6807 10.2971 79.0733 9.50446 78.5653C9.02812 78.2606 8.20999 78.3259 7.26822 78.3984C6.26828 78.4783 5.13744 78.569 3.98841 78.2315C2.53395 77.8034 1.35584 76.7511 0.668604 75.2671C-0.22589 73.3368 -0.222254 70.884 0.675876 68.8667C1.57401 66.8457 3.02847 65.3109 4.43202 63.8196C5.03199 63.1846 5.59923 62.5823 6.1192 61.9546C8.84995 58.6346 10.5408 54.0774 11.4462 47.608C11.6971 45.8011 11.8861 43.9361 12.0716 42.1328C12.4388 38.5298 12.817 34.7998 13.7224 31.1714C17.2604 16.9845 29.4306 4.98177 44.0043 1.29897C58.298 -2.31853 74.1771 1.75252 85.4419 11.912C96.3031 21.7086 102.328 36.5596 101.557 51.6427C101.51 52.5789 100.71 53.2937 99.7683 53.2537C98.8302 53.2066 98.1066 52.4083 98.1539 51.4686C98.8739 37.3977 93.2669 23.5518 83.1548 14.4337C72.8826 5.16682 57.8399 1.30623 44.837 4.58991C31.4414 7.97519 20.2638 18.9837 17.024 31.9878C16.1768 35.3803 15.8132 38.987 15.4568 42.4738C15.2714 44.3098 15.0787 46.2074 14.8169 48.076C14.1915 52.5535 12.8824 59.0846 8.75177 64.1099C8.15908 64.8283 7.52639 65.4995 6.91188 66.149C5.6465 67.4879 4.45384 68.7542 3.78842 70.2418C3.29391 71.3557 3.283 72.7998 3.76297 73.8376C4.03932 74.4362 4.44293 74.8172 4.95563 74.966C5.49378 75.1256 6.22465 75.0676 6.99915 75.0059C8.29362 74.9043 9.90444 74.7737 11.3516 75.7025C13.7115 77.2192 13.7042 80.1219 13.6969 82.2445C13.6969 82.4804 13.6969 82.7126 13.6969 82.9412C13.7079 83.9172 13.9151 86.1849 15.6277 86.1849C16.5695 86.1849 17.3295 86.9469 17.3295 87.883C17.3295 88.8191 16.5622 89.5847 15.6205 89.5847Z" fill="#6366F1" fill-opacity="0.16"/>
<path d="M114.745 63.4277H77.6566C77.2058 63.4277 76.773 63.2499 76.4531 62.9306L66.6027 53.1014H54.2398C53.298 53.1014 52.5381 52.3394 52.5381 51.4033C52.5381 50.4635 53.3017 49.7052 54.2398 49.7052H67.3081C67.759 49.7052 68.1917 49.883 68.5117 50.2023L78.362 60.0316H114.745C115.687 60.0316 116.447 60.7935 116.447 61.7297C116.447 62.6658 115.687 63.4277 114.745 63.4277Z" fill="#6366F1" fill-opacity="0.16"/>
<path d="M78.1119 76.0146C77.1701 76.0146 76.4102 75.2526 76.4102 74.3165V61.6535C76.4102 60.7137 77.1738 59.9554 78.1119 59.9554C79.05 59.9554 79.8136 60.7173 79.8136 61.6535V74.3165C79.8136 75.2563 79.05 76.0146 78.1119 76.0146Z" fill="#6366F1" fill-opacity="0.16"/>
<path d="M104.623 76.3194C103.681 76.3194 102.921 75.5574 102.921 74.6213V62.1832C102.921 61.2434 103.684 60.4851 104.623 60.4851C105.564 60.4851 106.324 61.2471 106.324 62.1832V74.6213C106.328 75.5574 105.564 76.3194 104.623 76.3194Z" fill="#6366F1" fill-opacity="0.16"/>
<path d="M68.439 53.8561C67.4973 53.8561 66.7373 53.0941 66.7373 52.158V36.0262C66.7373 35.0865 67.5009 34.3281 68.439 34.3281C69.3772 34.3281 70.1407 35.0901 70.1407 36.0262V52.158C70.1444 53.0941 69.3808 53.8561 68.439 53.8561Z" fill="#6366F1" fill-opacity="0.16"/>
<path d="M68.6684 36.8934C65.1922 36.8934 62.3633 34.0705 62.3633 30.6018C62.3633 27.1331 65.1922 24.3102 68.6684 24.3102C72.1445 24.3102 74.9735 27.1331 74.9735 30.6018C74.9735 34.0705 72.1445 36.8934 68.6684 36.8934ZM68.6684 27.71C67.0685 27.71 65.7704 29.0089 65.7704 30.6018C65.7704 32.1983 67.0721 33.4936 68.6684 33.4936C70.2646 33.4936 71.5664 32.1947 71.5664 30.6018C71.5664 29.0089 70.2646 27.71 68.6684 27.71Z" fill="#6366F1" fill-opacity="0.16"/>
<path d="M49.349 57.6949C45.8729 57.6949 43.0439 54.872 43.0439 51.4033C43.0439 47.9346 45.8729 45.1117 49.349 45.1117C52.8252 45.1117 55.6541 47.9346 55.6541 51.4033C55.6541 54.872 52.8252 57.6949 49.349 57.6949ZM49.349 48.5079C47.7491 48.5079 46.451 49.8068 46.451 51.3997C46.451 52.9962 47.7528 54.2915 49.349 54.2915C50.9489 54.2915 52.2471 52.9925 52.2471 51.3997C52.2471 49.8068 50.9489 48.5079 49.349 48.5079Z" fill="#6366F1" fill-opacity="0.16"/>
<path d="M77.9223 86.7546C74.4461 86.7546 71.6172 83.9317 71.6172 80.463C71.6172 76.9943 74.4461 74.1714 77.9223 74.1714C81.3984 74.1714 84.2274 76.9943 84.2274 80.463C84.2274 83.9354 81.3984 86.7546 77.9223 86.7546ZM77.9223 77.5712C76.3224 77.5712 75.0243 78.8701 75.0243 80.463C75.0243 82.0595 76.326 83.3548 77.9223 83.3548C79.5222 83.3548 80.8203 82.0559 80.8203 80.463C80.8203 78.8701 79.5222 77.5712 77.9223 77.5712Z" fill="#6366F1" fill-opacity="0.16"/>
<path d="M104.397 86.7546C100.921 86.7546 98.0918 83.9317 98.0918 80.463C98.0918 76.9943 100.921 74.1714 104.397 74.1714C107.873 74.1714 110.702 76.9943 110.702 80.463C110.698 83.9354 107.873 86.7546 104.397 86.7546ZM104.397 77.5712C102.797 77.5712 101.499 78.8701 101.499 80.463C101.499 82.0595 102.801 83.3548 104.397 83.3548C105.993 83.3548 107.295 82.0559 107.295 80.463C107.295 78.8701 105.993 77.5712 104.397 77.5712Z" fill="#6366F1" fill-opacity="0.16"/>
<path d="M119.695 67.6403C116.219 67.6403 113.39 64.8174 113.39 61.3487C113.39 57.8799 116.219 55.0571 119.695 55.0571C123.171 55.0571 126 57.8799 126 61.3487C126 64.8174 123.175 67.6403 119.695 67.6403ZM119.695 58.4569C118.095 58.4569 116.797 59.7558 116.797 61.3487C116.797 62.9452 118.098 64.2405 119.695 64.2405C121.291 64.2405 122.593 62.9415 122.593 61.3487C122.596 59.7522 121.295 58.4569 119.695 58.4569Z" fill="#6366F1" fill-opacity="0.16"/>
<path d="M94.0559 117.904C93.2959 117.904 92.605 117.393 92.405 116.623C89.747 106.221 88.5907 95.5062 88.9725 84.7807C89.0052 83.8446 89.8016 83.108 90.7324 83.1407C91.6742 83.1733 92.4087 83.9607 92.376 84.8968C92.0087 95.2994 93.1286 105.691 95.7067 115.782C95.9394 116.692 95.3867 117.618 94.4776 117.85C94.3358 117.89 94.194 117.904 94.0559 117.904Z" fill="#6366F1" fill-opacity="0.16"/>
</svg>
