<svg width="106" height="119" viewBox="0 0 106 119" fill="none" xmlns="http://www.w3.org/2000/svg">
<g clip-path="url(#clip0_284_6230)">
<path d="M66.7398 88.4281C60.6218 88.4281 54.6258 85.0081 51.7327 79.5815C51.6869 79.4946 51.6488 79.4001 51.6183 79.3056C51.5268 79.0108 51.3096 78.3231 51.3096 9.31517C51.3096 8.42711 52.0376 7.70532 52.9334 7.70532C53.8292 7.70532 54.5572 8.42711 54.5572 9.31517C54.5572 35.409 54.6106 74.4685 54.7631 78.3646C57.519 83.2055 63.6331 86.0397 69.145 84.9816C74.7598 83.9046 79.4445 78.837 80.0353 73.195C80.1268 72.3107 80.9273 71.6683 81.8193 71.759C82.7112 71.8497 83.3592 72.6433 83.2677 73.5276C82.5244 80.6358 76.8449 86.7842 69.7663 88.1409C68.76 88.3374 67.7461 88.4281 66.7398 88.4281Z" fill="#6366F1" fill-opacity="0.16"/>
<path d="M85.6964 84.3052C83.2835 84.3052 80.8744 83.6401 78.8428 82.3061C78.0956 81.8149 77.8898 80.8172 78.3853 80.0765C78.8809 79.3358 79.8872 79.1318 80.6343 79.623C83.6456 81.6032 87.9835 81.5503 90.949 79.4983C93.968 77.4086 95.4546 73.3046 94.6541 69.2838C94.5398 68.7018 94.7532 68.1047 95.2145 67.7268C97.654 65.7391 99.316 63.8987 100.448 61.9299C101.778 59.6134 102.297 57.1268 101.9 54.9312C101.477 52.5769 99.9182 50.5589 97.9323 49.7956C97.0975 49.4744 96.682 48.541 97.006 47.7134C97.33 46.8858 98.2715 46.4739 99.1063 46.7951C102.129 47.9552 104.481 50.9293 105.098 54.3681C105.628 57.3044 104.976 60.5581 103.273 63.5284C102.06 65.6408 100.372 67.5908 98.0009 69.6163C98.6641 74.6197 96.6858 79.4568 92.813 82.1398C90.728 83.5834 88.2122 84.3052 85.6964 84.3052Z" fill="#6366F1" fill-opacity="0.16"/>
<path d="M76.5784 21.9861C76.3459 21.9861 76.1096 21.9369 75.8847 21.8311C75.0766 21.4495 74.7297 20.4896 75.1147 19.6885C76.8109 16.1438 76.4717 11.7564 74.2532 8.51024C72.0347 5.2641 68.04 3.32548 64.0985 3.5749C60.1495 3.82431 56.4444 6.24663 54.6567 9.74597C54.2527 10.5396 53.273 10.857 52.4764 10.4564C51.6759 10.0558 51.3557 9.08842 51.7597 8.29484C54.0544 3.79786 58.8154 0.683979 63.8889 0.362765C68.9662 0.0491103 74.0855 2.5319 76.9367 6.70389C79.7879 10.8759 80.2225 16.5141 78.0459 21.0678C77.7715 21.646 77.1883 21.9861 76.5784 21.9861Z" fill="#6366F1" fill-opacity="0.16"/>
<path d="M82.3872 35.8398C81.743 35.8398 81.1293 35.4543 80.8777 34.8233C80.5461 33.9957 80.9539 33.0623 81.7887 32.7335C86.4849 30.8856 89.561 25.3758 88.6423 20.4518C87.7237 15.524 82.8675 11.4692 77.8168 11.4049C76.921 11.3936 76.2006 10.6643 76.212 9.77619C76.2235 8.88813 76.9553 8.1928 77.8549 8.18524C84.4875 8.26838 90.6283 13.4002 91.8328 19.8661C93.0374 26.3357 89.1493 33.3003 82.9856 35.7264C82.7874 35.802 82.5854 35.8398 82.3872 35.8398Z" fill="#6366F1" fill-opacity="0.16"/>
<path d="M95.1762 52.5429C94.7759 52.5429 94.3757 52.3955 94.0593 52.1007C93.4075 51.4885 93.3808 50.472 93.9983 49.8258C96.9868 46.693 98.2904 42.128 97.3947 37.9069C96.4989 33.6858 93.4532 30.0277 89.4432 28.3574C88.6161 28.0135 88.2273 27.0688 88.5741 26.2487C88.921 25.4287 89.874 25.0432 90.7011 25.3871C95.6793 27.4618 99.4606 32.0041 100.574 37.2418C101.687 42.4794 100.071 48.1479 96.3578 52.0365C96.0338 52.3728 95.6069 52.5429 95.1762 52.5429Z" fill="#6366F1" fill-opacity="0.16"/>
<path d="M53.6082 53.0984C52.8306 53.0984 52.1445 52.5429 52.0111 51.7568C51.8624 50.8801 52.457 50.0487 53.3414 49.9014C59.7605 48.8244 65.6421 44.6146 68.6953 38.9159C69.1146 38.1298 70.0981 37.8313 70.8909 38.2508C71.6838 38.6665 71.9849 39.6414 71.5618 40.4275C68.0473 46.9916 61.2737 51.8362 53.8827 53.0757C53.7912 53.0908 53.6997 53.0984 53.6082 53.0984Z" fill="#6366F1" fill-opacity="0.16"/>
<path d="M53.006 77.6315C52.8459 77.6315 52.6858 77.6088 52.5257 77.5597C51.6681 77.2952 51.1878 76.3958 51.4546 75.5455C52.7811 71.2979 56.2651 68.5053 58.9562 66.9068C61.2586 65.5388 63.7362 64.5525 66.1339 63.5964C67.022 63.2412 67.9102 62.8897 68.7869 62.5156C71.4132 61.4008 74.7066 59.791 76.9175 57.2099C77.4968 56.5335 78.5222 56.4503 79.2045 57.0247C79.8869 57.5992 79.9707 58.6157 79.3913 59.2921C76.7421 62.3833 73.0142 64.2199 70.0638 65.4745C69.1642 65.8562 68.2532 66.219 67.346 66.5818C64.9636 67.5341 62.7109 68.4297 60.6258 69.6692C58.4226 70.9767 55.579 73.2214 54.5574 76.494C54.3439 77.1894 53.6997 77.6315 53.006 77.6315Z" fill="#6366F1" fill-opacity="0.16"/>
<path d="M71.8061 41.2816C68.8595 41.2816 66.4619 38.9046 66.4619 35.9834C66.4619 33.0623 68.8595 30.6853 71.8061 30.6853C74.7526 30.6853 77.1502 33.0623 77.1502 35.9834C77.1502 38.9046 74.7526 41.2816 71.8061 41.2816ZM71.8061 33.9012C70.6511 33.9012 69.7096 34.8346 69.7096 35.9797C69.7096 37.1247 70.6511 38.0581 71.8061 38.0581C72.961 38.0581 73.9026 37.1247 73.9026 35.9797C73.9026 34.8346 72.961 33.9012 71.8061 33.9012Z" fill="#6366F1" fill-opacity="0.16"/>
<path d="M81.6479 60.475C78.7013 60.475 76.3037 58.098 76.3037 55.1768C76.3037 52.2557 78.7013 49.8787 81.6479 49.8787C84.5944 49.8787 86.992 52.2557 86.992 55.1768C86.992 58.098 84.5944 60.475 81.6479 60.475ZM81.6479 53.0984C80.4929 53.0984 79.5514 54.0318 79.5514 55.1768C79.5514 56.3219 80.4929 57.2553 81.6479 57.2553C82.8028 57.2553 83.7444 56.3219 83.7444 55.1768C83.7444 54.0318 82.8028 53.0984 81.6479 53.0984Z" fill="#6366F1" fill-opacity="0.16"/>
<path d="M92.9809 110.856C90.0343 110.856 87.6367 108.479 87.6367 105.558C87.6367 102.637 90.0343 100.26 92.9809 100.26C95.9274 100.26 98.325 102.637 98.325 105.558C98.325 108.479 95.9274 110.856 92.9809 110.856ZM92.9809 103.476C91.8259 103.476 90.8844 104.409 90.8844 105.554C90.8844 106.699 91.8259 107.633 92.9809 107.633C94.1358 107.633 95.0774 106.699 95.0774 105.554C95.0774 104.409 94.1397 103.476 92.9809 103.476Z" fill="#6366F1" fill-opacity="0.16"/>
<path d="M52.934 119C49.9875 119 47.5898 116.623 47.5898 113.702C47.5898 110.781 49.9875 108.404 52.934 108.404C55.8805 108.404 58.2781 110.781 58.2781 113.702C58.2781 116.623 55.8805 119 52.934 119ZM52.934 111.623C51.779 111.623 50.8375 112.557 50.8375 113.702C50.8375 114.847 51.779 115.78 52.934 115.78C54.089 115.78 55.0305 114.847 55.0305 113.702C55.0305 112.557 54.089 111.623 52.934 111.623Z" fill="#6366F1" fill-opacity="0.16"/>
<path d="M24.6049 59.5302C21.6584 59.5302 19.2607 57.1532 19.2607 54.2321C19.2607 51.3109 21.6584 48.934 24.6049 48.934C27.5514 48.934 29.949 51.3109 29.949 54.2321C29.949 57.1532 27.5514 59.5302 24.6049 59.5302ZM24.6049 52.1499C23.4499 52.1499 22.5084 53.0833 22.5084 54.2283C22.5084 55.3733 23.4499 56.3067 24.6049 56.3067C25.7599 56.3067 26.7014 55.3733 26.7014 54.2283C26.7014 53.0833 25.7637 52.1499 24.6049 52.1499Z" fill="#6366F1" fill-opacity="0.16"/>
<path d="M64.8949 22.364C61.9484 22.364 59.5508 19.987 59.5508 17.0658C59.5508 14.1447 61.9484 11.7677 64.8949 11.7677C67.8415 11.7677 70.2391 14.1447 70.2391 17.0658C70.2391 19.987 67.8415 22.364 64.8949 22.364ZM64.8949 14.9874C63.74 14.9874 62.7984 15.9208 62.7984 17.0658C62.7984 18.2109 63.74 19.1443 64.8949 19.1443C66.0499 19.1443 66.9914 18.2109 66.9914 17.0658C66.9914 15.9208 66.0537 14.9874 64.8949 14.9874Z" fill="#6366F1" fill-opacity="0.16"/>
<path d="M64.8949 22.364C61.9484 22.364 59.5508 19.987 59.5508 17.0658C59.5508 14.1447 61.9484 11.7677 64.8949 11.7677C67.8415 11.7677 70.2391 14.1447 70.2391 17.0658C70.2391 19.987 67.8415 22.364 64.8949 22.364ZM64.8949 14.9874C63.74 14.9874 62.7984 15.9208 62.7984 17.0658C62.7984 18.2109 63.74 19.1443 64.8949 19.1443C66.0499 19.1443 66.9914 18.2109 66.9914 17.0658C66.9914 15.9208 66.0537 14.9874 64.8949 14.9874Z" fill="#6366F1" fill-opacity="0.16"/>
<path d="M53.3991 27.7679C53.1056 27.7679 52.8083 27.6886 52.5415 27.5223C51.7829 27.0499 51.5504 26.0598 52.0269 25.304C53.9976 22.1788 56.7078 19.4882 59.8563 17.5307C60.6149 17.0583 61.6174 17.285 62.0939 18.0408C62.5703 18.7929 62.3416 19.7867 61.5793 20.2591C58.8424 21.9596 56.4905 24.295 54.779 27.0121C54.4664 27.4996 53.9404 27.7679 53.3991 27.7679Z" fill="#6366F1" fill-opacity="0.16"/>
<path d="M38.815 88.0955C37.8049 88.0955 36.7948 88.001 35.7923 87.8121C28.7137 86.4516 23.0341 80.307 22.2908 73.1988C22.1994 72.3145 22.8474 71.5247 23.7393 71.4302C24.6313 71.3357 25.428 71.9819 25.5232 72.8662C26.1141 78.5082 30.795 83.5758 36.4136 84.6528C41.9216 85.7109 48.0396 82.8767 50.7955 78.0358C50.948 74.1397 51.0014 35.0764 51.0014 8.98637C51.0014 8.09831 51.7294 7.37653 52.6252 7.37653C53.521 7.37653 54.249 8.09831 54.249 8.98637C54.249 77.9943 54.0317 78.6821 53.9403 78.9768C53.9098 79.0713 53.8716 79.162 53.8259 79.2527C50.9289 84.6717 44.933 88.0955 38.815 88.0955Z" fill="#6366F1" fill-opacity="0.16"/>
<path d="M19.8586 83.9727C17.3428 83.9727 14.827 83.2509 12.7419 81.8073C8.86915 79.1242 6.89082 74.2872 7.55408 69.2838C5.18313 67.2583 3.4945 65.3045 2.28235 63.1959C0.574658 60.2256 -0.073349 56.9757 0.456492 54.0356C1.074 50.5968 3.42589 47.6265 6.44865 46.4625C7.28344 46.1413 8.22495 46.5532 8.54896 47.3808C8.87296 48.2084 8.45747 49.1418 7.62269 49.4631C5.63674 50.2264 4.07771 52.2444 3.6546 54.5987C3.25817 56.798 3.77276 59.2846 5.1069 61.5974C6.239 63.5624 7.90095 65.4066 10.3405 67.3943C10.8017 67.7722 11.019 68.3693 10.9008 68.9512C10.1004 72.9721 11.587 77.076 14.6059 79.1658C17.5677 81.2178 21.9055 81.2707 24.9207 79.2905C25.6678 78.7993 26.6741 79.0033 27.1696 79.744C27.6652 80.4847 27.4631 81.4823 26.7122 81.9736C24.6843 83.3076 22.2715 83.9727 19.8586 83.9727Z" fill="#6366F1" fill-opacity="0.16"/>
<path d="M28.9763 21.6497C28.3703 21.6497 27.7871 21.3096 27.5088 20.7314C25.3284 16.1778 25.763 10.5395 28.618 6.36755C31.4693 2.19556 36.5847 -0.291008 41.662 0.0264259C46.7355 0.347639 51.4965 3.46152 53.7912 7.9585C54.1953 8.75208 53.8751 9.7195 53.0746 10.1201C52.2741 10.5206 51.2983 10.2032 50.8942 9.40963C49.1065 5.91029 45.4014 3.48797 41.4524 3.23856C37.511 2.98914 33.52 4.92398 31.2977 8.1739C29.0793 11.42 28.74 15.8074 30.4363 19.3521C30.8213 20.157 30.4744 21.1169 29.6663 21.4948C29.4452 21.6006 29.2089 21.6497 28.9763 21.6497Z" fill="#6366F1" fill-opacity="0.16"/>
<path d="M23.1674 35.5035C22.9692 35.5035 22.7672 35.4657 22.569 35.3901C16.4015 32.964 12.5134 25.9956 13.7218 19.5298C14.9301 13.0639 21.0671 7.93208 27.6997 7.84894C28.5916 7.84894 29.3311 8.54805 29.3425 9.43989C29.354 10.3279 28.6374 11.0573 27.7378 11.0686C22.6871 11.1291 17.8271 15.1877 16.9122 20.1155C15.9936 25.0395 19.0697 30.553 23.7659 32.3972C24.6007 32.726 25.0085 33.6594 24.6769 34.487C24.4253 35.118 23.8116 35.5035 23.1674 35.5035Z" fill="#6366F1" fill-opacity="0.16"/>
<path d="M10.3784 52.2066C9.94765 52.2066 9.51692 52.0365 9.20054 51.704C5.48784 47.8192 3.87163 42.1469 4.98468 36.9093C6.09773 31.6716 9.87904 27.1293 14.8573 25.0546C15.6844 24.7107 16.6374 25.0962 16.9842 25.9162C17.3311 26.7363 16.9423 27.681 16.1152 28.0249C12.1051 29.6952 9.0595 33.3532 8.16373 37.5744C7.26795 41.7955 8.56778 46.3605 11.56 49.4933C12.1776 50.1395 12.1471 51.156 11.4991 51.7682C11.1827 52.0592 10.7786 52.2066 10.3784 52.2066Z" fill="#6366F1" fill-opacity="0.16"/>
<path d="M51.9465 52.7621C51.855 52.7621 51.7674 52.7545 51.6721 52.7394C44.281 51.4999 37.5074 46.6515 33.9929 40.0912C33.5736 39.3052 33.8747 38.3302 34.6638 37.9145C35.4566 37.4988 36.4401 37.7974 36.8594 38.5796C39.9127 44.2783 45.7943 48.4881 52.2133 49.5651C53.0977 49.7125 53.6923 50.5438 53.5437 51.4206C53.4103 52.2066 52.7241 52.7621 51.9465 52.7621Z" fill="#6366F1" fill-opacity="0.16"/>
<path d="M52.5488 77.2952C51.8551 77.2952 51.2147 76.8531 50.9974 76.1615C49.9759 72.8889 47.1361 70.6442 44.929 69.3367C42.844 68.101 40.5912 67.2016 38.2088 66.2493C37.2978 65.8865 36.3906 65.5237 35.491 65.142C32.5407 63.8874 28.8127 62.0546 26.1635 58.9596C25.5841 58.2832 25.668 57.2666 26.3503 56.6922C27.0326 56.1178 28.058 56.201 28.6374 56.8774C30.8482 59.4584 34.1454 61.0683 36.7679 62.1831C37.6447 62.5572 38.5328 62.9086 39.421 63.2639C41.8148 64.22 44.2924 65.2063 46.5986 66.5743C49.2897 68.1728 52.7737 70.9654 54.1002 75.213C54.3632 76.0633 53.8868 76.9627 53.0291 77.2272C52.869 77.2725 52.7051 77.2952 52.5488 77.2952Z" fill="#6366F1" fill-opacity="0.16"/>
<path d="M33.7494 40.9452C30.8029 40.9452 28.4053 38.5682 28.4053 35.6471C28.4053 32.7259 30.8029 30.3489 33.7494 30.3489C36.6959 30.3489 39.0936 32.7259 39.0936 35.6471C39.0936 38.5682 36.6959 40.9452 33.7494 40.9452ZM33.7494 33.5686C32.5944 33.5686 31.6529 34.502 31.6529 35.6471C31.6529 36.7921 32.5944 37.7255 33.7494 37.7255C34.9044 37.7255 35.8459 36.7921 35.8459 35.6471C35.8459 34.502 34.9082 33.5686 33.7494 33.5686Z" fill="#6366F1" fill-opacity="0.16"/>
<path d="M40.6596 22.0314C37.7131 22.0314 35.3154 19.6545 35.3154 16.7333C35.3154 13.8122 37.7131 11.4352 40.6596 11.4352C43.6061 11.4352 46.0037 13.8122 46.0037 16.7333C46.0037 19.6545 43.6061 22.0314 40.6596 22.0314ZM40.6596 14.6549C39.5046 14.6549 38.5631 15.5883 38.5631 16.7333C38.5631 17.8783 39.5046 18.8117 40.6596 18.8117C41.8146 18.8117 42.7561 17.8783 42.7561 16.7333C42.7561 15.5883 41.8146 14.6549 40.6596 14.6549Z" fill="#6366F1" fill-opacity="0.16"/>
<path d="M40.6596 22.0314C37.7131 22.0314 35.3154 19.6545 35.3154 16.7333C35.3154 13.8122 37.7131 11.4352 40.6596 11.4352C43.6061 11.4352 46.0037 13.8122 46.0037 16.7333C46.0037 19.6545 43.6061 22.0314 40.6596 22.0314ZM40.6596 14.6549C39.5046 14.6549 38.5631 15.5883 38.5631 16.7333C38.5631 17.8783 39.5046 18.8117 40.6596 18.8117C41.8146 18.8117 42.7561 17.8783 42.7561 16.7333C42.7561 15.5883 41.8146 14.6549 40.6596 14.6549Z" fill="#6366F1" fill-opacity="0.16"/>
<path d="M52.1562 27.4354C51.6149 27.4354 51.0851 27.167 50.7763 26.6796C49.0648 23.9625 46.7129 21.6271 43.9761 19.9265C43.2175 19.4542 42.985 18.4603 43.4615 17.7083C43.9379 16.9562 44.9404 16.7257 45.699 17.1981C48.8514 19.1556 51.5577 21.8462 53.5284 24.9715C54.0049 25.7273 53.7724 26.7173 53.0139 27.1897C52.747 27.356 52.4497 27.4354 52.1562 27.4354Z" fill="#6366F1" fill-opacity="0.16"/>
<path d="M88.4181 107.655H73.3462C69.1418 107.655 65.7188 104.266 65.7188 100.094V87.2981C65.7188 86.4101 66.4468 85.6883 67.3426 85.6883C68.2384 85.6883 68.9664 86.4101 68.9664 87.2981V100.094C68.9664 102.486 70.9295 104.436 73.3462 104.436H88.4181C89.3138 104.436 90.0419 105.158 90.0419 106.046C90.0419 106.934 89.3138 107.655 88.4181 107.655Z" fill="#6366F1" fill-opacity="0.16"/>
<path d="M12.2621 110.856C9.31559 110.856 6.91797 108.479 6.91797 105.558C6.91797 102.637 9.31559 100.26 12.2621 100.26C15.2086 100.26 17.6063 102.637 17.6063 105.558C17.6063 108.479 15.2086 110.856 12.2621 110.856ZM12.2621 103.476C11.1071 103.476 10.1656 104.409 10.1656 105.554C10.1656 106.699 11.1071 107.633 12.2621 107.633C13.4171 107.633 14.3586 106.699 14.3586 105.554C14.3586 104.409 13.4171 103.476 12.2621 103.476Z" fill="#6366F1" fill-opacity="0.16"/>
<path d="M31.8969 107.655H16.825C15.9292 107.655 15.2012 106.934 15.2012 106.046C15.2012 105.158 15.9292 104.436 16.825 104.436H31.8969C34.3098 104.436 36.2766 102.49 36.2766 100.094V87.2981C36.2766 86.4101 37.0047 85.6883 37.9005 85.6883C38.7962 85.6883 39.5243 86.4101 39.5243 87.2981V100.094C39.5243 104.266 36.1013 107.655 31.8969 107.655Z" fill="#6366F1" fill-opacity="0.16"/>
<path d="M53.2078 110.826C52.312 110.826 51.584 110.104 51.584 109.216V90.6199C51.584 89.7318 52.312 89.01 53.2078 89.01C54.1036 89.01 54.8316 89.7318 54.8316 90.6199V109.216C54.8316 110.108 54.1036 110.826 53.2078 110.826Z" fill="#6366F1" fill-opacity="0.16"/>
</g>
<defs>
<clipPath id="clip0_284_6230">
<rect width="105" height="119" fill="white" transform="translate(0.277344)"/>
</clipPath>
</defs>
</svg>
