<svg width="122" height="118" viewBox="0 0 122 118" fill="none" xmlns="http://www.w3.org/2000/svg">
<g clip-path="url(#clip0_284_6216)">
<path d="M74.2816 89.8747H48.5433C48.123 89.8747 47.7204 89.6993 47.4343 89.3907C47.1483 89.0821 47.007 88.6718 47.0423 88.2545C47.4237 83.7797 45.7815 79.7503 43.1999 75.0791C42.4053 73.6413 41.5365 72.1964 40.6925 70.7972C38.9161 67.8514 37.0797 64.8039 35.7553 61.5109C31.9341 51.9897 33.0783 40.7887 38.6724 32.9683C43.5849 26.1018 52.0855 21.9987 61.4089 21.9952C61.4124 21.9952 61.416 21.9952 61.4195 21.9952C70.7288 21.9952 79.2224 26.0983 84.1454 32.9683C89.8242 40.9044 90.9438 51.8424 87.0661 61.5109C85.7417 64.8039 83.9053 67.8514 82.1289 70.8007C81.2883 72.1964 80.416 73.6448 79.6214 75.0791C77.0398 79.7503 75.3976 83.7797 75.7755 88.258C75.8108 88.6753 75.6696 89.0856 75.3835 89.3942C75.1045 89.6993 74.7019 89.8747 74.2816 89.8747ZM50.1078 86.8868H72.7207C72.756 82.0157 74.7725 77.6532 76.9904 73.6413C77.8097 72.1544 78.6961 70.685 79.5543 69.2647C81.3484 66.2873 83.0436 63.4748 84.2796 60.4028C87.73 51.7968 86.72 41.7075 81.7015 34.6937C77.3435 28.6092 69.7647 24.9761 61.4266 24.9761C61.423 24.9761 61.4195 24.9761 61.416 24.9761C53.0637 24.9796 45.4814 28.6127 41.1339 34.6937C36.1155 41.7075 35.102 51.8003 38.5559 60.3992C39.7884 63.4713 41.4836 66.2838 43.2776 69.2612C44.1358 70.6815 45.0222 72.1544 45.8416 73.6378C48.0594 77.6567 50.076 82.0192 50.1078 86.8868Z" fill="#6366F1" fill-opacity="0.17"/>
<path d="M66.3541 88.9314C65.5241 88.9314 64.8496 88.2616 64.8496 87.4374C64.8496 65.1511 64.952 64.6216 64.9838 64.4497C64.9979 64.3691 65.0191 64.2919 65.0474 64.2148C65.8279 62.0861 67.1699 60.1924 68.9286 58.73C69.4831 58.2671 70.2954 58.2636 70.8533 58.723C71.489 59.2455 71.595 60.1924 71.0723 60.8271C70.9628 60.9604 70.8357 61.0726 70.6944 61.1568C69.476 62.2159 68.5295 63.552 67.9468 65.0424C67.8797 66.7713 67.8585 79.1892 67.8585 87.4339C67.8585 88.2616 67.1875 88.9314 66.3541 88.9314Z" fill="#6366F1" fill-opacity="0.17"/>
<path d="M71.3862 61.0831C67.8546 61.0831 64.9834 58.232 64.9834 54.7251C64.9834 51.2182 67.8546 48.3671 71.3862 48.3671C74.9178 48.3671 77.789 51.2182 77.789 54.7251C77.789 58.2285 74.9178 61.0831 71.3862 61.0831ZM71.3862 51.3549C69.5144 51.3549 67.9923 52.8664 67.9923 54.7251C67.9923 56.5837 69.5144 58.0952 71.3862 58.0952C73.258 58.0952 74.7801 56.5837 74.7801 54.7251C74.7801 52.8664 73.258 51.3549 71.3862 51.3549Z" fill="#6366F1" fill-opacity="0.17"/>
<path d="M56.568 88.6157C55.738 88.6157 55.0635 87.9459 55.0635 87.1218C55.0635 78.877 55.0388 66.4556 54.9752 64.7302C54.389 63.2328 53.439 61.8897 52.21 60.8271C52.0758 60.7429 51.9557 60.6377 51.8497 60.5114C51.3271 59.8767 51.4048 58.9509 52.0404 58.4283C52.0475 58.4213 52.0722 58.4038 52.0793 58.3968C52.6373 57.9549 53.4425 57.9584 53.9899 58.4143C55.7451 59.8767 57.0871 61.7739 57.8711 63.8991C57.8994 63.9763 57.9206 64.0534 57.9347 64.1341C57.9665 64.3059 58.0689 64.8354 58.0689 87.1253C58.0724 87.9494 57.3979 88.6157 56.568 88.6157Z" fill="#6366F1" fill-opacity="0.17"/>
<path d="M51.5346 60.7675C48.003 60.7675 45.1318 57.9163 45.1318 54.4094C45.1318 50.9026 48.003 48.0515 51.5346 48.0515C55.0663 48.0515 57.9375 50.9026 57.9375 54.4094C57.9375 57.9163 55.0663 60.7675 51.5346 60.7675ZM51.5346 51.0393C49.6629 51.0393 48.1408 52.5508 48.1408 54.4094C48.1408 56.2681 49.6629 57.7796 51.5346 57.7796C53.4064 57.7796 54.9285 56.2681 54.9285 54.4094C54.9285 52.5508 53.4064 51.0393 51.5346 51.0393Z" fill="#6366F1" fill-opacity="0.17"/>
<path d="M74.8934 98.2808H47.859C47.029 98.2808 46.3545 97.6109 46.3545 96.7868V89.0155C46.3545 88.1914 47.029 87.5216 47.859 87.5216H74.8934C75.7234 87.5216 76.3979 88.1914 76.3979 89.0155V96.7868C76.3979 97.6109 75.7269 98.2808 74.8934 98.2808ZM49.3634 95.2929H73.389V90.5095H49.3634V95.2929Z" fill="#6366F1" fill-opacity="0.17"/>
<path d="M74.8934 105.498H47.859C47.029 105.498 46.3545 104.828 46.3545 104.004V96.7833C46.3545 95.9592 47.029 95.2894 47.859 95.2894H74.8934C75.7234 95.2894 76.3979 95.9592 76.3979 96.7833V104.004C76.3979 104.832 75.7269 105.498 74.8934 105.498ZM49.3634 102.51H73.389V98.2772H49.3634V102.51Z" fill="#6366F1" fill-opacity="0.17"/>
<path d="M26.4393 109.233C25.2386 109.233 24.0414 108.777 23.1444 107.886L12.4754 97.2953C10.8508 95.6821 10.6636 93.087 12.0374 91.2599L17.7551 83.65C15.901 80.4166 14.4319 76.9974 13.383 73.4554L4.08072 72.1894C1.78518 71.8843 0.0546875 69.917 0.0546875 67.6129V52.6385C0.0546875 50.359 1.76752 48.3916 4.03834 48.062L13.0828 46.7504C14.0964 43.0436 15.5514 39.4701 17.4231 36.1035L11.9845 28.9915C10.5824 27.1539 10.7661 24.5448 12.4083 22.9211L23.0667 12.3337C24.6983 10.7206 27.3116 10.5347 29.1481 11.8989L36.2607 17.1663C39.6864 15.234 43.3416 13.719 47.1487 12.6599L48.3424 3.99435C48.6602 1.71487 50.645 0 52.9582 0H68.0417C70.3372 0 72.3185 1.70084 72.6505 3.95578L73.936 12.716C77.6971 13.7786 81.3205 15.2901 84.7286 17.2224L91.8553 11.8498C93.6988 10.4576 96.3264 10.6364 97.965 12.2636L108.63 22.8544C110.255 24.4676 110.442 27.0627 109.068 28.8863L103.545 36.2438C105.364 39.5508 106.791 43.0577 107.79 46.6943L117.029 47.9533C119.324 48.2619 121.055 50.2293 121.055 52.5298V67.5077C121.055 69.7872 119.342 71.7546 117.071 72.0842L107.504 73.473C106.469 76.9448 105.039 80.3009 103.241 83.4676L109.114 91.1582C110.516 92.9888 110.336 95.598 108.698 97.2252L98.0321 107.816C96.4076 109.429 93.7942 109.615 91.9578 108.251L83.9975 102.363C80.1269 104.467 76.0055 106.038 71.7287 107.037C71.2837 107.143 70.8105 107.037 70.4503 106.753C70.09 106.469 69.8781 106.038 69.8781 105.582V104.004C69.8781 103.18 70.5527 102.51 71.3826 102.51H73.3886V90.5059H49.363V102.51H51.037C51.8669 102.51 52.5415 103.18 52.5415 104.004V105.912C52.5415 106.361 52.3402 106.785 51.9905 107.065C51.6409 107.35 51.1818 107.462 50.7403 107.374C45.9374 106.417 41.3286 104.754 37.0271 102.433L29.2505 108.296C28.4206 108.924 27.4282 109.233 26.4393 109.233ZM26.3652 13.968C25.9379 13.968 25.5141 14.1293 25.1927 14.4449L14.5343 25.0357C13.9516 25.6109 13.888 26.5367 14.386 27.1854L20.4215 35.0795C20.7888 35.5599 20.8276 36.2087 20.5239 36.7312C18.3837 40.3994 16.7769 44.3412 15.7492 48.4478C15.6008 49.0369 15.1099 49.4788 14.506 49.5665L4.47273 51.0218C3.65693 51.1411 3.06362 51.8214 3.06362 52.642V67.6199C3.06362 68.4335 3.67459 69.1279 4.48333 69.2366L14.7638 70.6359C15.3607 70.7165 15.8516 71.1444 16.0105 71.723C17.0876 75.6613 18.7157 79.4522 20.8453 82.9907C21.1561 83.5097 21.1243 84.1655 20.7605 84.6494L14.4495 93.0555C13.9622 93.7007 14.0293 94.6195 14.6049 95.1876L25.2739 105.778C25.8531 106.354 26.7854 106.417 27.4388 105.922L35.9959 99.4696C36.4762 99.1084 37.126 99.0663 37.6522 99.3609C40.4245 100.932 43.3381 102.205 46.3576 103.166V89.0155C46.3576 88.4719 46.6507 87.9985 47.0851 87.7355C47.3006 83.4676 45.6901 79.5714 43.2074 75.0791C42.4128 73.6413 41.544 72.1964 40.7 70.7972C38.9236 67.8514 37.0871 64.8039 35.7628 61.5109C31.9416 51.9897 33.0858 40.7887 38.6799 32.9683C43.5924 26.1018 52.093 21.9988 61.4164 21.9952C61.4199 21.9952 61.4235 21.9952 61.427 21.9952C70.7363 21.9952 79.2298 26.0983 84.1529 32.9683C89.8317 40.9044 90.9512 51.8424 87.0735 61.5109C85.7492 64.8039 83.9128 67.8514 82.1364 70.8007C81.2958 72.1964 80.4235 73.6448 79.6289 75.0791C77.1391 79.5855 75.5252 83.4957 75.7512 87.7846C76.1432 88.0546 76.401 88.5035 76.401 89.012V102.524C78.8025 101.644 81.1334 100.56 83.3689 99.2872C83.888 98.9926 84.5343 99.0312 85.0146 99.3854L93.7589 105.852C94.4122 106.336 95.334 106.269 95.9096 105.701L106.575 95.1105C107.154 94.5354 107.218 93.6096 106.723 92.9643L100.243 84.4846C99.8721 84.0007 99.8368 83.3449 100.148 82.8223C102.217 79.347 103.81 75.6192 104.876 71.7406C105.035 71.1689 105.519 70.7411 106.109 70.6569L116.64 69.1279C117.46 69.0087 118.053 68.3283 118.053 67.5077V52.5333C118.053 51.7197 117.442 51.0253 116.633 50.9166H116.63L106.391 49.5209C105.784 49.4367 105.286 48.9948 105.138 48.4057C104.117 44.3692 102.542 40.4906 100.458 36.875C100.162 36.3595 100.201 35.7177 100.557 35.2408L106.663 27.1048C107.151 26.456 107.084 25.5407 106.512 24.9726L95.839 14.3783C95.2598 13.8031 94.331 13.74 93.6777 14.231L85.7492 20.2067C85.2583 20.575 84.5944 20.61 84.0681 20.2979C80.36 18.0921 76.3692 16.4263 72.209 15.3427C71.6263 15.1919 71.1884 14.7079 71.1001 14.1117L69.6698 4.38362C69.5532 3.58405 68.8504 2.98437 68.0382 2.98437H52.9582C52.1389 2.98437 51.4361 3.59106 51.3231 4.39765L49.9952 14.0451C49.914 14.6448 49.4725 15.1393 48.8792 15.2901C44.6695 16.3702 40.6505 18.0325 36.9282 20.2348C36.4055 20.5434 35.7451 20.5118 35.2578 20.1506L27.347 14.2906C27.0574 14.0767 26.7113 13.968 26.3652 13.968ZM50.1082 86.8868H72.7211C72.7564 82.0158 74.7729 77.6532 76.9908 73.6413C77.8101 72.1544 78.6966 70.685 79.5547 69.2647C81.3488 66.2873 83.044 63.4748 84.28 60.4028C87.7304 51.7968 86.7204 41.7075 81.702 34.6937C77.344 28.6092 69.7651 24.9761 61.427 24.9761C61.4235 24.9761 61.4199 24.9761 61.4164 24.9761C53.0641 24.9796 45.4818 28.6128 41.1344 34.6937C36.116 41.7075 35.1024 51.8003 38.5563 60.3993C39.7888 63.4713 41.484 66.2838 43.2781 69.2612C44.1362 70.6815 45.0227 72.1544 45.842 73.6378C48.0599 77.6567 50.0764 82.0193 50.1082 86.8868Z" fill="#6366F1" fill-opacity="0.17"/>
<path d="M61.2116 118C58.0897 118 55.1585 116.794 52.9547 114.605C50.751 112.417 49.5361 109.503 49.5361 106.406V104.007C49.5361 103.183 50.2107 102.514 51.0406 102.514H71.3862C72.2161 102.514 72.8907 103.183 72.8907 104.007V106.406C72.8871 112.799 67.6498 118 61.2116 118ZM52.5415 105.498V106.403C52.5415 108.703 53.4421 110.867 55.0808 112.491C56.7159 114.114 58.8949 115.012 61.2116 115.012C65.9934 115.012 69.8817 111.151 69.8817 106.403V105.498H52.5415Z" fill="#6366F1" fill-opacity="0.17"/>
<path d="M74.8934 105.498H47.859C47.029 105.498 46.3545 104.828 46.3545 104.004V89.012C46.3545 88.1879 47.029 87.5181 47.859 87.5181H74.8934C75.7234 87.5181 76.3979 88.1879 76.3979 89.012V104.004C76.3979 104.832 75.7269 105.498 74.8934 105.498ZM49.3634 102.51H73.389V90.5059H49.3634V102.51Z" fill="#6366F1" fill-opacity="0.17"/>
<path d="M74.2816 89.8747H48.5433C48.123 89.8747 47.7204 89.6993 47.4343 89.3907C47.1483 89.0821 47.007 88.6718 47.0423 88.2545C47.4237 83.7797 45.7815 79.7503 43.1999 75.0791C42.4053 73.6413 41.5365 72.1964 40.6925 70.7972C38.9161 67.8514 37.0797 64.8039 35.7553 61.5109C31.9341 51.9897 33.0783 40.7887 38.6724 32.9683C43.5849 26.1018 52.0855 21.9987 61.4089 21.9952C61.4124 21.9952 61.416 21.9952 61.4195 21.9952C70.7288 21.9952 79.2224 26.0983 84.1454 32.9683C89.8242 40.9044 90.9438 51.8424 87.0661 61.5109C85.7417 64.8039 83.9053 67.8514 82.1289 70.8007C81.2883 72.1964 80.416 73.6448 79.6214 75.0791C77.0398 79.7503 75.3976 83.7797 75.7755 88.258C75.8108 88.6753 75.6696 89.0856 75.3835 89.3942C75.1045 89.6993 74.7019 89.8747 74.2816 89.8747ZM50.1078 86.8868H72.7207C72.756 82.0157 74.7725 77.6532 76.9904 73.6413C77.8097 72.1544 78.6961 70.685 79.5543 69.2647C81.3484 66.2873 83.0436 63.4748 84.2796 60.4028C87.73 51.7968 86.72 41.7075 81.7015 34.6937C77.3435 28.6092 69.7647 24.9761 61.4266 24.9761C61.423 24.9761 61.4195 24.9761 61.416 24.9761C53.0637 24.9796 45.4814 28.6127 41.1339 34.6937C36.1155 41.7075 35.102 51.8003 38.5559 60.3992C39.7884 63.4713 41.4836 66.2838 43.2776 69.2612C44.1358 70.6815 45.0222 72.1544 45.8416 73.6378C48.0594 77.6567 50.076 82.0192 50.1078 86.8868Z" fill="#6366F1" fill-opacity="0.17"/>
</g>
<defs>
<clipPath id="clip0_284_6216">
<rect width="121" height="118" fill="white" transform="translate(0.0546875)"/>
</clipPath>
</defs>
</svg>
