<svg width="110" height="120" viewBox="0 0 110 120" fill="none" xmlns="http://www.w3.org/2000/svg">
<g clip-path="url(#clip0_284_6350)">
<path d="M55.1236 75.2682C54.6876 75.2682 54.255 75.0753 53.9643 74.7067C53.4625 74.0695 53.5733 73.1463 54.2135 72.6468C60.0204 68.1068 63.0001 60.0878 61.7957 52.2203C60.806 45.7341 57.1758 39.5717 51.5695 34.8594C50.4898 33.9501 49.0986 33.4781 47.6521 33.5402C45.0047 33.6435 40.9454 33.8674 38.0073 34.0362C36.1939 34.1395 34.5155 35.1074 33.5188 36.6196L31.6293 39.4856C31.1829 40.1641 30.2693 40.3502 29.5875 39.9058C28.9058 39.4614 28.7189 38.5521 29.1653 37.8735L31.0548 35.0076C32.5602 32.7238 35.0969 31.2633 37.8377 31.1048C40.7896 30.936 44.8697 30.7087 47.5379 30.6053C49.7285 30.5192 51.8291 31.2357 53.4729 32.617C59.6225 37.7839 63.6126 44.5905 64.7096 51.7794C66.0696 60.6768 62.6609 69.774 56.0338 74.9547C55.7638 75.1683 55.442 75.2682 55.1236 75.2682Z" fill="#6366F1" fill-opacity="0.16"/>
<path d="M25.3027 107.575C23.3163 107.575 21.3195 107.372 19.3539 106.842C14.2563 105.464 10.3977 101.926 9.28337 97.6032C9.0169 96.6869 9.1311 87.5587 9.29375 79.4294C6.41449 79.6292 3.04728 79.5258 1.3308 76.8459C0.14034 74.9893 0.230317 72.4954 1.59381 69.6329C2.52473 67.6832 3.72557 65.8783 4.88489 64.1353C6.63944 61.5002 8.29709 59.0131 8.98921 56.1713C9.54984 53.86 9.44256 51.4384 9.32836 48.8722C9.29029 48.0421 9.25222 47.1843 9.23838 46.3301C9.0342 32.8479 15.5368 19.3209 26.2129 11.0262C36.889 2.7316 51.6521 -0.261766 64.7402 3.21729C65.5258 3.42742 65.993 4.23001 65.7853 5.01194C65.5742 5.79387 64.7645 6.25889 63.9824 6.05221C51.7697 2.80738 37.9929 5.60097 28.0297 13.341C18.063 21.0811 11.9965 33.7021 12.1903 46.2819C12.2042 47.0913 12.2388 47.9284 12.2768 48.7379C12.3945 51.3971 12.5156 54.1425 11.8546 56.8603C11.0414 60.2015 9.16225 63.0261 7.34195 65.7543C6.18609 67.4903 5.09599 69.1265 4.25505 70.8902C3.73941 71.9752 2.99191 73.9869 3.81209 75.2648C4.85374 76.8872 7.80913 76.6255 10.415 76.3912L10.6676 76.3671C11.0829 76.3292 11.4982 76.4705 11.8062 76.7564C12.1142 77.0423 12.2838 77.4418 12.2734 77.8586C12.1315 84.5791 11.9758 95.6432 12.1453 96.9039C13.0243 100.166 16.1389 102.932 20.1221 104.007C24.0153 105.057 28.227 104.613 32.2032 103.969C41.585 102.457 48.4752 100.014 53.8876 96.2839C60.6601 91.613 64.8821 84.71 65.1763 77.8173C65.2109 77.0078 65.9065 76.3774 66.7128 76.4153C67.5261 76.4498 68.1559 77.1353 68.1213 77.9447C67.7856 85.7502 63.093 93.511 55.5661 98.6985C49.7764 102.687 42.5021 105.285 32.6739 106.869C30.2826 107.255 27.7978 107.575 25.3027 107.575ZM12.128 96.8316C12.1349 96.8522 12.1384 96.8763 12.1453 96.897C12.1419 96.8695 12.1349 96.8488 12.128 96.8316Z" fill="#6366F1" fill-opacity="0.16"/>
<path d="M18.7446 89.4257C16.284 89.4257 13.8581 89.1949 11.2038 88.9159C10.394 88.8298 9.80572 88.1098 9.89223 87.3038C9.97875 86.4977 10.7055 85.9122 11.5118 85.9983C14.3565 86.2945 16.9243 86.5425 19.4921 86.484C20.4264 86.4633 21.4023 86.4013 22.2121 86.0809C22.9285 85.7985 23.4614 85.3094 23.6345 84.7754C23.8871 84.0038 24.7176 83.5836 25.4928 83.8351C26.268 84.0865 26.6902 84.9132 26.4376 85.6848C25.9877 87.0592 24.8457 88.1994 23.2988 88.8091C22.0529 89.3017 20.7621 89.3947 19.5509 89.4188C19.2844 89.4222 19.0145 89.4257 18.7446 89.4257Z" fill="#6366F1" fill-opacity="0.16"/>
<path d="M69.298 116.896C68.4986 116.896 67.8411 116.259 67.8238 115.457L67.4466 95.936C67.3877 92.8909 66.007 90.0285 63.6572 88.0754C63.0308 87.5552 62.9477 86.6321 63.4703 86.0086C63.9929 85.3851 64.9203 85.3025 65.5467 85.8226C68.5505 88.3199 70.3189 91.985 70.3916 95.8774L70.7688 115.398C70.7861 116.208 70.139 116.879 69.3222 116.893C69.3188 116.896 69.3084 116.896 69.298 116.896Z" fill="#6366F1" fill-opacity="0.16"/>
<path d="M79.787 70.4251C76.6932 70.4251 74.1738 67.8485 74.1738 64.6795C74.1738 61.5104 76.6932 58.9338 79.787 58.9338C82.8808 58.9338 85.4002 61.5104 85.4002 64.6795C85.4002 67.8485 82.8808 70.4251 79.787 70.4251ZM79.787 61.8721C78.3162 61.8721 77.1223 63.1328 77.1223 64.6829C77.1223 66.233 78.3162 67.4937 79.787 67.4937C81.2578 67.4937 82.4517 66.233 82.4517 64.6829C82.4517 63.1294 81.2578 61.8721 79.787 61.8721Z" fill="#6366F1" fill-opacity="0.16"/>
<path d="M97.8484 88.0616C94.2147 88.0616 91.2559 85.1199 91.2559 81.4996C91.2559 77.8793 94.2112 74.9376 97.8484 74.9376C101.486 74.9376 104.441 77.8793 104.441 81.4996C104.441 85.1199 101.486 88.0616 97.8484 88.0616ZM97.8484 77.8724C95.8378 77.8724 94.2043 79.4983 94.2043 81.4996C94.2043 83.5009 95.8378 85.1268 97.8484 85.1268C99.859 85.1268 101.492 83.5009 101.492 81.4996C101.492 79.4983 99.859 77.8724 97.8484 77.8724Z" fill="#6366F1" fill-opacity="0.16"/>
<path d="M102.347 53.2881C98.4024 53.2881 95.1943 50.095 95.1943 46.175C95.1943 42.255 98.4024 39.0619 102.347 39.0619C106.293 39.0619 109.501 42.2516 109.501 46.175C109.501 50.0984 106.293 53.2881 102.347 53.2881ZM102.347 41.9933C100.029 41.9933 98.1428 43.8671 98.1428 46.1716C98.1428 48.476 100.029 50.3499 102.347 50.3499C104.666 50.3499 106.552 48.476 106.552 46.1716C106.552 43.8671 104.666 41.9933 102.347 41.9933Z" fill="#6366F1" fill-opacity="0.16"/>
<path d="M72.5614 42.9922C69.3776 42.9922 66.7891 40.4156 66.7891 37.2466C66.7891 34.0775 69.3776 31.501 72.5614 31.501C75.7452 31.501 78.3338 34.0775 78.3338 37.2466C78.3338 40.4156 75.7452 42.9922 72.5614 42.9922ZM72.5614 34.4323C71.0041 34.4323 69.7375 35.6931 69.7375 37.2431C69.7375 38.7932 71.0041 40.054 72.5614 40.054C74.1187 40.054 75.3853 38.7932 75.3853 37.2431C75.3853 35.6965 74.1187 34.4323 72.5614 34.4323Z" fill="#6366F1" fill-opacity="0.16"/>
<path d="M98.586 27.8428C95.07 27.8428 92.208 24.9941 92.208 21.4944C92.208 17.9947 95.07 15.146 98.586 15.146C102.102 15.146 104.964 17.9947 104.964 21.4944C104.964 24.9941 102.105 27.8428 98.586 27.8428ZM98.586 18.0774C96.693 18.0774 95.1565 19.6102 95.1565 21.491C95.1565 23.3717 96.6965 24.9046 98.586 24.9046C100.475 24.9046 102.015 23.3717 102.015 21.491C102.015 19.6102 100.479 18.0774 98.586 18.0774Z" fill="#6366F1" fill-opacity="0.16"/>
<path d="M56.944 39.1136C56.4422 39.1136 55.9508 38.8587 55.674 38.3972C55.2587 37.7013 55.4871 36.7989 56.1861 36.3855C59.9029 34.1844 63.0555 30.8741 65.0627 27.0609C67.0699 23.2477 68.0112 18.7835 67.7136 14.4881C67.6582 13.6786 68.2707 12.9794 69.0805 12.9242C69.8903 12.8691 70.5963 13.4788 70.6516 14.2849C70.9908 19.1831 69.963 24.071 67.672 28.4216C65.3811 32.7721 61.9308 36.3958 57.6915 38.907C57.4597 39.0447 57.2001 39.1136 56.944 39.1136Z" fill="#6366F1" fill-opacity="0.16"/>
<path d="M91.5262 21.6046C89.5917 21.6046 87.6019 21.1809 85.6777 20.3438C81.0543 18.3391 77.739 14.4432 74.8113 11.0055C74.2853 10.3855 74.3614 9.4623 74.9843 8.93872C75.6073 8.41513 76.5347 8.49092 77.0607 9.11095C79.7773 12.3041 82.8608 15.9244 86.8544 17.657C88.9584 18.5699 91.2182 18.8764 93.2185 18.5285C94.0214 18.3907 94.7862 18.9212 94.9246 19.7204C95.0665 20.5195 94.5301 21.2773 93.7272 21.4186C93.0074 21.5426 92.2703 21.6046 91.5262 21.6046Z" fill="#6366F1" fill-opacity="0.16"/>
<path d="M76.9977 39.241C76.1844 39.241 75.5234 38.5866 75.5234 37.7736C75.5234 36.9641 76.181 36.3062 76.9977 36.3062C80.8978 36.3028 84.2996 34.329 86.466 32.6756C89.3383 30.4814 91.7539 27.6223 94.0898 24.8529C94.6124 24.2328 95.5433 24.1502 96.1662 24.6738C96.7891 25.1939 96.8687 26.1205 96.3462 26.7405C93.9099 29.6271 91.387 32.617 88.2621 35.0042C85.7324 36.9366 81.7249 39.2376 76.9977 39.241Z" fill="#6366F1" fill-opacity="0.16"/>
<path d="M63.0069 49.8366C62.211 49.8366 61.5535 49.2028 61.5327 48.4037C61.512 47.5942 62.1556 46.9225 62.9689 46.9018L95.5266 46.1164C96.3364 46.1027 97.0147 46.7365 97.0355 47.5459C97.0563 48.3554 96.4126 49.0271 95.5993 49.0478L63.0416 49.8332C63.0312 49.8366 63.0173 49.8366 63.0069 49.8366Z" fill="#6366F1" fill-opacity="0.16"/>
<path d="M94.4606 77.9413C94.1422 77.9413 93.8238 77.8379 93.5608 77.6347L82.5733 69.1816C81.9296 68.6856 81.8119 67.7659 82.3068 67.1252C82.8051 66.4845 83.7326 66.3674 84.3728 66.8599L95.0558 75.0788C95.2738 75.1684 95.478 75.3096 95.6372 75.5059C96.1563 76.1294 96.0663 77.056 95.44 77.5727L95.3984 77.6071C95.1285 77.831 94.7928 77.9413 94.4606 77.9413Z" fill="#6366F1" fill-opacity="0.16"/>
<path d="M84.7121 120C83.8988 120 83.2378 119.342 83.2378 118.533V109.397L77.9119 101.554C77.7458 101.309 77.6558 101.02 77.6593 100.724L77.8773 69.6225C77.8842 68.8164 78.5417 68.1654 79.3515 68.1654C79.355 68.1654 79.3585 68.1654 79.3619 68.1654C80.1752 68.1723 80.8327 68.8337 80.8258 69.6431L80.6112 100.29L85.9337 108.126C86.0998 108.367 86.1863 108.653 86.1863 108.946V118.529C86.1863 119.342 85.5288 120 84.7121 120Z" fill="#6366F1" fill-opacity="0.16"/>
<path d="M37.1384 64.8896H29.9056C25.2614 64.8896 21.4824 61.1281 21.4824 56.5054C21.4824 51.8827 25.2614 48.1212 29.9056 48.1212H37.1384C41.7826 48.1212 45.5616 51.8827 45.5616 56.5054C45.5616 61.1281 41.7826 64.8896 37.1384 64.8896ZM29.9091 51.056C26.8914 51.056 24.4344 53.5017 24.4344 56.5054C24.4344 59.5091 26.8914 61.9548 29.9091 61.9548H37.1418C40.1595 61.9548 42.6166 59.5091 42.6166 56.5054C42.6166 53.5017 40.1595 51.056 37.1418 51.056H29.9091Z" fill="#6366F1" fill-opacity="0.16"/>
<path d="M69.9941 15.1322C65.8033 15.1322 62.3945 11.7392 62.3945 7.56782C62.3945 3.39639 65.8033 0 69.9941 0C74.185 0 77.5937 3.39294 77.5937 7.56437C77.5937 11.7358 74.185 15.1322 69.9941 15.1322ZM69.9941 2.93481C67.4298 2.93481 65.343 5.01191 65.343 7.56437C65.343 10.1168 67.4298 12.1939 69.9941 12.1939C72.5584 12.1939 74.6452 10.1168 74.6452 7.56437C74.6452 5.01191 72.5584 2.93481 69.9941 2.93481Z" fill="#6366F1" fill-opacity="0.16"/>
</g>
<defs>
<clipPath id="clip0_284_6350">
<rect width="109" height="120" fill="white" transform="translate(0.5)"/>
</clipPath>
</defs>
</svg>
