<svg width="138" height="118" viewBox="0 0 138 118" fill="none" xmlns="http://www.w3.org/2000/svg">
<path d="M80.3453 61.5922H43.3442C42.4691 61.5922 41.7578 60.8788 41.7578 60.001V22.8291C41.7578 21.9513 42.4691 21.2379 43.3442 21.2379H80.3453C81.2204 21.2379 81.9317 21.9513 81.9317 22.8291V60.001C81.9317 60.8788 81.2204 61.5922 80.3453 61.5922ZM44.9306 58.4099H78.7589V24.4202H44.9306V58.4099Z" fill="#6366F1" fill-opacity="0.16"/>
<path d="M86.5383 33.9934H81.0083C80.1332 33.9934 79.4219 33.28 79.4219 32.4022C79.4219 31.5244 80.1332 30.811 81.0083 30.811H86.5383C87.4134 30.811 88.1247 31.5244 88.1247 32.4022C88.1247 33.28 87.4134 33.9934 86.5383 33.9934Z" fill="#6366F1" fill-opacity="0.16"/>
<path d="M86.0697 46.0279H80.9604C80.0853 46.0279 79.374 45.3145 79.374 44.4367C79.374 43.559 80.0853 42.8456 80.9604 42.8456H86.0697C86.9448 42.8456 87.6561 43.559 87.6561 44.4367C87.6561 45.3145 86.9485 46.0279 86.0697 46.0279Z" fill="#6366F1" fill-opacity="0.16"/>
<path d="M41.9704 33.6086H35.4907C34.6156 33.6086 33.9043 32.8952 33.9043 32.0174C33.9043 31.1397 34.6156 30.4263 35.4907 30.4263H41.9704C42.8455 30.4263 43.5567 31.1397 43.5567 32.0174C43.5567 32.8952 42.8455 33.6086 41.9704 33.6086Z" fill="#6366F1" fill-opacity="0.16"/>
<path d="M42.462 45.7851H35.2934C34.4183 45.7851 33.707 45.0717 33.707 44.1939C33.707 43.3162 34.4183 42.6028 35.2934 42.6028H42.462C43.3371 42.6028 44.0484 43.3162 44.0484 44.1939C44.0484 45.0717 43.3371 45.7851 42.462 45.7851Z" fill="#6366F1" fill-opacity="0.16"/>
<path d="M54.4233 23.3856C53.5482 23.3856 52.8369 22.6722 52.8369 21.7944V15.8518C52.8369 14.9741 53.5482 14.2607 54.4233 14.2607C55.2984 14.2607 56.0097 14.9741 56.0097 15.8518V21.7944C56.0097 22.6722 55.2984 23.3856 54.4233 23.3856Z" fill="#6366F1" fill-opacity="0.16"/>
<path d="M66.4253 23.3669C65.5501 23.3669 64.8389 22.6535 64.8389 21.7758V15.4485C64.8389 14.5707 65.5501 13.8573 66.4253 13.8573C67.3004 13.8573 68.0117 14.5707 68.0117 15.4485V21.7758C68.0117 22.6535 67.3004 23.3669 66.4253 23.3669Z" fill="#6366F1" fill-opacity="0.16"/>
<path d="M54.5757 67.5198C53.7005 67.5198 52.9893 66.8064 52.9893 65.9286V60.3969C52.9893 59.5191 53.7005 58.8057 54.5757 58.8057C55.4508 58.8057 56.1621 59.5191 56.1621 60.3969V65.9286C56.1621 66.8064 55.4508 67.5198 54.5757 67.5198Z" fill="#6366F1" fill-opacity="0.16"/>
<path d="M67.0434 67.6729C66.1683 67.6729 65.457 66.9595 65.457 66.0817V60.4342C65.457 59.5565 66.1683 58.8431 67.0434 58.8431C67.9186 58.8431 68.6298 59.5565 68.6298 60.4342V66.0817C68.6298 66.9632 67.9223 67.6729 67.0434 67.6729Z" fill="#6366F1" fill-opacity="0.16"/>
<path d="M15.0462 86.9275C14.1227 86.9275 13.538 86.8789 12.6964 86.356C11.7468 85.7696 11.0728 84.7686 10.7972 83.5435C10.5738 82.5537 10.6445 81.5975 10.7413 80.7907C10.8903 79.5805 11.1398 78.4039 11.4414 77.1116C9.21824 77.0145 7.02856 76.6036 4.90592 75.8865C3.75894 75.498 2.34012 74.8855 1.50968 73.552C0.802136 72.4165 0.649454 70.9935 1.04047 69.2006C1.90815 65.2339 4.31753 62.0516 6.645 58.9701C8.58517 56.4041 10.4173 53.9837 11.3707 51.1936C12.3091 48.4483 12.3501 45.4826 12.3948 42.3451C12.4134 41.0191 12.432 39.6483 12.5251 38.2925C13.4933 24.099 22.36 11.5901 36.2466 4.83697C52.2595 -2.94329 71.0468 -1.26248 86.5086 9.34153C92.5525 13.4838 97.4868 19.3666 100.559 26.045L107.135 22.0671V13.9171C107.135 13.0393 107.847 12.3259 108.722 12.3259C109.597 12.3259 110.308 13.0393 110.308 13.9171V22.9635C110.308 23.5201 110.018 24.0392 109.541 24.3268L100.645 29.7092C100.246 29.9482 99.7658 30.0042 99.3264 29.8548C98.887 29.7092 98.5332 29.373 98.3582 28.9435C95.6062 22.1418 90.7613 16.1096 84.7174 11.9673C70.2052 2.01695 52.6059 0.422056 37.6356 7.70181C24.7843 13.9507 16.5805 25.4698 15.6942 38.5091C15.6085 39.779 15.5899 41.105 15.5713 42.3899C15.5266 45.6395 15.4782 49.0011 14.3759 52.2245C13.255 55.4964 11.1808 58.238 9.17727 60.89C6.95781 63.8258 4.86123 66.5972 4.14251 69.8767C3.94142 70.803 3.96004 71.4716 4.20209 71.8637C4.49628 72.3381 5.27459 72.6481 5.91883 72.8648C8.32822 73.679 10.8344 74.0376 13.3742 73.9293C13.862 73.9143 14.3461 74.1198 14.6626 74.5045C14.9792 74.8855 15.0983 75.3934 14.9866 75.879L14.7297 76.9734C14.3498 78.5944 14.0482 79.8718 13.8918 81.1717C13.8285 81.7058 13.7763 82.3258 13.8918 82.8413C13.9737 83.2073 14.1562 83.5173 14.3647 83.6481C14.469 83.7116 14.5025 83.7265 14.5062 83.7265C14.5956 83.7489 14.9754 83.7452 15.3441 83.7414H15.8543C16.7294 83.7414 17.4407 84.4548 17.4407 85.3326C17.4407 86.2104 16.7294 86.9238 15.8543 86.9238H15.359C15.251 86.9275 15.1467 86.9275 15.0462 86.9275Z" fill="#6366F1" fill-opacity="0.16"/>
<path d="M115.101 41.6914H91.938C91.0628 41.6914 90.3516 40.978 90.3516 40.1003C90.3516 39.2225 91.0628 38.5091 91.938 38.5091H114.442L121.473 31.4572C122.091 30.8372 123.096 30.8372 123.714 31.4572C124.333 32.0772 124.333 33.0857 123.714 33.7058L116.222 41.2208C115.924 41.5234 115.522 41.6914 115.101 41.6914Z" fill="#6366F1" fill-opacity="0.16"/>
<path d="M126.407 60.9721H119.529C119.108 60.9721 118.706 60.8041 118.408 60.5052L112.397 54.4768H91.9009C91.0257 54.4768 90.3145 53.7633 90.3145 52.8856C90.3145 52.0078 91.0257 51.2944 91.9009 51.2944H113.053C113.474 51.2944 113.876 51.4625 114.174 51.7613L120.184 57.7898H126.407C127.282 57.7898 127.993 58.5032 127.993 59.381C127.993 60.2625 127.286 60.9721 126.407 60.9721Z" fill="#6366F1" fill-opacity="0.16"/>
<path d="M112.684 82.5537C111.809 82.5537 111.098 81.8403 111.098 80.9625V72.7901L101.665 63.329H91.9643C91.0892 63.329 90.3779 62.6156 90.3779 61.7378C90.3779 60.8601 91.0892 60.1467 91.9643 60.1467H102.321C102.741 60.1467 103.144 60.3147 103.442 60.6136L113.805 71.0084C114.103 71.3072 114.271 71.7106 114.271 72.1327V80.9662C114.271 81.8403 113.559 82.5537 112.684 82.5537Z" fill="#6366F1" fill-opacity="0.16"/>
<path d="M93.2233 117.895C92.4636 117.895 91.7896 117.343 91.6592 116.566L88.0545 94.8796C87.44 91.1893 88.0545 87.3757 89.7861 84.1336C90.9219 82.0046 92.2178 79.9391 93.4728 77.9408C94.0016 77.0966 94.5341 76.2525 95.0517 75.4009C97.517 71.3595 100.079 66.5487 100.392 61.4913C100.448 60.6135 101.2 59.9524 102.075 60.001C102.95 60.057 103.613 60.8115 103.561 61.6893C103.203 67.4414 100.425 72.6855 97.759 77.0593C97.234 77.9184 96.6977 78.7737 96.1615 79.6328C94.9363 81.5863 93.6702 83.6032 92.5865 85.6351C91.1863 88.2609 90.6873 91.3573 91.1863 94.3566L94.7911 116.043C94.9363 116.909 94.3516 117.731 93.4877 117.873C93.3946 117.888 93.3089 117.895 93.2233 117.895Z" fill="#6366F1" fill-opacity="0.16"/>
<path d="M125.622 34.2772C122.56 34.2772 120.065 31.7784 120.065 28.7044C120.065 25.6341 122.557 23.1316 125.622 23.1316C128.683 23.1316 131.178 25.6304 131.178 28.7044C131.178 31.7784 128.686 34.2772 125.622 34.2772ZM125.622 26.3177C124.307 26.3177 123.238 27.3896 123.238 28.7081C123.238 30.0266 124.307 31.0986 125.622 31.0986C126.936 31.0986 128.005 30.0266 128.005 28.7081C128.005 27.3896 126.936 26.3177 125.622 26.3177Z" fill="#6366F1" fill-opacity="0.16"/>
<path d="M131.885 65.006C128.608 65.006 125.938 62.3317 125.938 59.041C125.938 55.7541 128.604 53.076 131.885 53.076C135.162 53.076 137.832 55.7504 137.832 59.041C137.832 62.3317 135.162 65.006 131.885 65.006ZM131.885 56.2584C130.354 56.2584 129.11 57.5059 129.11 59.041C129.11 60.5762 130.354 61.8237 131.885 61.8237C133.415 61.8237 134.659 60.5762 134.659 59.041C134.659 57.5059 133.415 56.2584 131.885 56.2584Z" fill="#6366F1" fill-opacity="0.16"/>
<path d="M112.315 92.1567C109.038 92.1567 106.368 89.4823 106.368 86.1917C106.368 82.9048 109.035 80.2267 112.315 80.2267C115.592 80.2267 118.262 82.901 118.262 86.1917C118.262 89.4823 115.596 92.1567 112.315 92.1567ZM112.315 83.4127C110.785 83.4127 109.541 84.6603 109.541 86.1954C109.541 87.7306 110.785 88.9781 112.315 88.9781C113.846 88.9781 115.09 87.7306 115.09 86.1954C115.09 84.6603 113.846 83.4127 112.315 83.4127Z" fill="#6366F1" fill-opacity="0.16"/>
<path d="M41.8813 118C41.0062 118 40.2949 117.287 40.2949 116.409V107.467H21.9508C17.2623 107.467 13.4453 103.638 13.4453 98.9359V92.7057C12.3579 91.9662 11.5833 90.8232 11.3376 89.5383C10.8311 86.864 12.3877 84.7125 15.4041 83.9207C16.2494 83.7003 17.1171 84.2083 17.3405 85.0562C17.5603 85.9078 17.0538 86.7743 16.2085 86.9984C14.1901 87.5288 14.3726 88.485 14.4582 88.9444C14.5662 89.5122 15.028 90.0463 15.6052 90.2704C16.2159 90.5095 16.6181 91.0959 16.6181 91.7533V98.9359C16.6181 101.887 19.0089 104.285 21.9508 104.285H41.8776C42.7527 104.285 43.464 104.998 43.464 105.876V116.409C43.4677 117.29 42.7564 118 41.8813 118Z" fill="#6366F1" fill-opacity="0.16"/>
<path d="M15.0462 86.9275C14.1227 86.9275 13.538 86.8789 12.6964 86.356C11.7468 85.7696 11.0728 84.7686 10.7972 83.5435C10.5738 82.5537 10.6445 81.5975 10.7413 80.7907C10.8903 79.5805 11.1398 78.4039 11.4414 77.1116C9.21824 77.0145 7.02856 76.6036 4.90592 75.8865C3.75894 75.498 2.34012 74.8855 1.50968 73.552C0.802136 72.4165 0.649454 70.9935 1.04047 69.2006C1.90815 65.2339 4.31753 62.0516 6.645 58.9701C8.58517 56.4041 10.4173 53.9837 11.3707 51.1936C12.3091 48.4483 12.3501 45.4826 12.3948 42.3451C12.4134 41.0191 12.432 39.6483 12.5251 38.2925C13.4933 24.099 22.36 11.5901 36.2466 4.83697C52.2595 -2.94329 71.0468 -1.26248 86.5086 9.34153C92.5525 13.4838 97.4868 19.3666 100.559 26.045L107.135 22.0671V13.9171C107.135 13.0393 107.847 12.3259 108.722 12.3259C109.597 12.3259 110.308 13.0393 110.308 13.9171V22.9635C110.308 23.5201 110.018 24.0392 109.541 24.3268L100.645 29.7092C100.246 29.9482 99.7658 30.0042 99.3264 29.8548C98.887 29.7092 98.5332 29.373 98.3582 28.9435C95.6062 22.1418 90.7613 16.1096 84.7174 11.9673C70.2052 2.01695 52.6059 0.422056 37.6356 7.70181C24.7843 13.9507 16.5805 25.4698 15.6942 38.5091C15.6085 39.779 15.5899 41.105 15.5713 42.3899C15.5266 45.6395 15.4782 49.0011 14.3759 52.2245C13.255 55.4964 11.1808 58.238 9.17727 60.89C6.95781 63.8258 4.86123 66.5972 4.14251 69.8767C3.94142 70.803 3.96004 71.4716 4.20209 71.8637C4.49628 72.3381 5.27459 72.6481 5.91883 72.8648C8.32822 73.679 10.8344 74.0376 13.3742 73.9293C13.862 73.9143 14.3461 74.1198 14.6626 74.5045C14.9792 74.8855 15.0983 75.3934 14.9866 75.879L14.7297 76.9734C14.3498 78.5944 14.0482 79.8718 13.8918 81.1717C13.8285 81.7058 13.7763 82.3258 13.8918 82.8413C13.9737 83.2073 14.1562 83.5173 14.3647 83.6481C14.469 83.7116 14.5025 83.7265 14.5062 83.7265C14.5956 83.7489 14.9754 83.7452 15.3441 83.7414H15.8543C16.7294 83.7414 17.4407 84.4548 17.4407 85.3326C17.4407 86.2104 16.7294 86.9238 15.8543 86.9238H15.359C15.251 86.9275 15.1467 86.9275 15.0462 86.9275Z" fill="#6366F1" fill-opacity="0.16"/>
<path d="M41.8813 118C41.0062 118 40.2949 117.287 40.2949 116.409V107.467H21.9508C17.2623 107.467 13.4453 103.638 13.4453 98.9359V92.7057C12.3579 91.9662 11.5833 90.8232 11.3376 89.5383C10.8311 86.864 12.3877 84.7125 15.4041 83.9207C16.2494 83.7003 17.1171 84.2083 17.3405 85.0562C17.5603 85.9078 17.0538 86.7743 16.2085 86.9984C14.1901 87.5288 14.3726 88.485 14.4582 88.9444C14.5662 89.5122 15.028 90.0463 15.6052 90.2704C16.2159 90.5095 16.6181 91.0959 16.6181 91.7533V98.9359C16.6181 101.887 19.0089 104.285 21.9508 104.285H41.8776C42.7527 104.285 43.464 104.998 43.464 105.876V116.409C43.4677 117.29 42.7564 118 41.8813 118Z" fill="#6366F1" fill-opacity="0.16"/>
<path d="M108.558 14.7537C105.381 14.7537 102.797 12.1616 102.797 8.9755C102.797 5.78944 105.381 3.19727 108.558 3.19727C111.734 3.19727 114.319 5.78944 114.319 8.9755C114.319 12.1616 111.734 14.7537 108.558 14.7537ZM108.558 6.37959C107.132 6.37959 105.97 7.54495 105.97 8.9755C105.97 10.4061 107.132 11.5714 108.558 11.5714C109.984 11.5714 111.146 10.4061 111.146 8.9755C111.146 7.54495 109.984 6.37959 108.558 6.37959Z" fill="#6366F1" fill-opacity="0.16"/>
<path d="M56.1291 30.1088H59.1864L66.2247 51.0591H63.3908L61.4171 44.702H53.8053L51.7981 51.0591H49.0908L56.1291 30.1088ZM54.5054 42.5318H60.7468L59.7599 39.3682C58.9965 37.0375 58.3262 34.7366 57.6596 32.3088H57.533C56.8962 34.7366 56.2259 37.0375 55.496 39.3682L54.5054 42.5318Z" fill="#6366F1" fill-opacity="0.16"/>
<path d="M69.1855 30.1088H71.8593V51.0591H69.1855V30.1088Z" fill="#6366F1" fill-opacity="0.16"/>
</svg>
