<svg width="118" height="118" viewBox="0 0 118 118" fill="none" xmlns="http://www.w3.org/2000/svg">
<g clip-path="url(#clip0_284_6329)">
<path d="M14.8179 96.4485C14.3724 96.4485 13.9339 96.257 13.6298 95.8848C5.0193 85.2738 0.277344 71.848 0.277344 58.0712C0.277344 50.1653 1.7802 42.4898 4.73994 35.2504C5.06173 34.4669 5.95284 34.0911 6.73432 34.4137C7.51581 34.7364 7.8871 35.6298 7.56885 36.4133C4.75762 43.2804 3.33256 50.5659 3.33256 58.0712C3.33256 71.146 7.83052 83.8877 15.999 93.9491C16.5329 94.6049 16.4339 95.5692 15.7797 96.1046C15.4969 96.335 15.1574 96.4485 14.8179 96.4485Z" fill="#6366F1" fill-opacity="0.16"/>
<path d="M111.273 82.1505C111.078 82.1505 110.877 82.1115 110.686 82.0335C109.908 81.7073 109.537 80.8104 109.862 80.0304C112.754 73.0782 114.222 65.6899 114.222 58.0747C114.222 46.7689 110.947 35.8637 104.749 26.5398C104.282 25.8342 104.469 24.8841 105.173 24.4161C105.877 23.9482 106.824 24.1361 107.291 24.8416C113.826 34.6725 117.277 46.1662 117.277 58.0783C117.277 66.1012 115.732 73.8865 112.684 81.2146C112.44 81.796 111.87 82.1505 111.273 82.1505Z" fill="#6366F1" fill-opacity="0.16"/>
<path d="M39.009 63.6478H33.1001C30.2889 63.6478 28.001 61.354 28.001 58.5355V57.0891C28.001 54.2706 30.2889 51.9768 33.1001 51.9768H39.009C41.8202 51.9768 44.1081 54.2706 44.1081 57.0891V58.5355C44.1081 61.354 41.8202 63.6478 39.009 63.6478ZM33.1001 55.0434C31.9756 55.0434 31.0597 55.9617 31.0597 57.0891V58.5355C31.0597 59.6629 31.9756 60.5811 33.1001 60.5811H39.009C40.1334 60.5811 41.0493 59.6629 41.0493 58.5355V57.0891C41.0493 55.9617 40.1334 55.0434 39.009 55.0434H33.1001Z" fill="#6366F1" fill-opacity="0.16"/>
<path d="M83.3981 112.069C82.5848 112.069 81.9094 111.427 81.8705 110.605C81.5063 102.181 81.089 92.6338 84.0063 83.9196C85.2333 80.2503 87.0226 76.8078 88.7553 73.4753C90.1309 70.8305 91.5524 68.0936 92.6451 65.3141C95.3785 58.3761 96.0751 50.9275 94.6076 44.3511C93.0128 37.1932 88.8437 30.9678 83.1682 27.2665C78.8259 24.4339 73.3625 22.7853 65.9756 22.0834C55.1126 21.0517 46.0424 22.6081 39.0196 26.7206C30.6814 31.6024 25.5929 40.7668 26.6502 49.0131C26.6644 49.1336 26.6679 49.2577 26.6538 49.3782C25.9006 56.1142 22.6933 62.1553 19.5957 67.9908C19.2279 68.6821 18.7894 69.5117 18.8425 70.1463C18.9061 70.944 19.8043 71.6247 20.6105 71.8587C21.2435 72.043 21.9684 72.082 22.7393 72.1245C23.4394 72.1635 24.1608 72.2025 24.9175 72.3514C25.6318 72.4897 26.1516 73.1137 26.1552 73.844C26.2047 80.0056 26.2577 86.3764 27.8631 92.3466C28.245 93.7612 28.779 95.3317 29.8504 96.2287C30.9785 97.1717 32.697 97.3951 34.3555 97.544C38.9701 97.9517 43.652 97.9871 48.2701 97.6503C51.6365 97.4022 55.5192 96.9165 58.7583 95.1651C63.2527 92.7366 66.2938 88.0569 68.9777 83.9302C69.4374 83.2212 70.3851 83.0226 71.0923 83.4835C71.7996 83.9444 71.9976 84.8945 71.5379 85.6036C68.7974 89.8189 65.3886 95.0623 60.2081 97.863C56.4598 99.8874 52.1811 100.437 48.4894 100.71C43.7085 101.061 38.8605 101.022 34.0832 100.6C32.0322 100.419 29.6948 100.097 27.8879 98.5863C26.1622 97.1433 25.4126 95.0268 24.9069 93.1514C23.3192 87.2486 23.1601 81.1578 23.107 75.2266C22.9302 75.216 22.7499 75.2054 22.566 75.1947C21.6608 75.1451 20.7272 75.0919 19.7583 74.8118C17.9195 74.2801 15.9782 72.7095 15.7908 70.4016C15.667 68.87 16.3672 67.5476 16.8799 66.5798C19.829 61.0244 22.863 55.3059 23.5915 49.2152C22.4599 39.6891 28.0187 29.6064 37.4743 24.0758C45.0629 19.6336 54.7519 17.9354 66.262 19.0345C74.1582 19.7861 80.06 21.587 84.8337 24.6998C91.1705 28.8335 95.817 35.7539 97.5886 43.6846C99.1869 50.8566 98.4408 58.9398 95.4881 66.4415C94.3353 69.3699 92.8749 72.1777 91.464 74.8934C89.7879 78.1196 88.0552 81.4521 86.9024 84.8945C84.169 93.0663 84.5509 101.915 84.9222 110.47C84.9575 111.317 84.3033 112.03 83.4617 112.069C83.4405 112.065 83.4193 112.069 83.3981 112.069Z" fill="#6366F1" fill-opacity="0.16"/>
<path d="M48.3655 115.433C47.5204 115.433 46.8379 114.749 46.8379 113.902V100.153C46.8379 99.3059 47.5239 98.6217 48.3655 98.6217C49.2106 98.6217 49.8931 99.3059 49.8931 100.153V113.902C49.8931 114.749 49.2071 115.433 48.3655 115.433Z" fill="#6366F1" fill-opacity="0.16"/>
<path d="M65.2259 117.16C65.2117 117.16 65.1976 117.16 65.1799 117.16C64.3348 117.135 63.67 116.429 63.6947 115.582L64.2251 97.2213L62.7612 95.3671C62.2378 94.7041 62.3475 93.7398 63.0087 93.2151C63.67 92.6904 64.6318 92.8003 65.1551 93.4669L66.9656 95.7571C67.1884 96.0407 67.3051 96.3917 67.2945 96.7533L66.7499 115.671C66.7287 116.504 66.0463 117.16 65.2259 117.16Z" fill="#6366F1" fill-opacity="0.16"/>
<path d="M65.6892 118C63.6913 118 61.6863 117.837 59.7025 117.507C58.868 117.369 58.3057 116.582 58.4437 115.745C58.5816 114.909 59.3701 114.345 60.2011 114.483C67.772 115.738 75.6257 114.352 82.3161 110.583C87.8678 107.453 92.4931 102.784 96.9627 98.2671C97.5568 97.668 98.5257 97.6644 99.1233 98.26C99.7209 98.8556 99.7245 99.827 99.1304 100.426C94.5122 105.092 89.7349 109.917 83.8119 113.256C78.2743 116.376 72.0047 118 65.6892 118Z" fill="#6366F1" fill-opacity="0.16"/>
<path d="M101.885 101.312C98.3948 101.312 95.5518 98.4656 95.5518 94.9665C95.5518 91.4673 98.3913 88.6205 101.885 88.6205C105.375 88.6205 108.215 91.4673 108.215 94.9665C108.215 98.4656 105.375 101.312 101.885 101.312ZM101.885 91.6836C100.078 91.6836 98.6105 93.1549 98.6105 94.9665C98.6105 96.7781 100.078 98.2494 101.885 98.2494C103.688 98.2494 105.159 96.7781 105.159 94.9665C105.156 93.1549 103.688 91.6836 101.885 91.6836Z" fill="#6366F1" fill-opacity="0.16"/>
<path d="M33.0258 86.5607C30.4551 86.5607 27.9197 86.2451 25.4514 85.9403C24.6134 85.8374 24.0193 85.0717 24.1219 84.2314C24.2244 83.3912 24.9917 82.7956 25.8263 82.8984C28.9239 83.2813 32.1241 83.6784 35.2147 83.4019C37.5238 83.1962 40.7947 82.4872 43.2665 80.2962C43.8994 79.7361 44.8648 79.7928 45.4235 80.4274C45.9822 81.062 45.9257 82.0298 45.2927 82.59C42.8457 84.7632 39.4545 86.0998 35.487 86.4543C34.6631 86.5288 33.8427 86.5607 33.0258 86.5607Z" fill="#6366F1" fill-opacity="0.16"/>
<path d="M63.2381 74.8755C54.2492 74.8755 46.9365 67.544 46.9365 58.5319C46.9365 49.5199 54.2492 42.1848 63.2381 42.1848C72.2269 42.1848 79.5432 49.5164 79.5432 58.5319C79.5397 67.544 72.2269 74.8755 63.2381 74.8755ZM63.2381 45.2479C55.936 45.2479 49.9917 51.2039 49.9917 58.5284C49.9917 65.8493 55.9324 71.8089 63.2381 71.8089C70.5437 71.8089 76.4844 65.8529 76.4844 58.5284C76.4844 51.2075 70.5402 45.2479 63.2381 45.2479Z" fill="#6366F1" fill-opacity="0.16"/>
<path d="M61.0918 59.3439H49.1467C48.3016 59.3439 47.6191 58.6596 47.6191 57.8123C47.6191 56.965 48.3051 56.2808 49.1467 56.2808H61.0918C61.9369 56.2808 62.6194 56.965 62.6194 57.8123C62.6194 58.6596 61.9334 59.3439 61.0918 59.3439Z" fill="#6366F1" fill-opacity="0.16"/>
<path d="M64.3028 62.1092C62.0291 62.1092 60.1797 60.255 60.1797 57.9754C60.1797 55.6958 62.0291 53.8417 64.3028 53.8417C66.5766 53.8417 68.426 55.6958 68.426 57.9754C68.426 60.255 66.5766 62.1092 64.3028 62.1092ZM64.3028 56.9048C63.7158 56.9048 63.2349 57.3834 63.2349 57.9754C63.2349 58.5675 63.7123 59.0461 64.3028 59.0461C64.8934 59.0461 65.3707 58.5675 65.3707 57.9754C65.3707 57.3834 64.8898 56.9048 64.3028 56.9048Z" fill="#6366F1" fill-opacity="0.16"/>
<path d="M78.0725 56.6495C77.3228 56.6495 76.6687 56.0965 76.5626 55.3307C76.4423 54.494 77.0258 53.7176 77.8603 53.5971C84.6143 52.6363 90.7531 48.5664 94.2857 42.7132C94.7242 41.9899 95.6612 41.756 96.3861 42.1956C97.1075 42.6352 97.3409 43.5747 96.9024 44.3014C92.903 50.9311 85.9439 55.5434 78.2917 56.6318C78.2175 56.6424 78.1432 56.6495 78.0725 56.6495Z" fill="#6366F1" fill-opacity="0.16"/>
<path d="M92.924 68.0936C92.673 68.0936 92.4184 68.0333 92.185 67.9021C87.8921 65.5197 82.8284 64.364 77.9273 64.6547C77.0892 64.6937 76.3608 64.0591 76.3113 63.2153C76.2618 62.3715 76.9053 61.6448 77.7469 61.5951C83.2173 61.2725 88.8716 62.5594 93.6666 65.2219C94.4057 65.6332 94.6709 66.5656 94.2642 67.3065C93.9849 67.8099 93.4615 68.0936 92.924 68.0936Z" fill="#6366F1" fill-opacity="0.16"/>
<path d="M86.6583 81.413C86.1385 81.413 85.6328 81.1471 85.3464 80.6685C82.6872 76.2299 78.5676 72.7591 73.7514 70.8943C72.9628 70.5894 72.5703 69.7031 72.8744 68.9125C73.1785 68.1219 74.0626 67.7284 74.8511 68.0333C80.3003 70.1427 84.9609 74.0673 87.9666 79.0873C88.4016 79.8141 88.1682 80.7536 87.4433 81.1897C87.1958 81.3421 86.927 81.413 86.6583 81.413Z" fill="#6366F1" fill-opacity="0.16"/>
<path d="M74.8362 116.798C74.8256 116.798 74.815 116.798 74.8009 116.798C73.9557 116.78 73.2874 116.078 73.3051 115.231L73.8037 92.4813L69.5851 85.5787C69.4755 85.3979 69.4012 85.1958 69.3729 84.9866C68.8213 80.9273 68.0221 76.8538 66.9966 72.8867C66.7845 72.0677 67.276 71.2311 68.0928 71.0184C68.9097 70.8056 69.7442 71.2984 69.9564 72.1174C70.9854 76.0987 71.7916 80.1793 72.3609 84.2528L76.6467 91.2653C76.7988 91.517 76.8766 91.8041 76.873 92.0984L76.3638 115.298C76.3462 116.135 75.6672 116.798 74.8362 116.798Z" fill="#6366F1" fill-opacity="0.16"/>
<path d="M93.4685 38.2886C93.4473 38.2886 93.4261 38.2886 93.4084 38.2886C92.5632 38.2532 91.9091 37.5406 91.9409 36.6968C92.3405 26.5857 86.8382 16.0493 77.9166 9.84509C69.5642 4.03797 58.4537 1.8151 47.4351 3.74726C37.5021 5.48798 27.6929 10.4761 19.0612 18.18C18.4282 18.7437 17.4629 18.6869 16.9042 18.0559C16.3419 17.4248 16.3985 16.4534 17.0279 15.8933C26.0804 7.81366 36.413 2.57024 46.9082 0.733801C58.7118 -1.33662 70.6498 1.0706 79.6564 7.33505C89.4125 14.1171 95.4346 25.6959 94.9926 36.8244C94.9643 37.6398 94.2853 38.2886 93.4685 38.2886Z" fill="#6366F1" fill-opacity="0.16"/>
<path d="M13.1315 27.5679C9.13215 27.5679 5.87891 24.3062 5.87891 20.3001C5.87891 16.2904 9.13215 13.0288 13.1315 13.0288C17.1309 13.0288 20.3841 16.2904 20.3841 20.3001C20.3841 24.3062 17.1309 27.5679 13.1315 27.5679ZM13.1315 16.0919C10.8189 16.0919 8.93766 17.978 8.93766 20.2966C8.93766 22.6152 10.8189 24.5012 13.1315 24.5012C15.4441 24.5012 17.3254 22.6152 17.3254 20.2966C17.3254 17.978 15.4441 16.0919 13.1315 16.0919Z" fill="#6366F1" fill-opacity="0.16"/>
</g>
<defs>
<clipPath id="clip0_284_6329">
<rect width="117" height="118" fill="white" transform="translate(0.277344)"/>
</clipPath>
</defs>
</svg>
